<?xml version="1.0" encoding="utf-8"?>
<!-- Generator: Adobe Illustrator 23.0.1, SVG Export Plug-In . SVG Version: 6.00 Build 0)  -->
<svg version="1.1" id="Layer_1" xmlns="http://www.w3.org/2000/svg" xmlns:xlink="http://www.w3.org/1999/xlink" x="0px" y="0px"
	 viewBox="0 0 723 801" style="enable-background:new 0 0 723 801;" xml:space="preserve">
<style type="text/css">
	.st0{fill:#301406;}
	.st1{fill:#3AB54A;}
	.st2{fill:#2F1506;}
	.st3{fill:#FEFEFE;}
	.st4{fill:#BE7400;}
	.st5{fill:#2C1707;}
	.st6{fill:#58DAC2;}
	.st7{fill:#261A05;}
	.st8{fill:#020102;}
	.st9{fill:#F89F1E;}
	.st10{fill:#FA9F1D;}
	.st11{fill:#010101;}
	.st12{fill:#2A1807;}
	.st13{fill:#C98901;}
	.st14{fill:#292009;}
	.st15{fill:#D89F01;}
	.st16{fill:#FBEA6E;}
	.st17{fill:#E2AF0D;}
	.st18{fill:#F3E674;}
	.st19{fill:#CD9001;}
	.st20{fill:#E6B81E;}
	.st21{fill:#EAC530;}
	.st22{fill:#F1D247;}
	.st23{fill:#EFDF6F;}
	.st24{fill:#F6E05D;}
	.st25{fill:#FBEB6F;}
	.st26{fill:#FDF17B;}
	.st27{fill:#FDF27E;}
	.st28{fill:#F7E261;}
	.st29{fill:#301407;}
	.st30{fill:#F0D348;}
	.st31{fill:#F4DA53;}
	.st32{fill:#301506;}
	.st33{fill:#E4B618;}
	.st34{fill:#E7D367;}
	.st35{fill:#F5E876;}
	.st36{fill:#FCEE73;}
	.st37{fill:#F2D54C;}
	.st38{fill:#FEF27E;}
	.st39{fill:#EEDD6E;}
	.st40{fill:#EAC22C;}
	.st41{fill:#FEF47F;}
	.st42{fill:#EFCE3F;}
	.st43{fill:#E0AB08;}
	.st44{fill:#DEC75F;}
	.st45{fill:#F3D750;}
	.st46{fill:#EECC3D;}
	.st47{fill:#E8D668;}
	.st48{fill:#291806;}
	.st49{fill:#2D1808;}
	.st50{fill:#F8E464;}
	.st51{fill:#010102;}
	.st52{fill:#FCF07A;}
	.st53{fill:#F99F1E;}
	.st54{fill:#FA9F1E;}
	.st55{fill:#F79F20;}
	.st56{fill:#251E04;}
	.st57{fill:#F2E271;}
	.st58{fill:#E7D468;}
	.st59{fill:#E0C95F;}
	.st60{fill:#D4BA55;}
	.st61{fill:#C8A948;}
	.st62{fill:#BC993D;}
	.st63{fill:#B28A32;}
	.st64{fill:#A77A27;}
	.st65{fill:#9D6E1F;}
</style>
<g>
	<g>
		<path class="st0" d="M450.8,27.8c8.9-3.6,19.2-1,26.9,4.3c2.5,1.5,5,4.4,8.3,3.4c9.4-2.9,18.4-7.5,28.2-8.9
			c11.1-1.5,22.7,3.9,28.9,13.2c7.2,11,8,26.1,1.4,37.6c-2.8,5.3-7.3,9.8-12.3,13c12.2-2.9,25.2-2.7,37.2,1.3
			c9.6,3.3,16.6,12.3,17.9,22.2c1.2,10.5-0.1,21.9-6.6,30.6c-5,7-13,11.2-18.1,18.2c-0.1,4.1,1.6,8.1,2.4,12.1
			c2.2,8.2,2,16.7,2.2,25.1c-0.5,8-3.5,15.8-7.4,22.7c-4.8,8.2-13.6,13.4-22.8,15.2c1.7,1.3,3.5,2.3,5.4,3.3
			c1.1,2.6,3.1,4.6,5.2,6.5c4.1,3.7,7.3,8.1,10.8,12.4c4.6,7.2,9.2,14.5,12.9,22.2c3.1-4.5,0.3-9.9-0.8-14.7c0.8-3,1.7-6,2.4-9.1
			c0.6,1.6,1.2,3.2,1.7,4.8c-0.4,4.1-0.2,8.3,1,12.4c1.3,3.3-1.3,6.2-1.8,9.4c0.1,2,0.5,4,0.9,6c1.6-2.5,2.8-5.4,5.2-7.3
			c2.2-1.4,4.9-0.1,7.3,0.3c6.7,2,14,1.5,20.6-0.6c1.6,0.5,3.2,1,4.8,1.5c-1.3,0.5-2.5,1-3.8,1.4c-3.6,1.2-7.4,2-11.2,2.3
			c-5.3,0.1-10.4-1.4-15.4-2.5c-3.1,1.8-3.9,5.9-5.5,8.9c11.9,32.3,11.6,68.5,0.2,100.9c6.2-0.7,12.3-1.8,18.5-2.4
			c4-0.6,8.1,2.5,8.4,6.5c0.6,7.3,0.8,14.7,1.3,22c4.7-9.5,11.7-18.3,21.6-22.6c7.5-3.3,16.3-4.2,24.2-2c7,1.9,12.5,8.2,13.2,15.4
			c1.8,12.3-4.7,24.7-14.8,31.6c3.9,0.6,8,3.1,8.2,7.4c-0.2,4.9-2,9.7-4.3,14c-4,7.3-11.6,12.3-19.8,13.5c-7.9,1.2-16.6,0.5-23.5-4
			c-3.1-1.9-5.3-4.8-7.5-7.7c-4.8,2.9-8.8,7.1-14.1,9.1c-10.9,4.4-24.3,4.5-34-2.9c-10.2,6.9-25.2,8.7-34.8-0.1
			c-2.8,1.7-5.6,3.2-8.5,4.6c-1.5,8.4-3.8,17-9.5,23.6c-8,9.6-22.7,12.7-34.1,7.7c-6.4-2.7-10.5-9.1-11.5-15.9
			c-8.6,1.3-17.3,1-26,1.9c-6.2,0.5-12.4,1.3-18.6,2.1c-12.1,1.5-23,7.4-33.4,13.4c-19.4,11.4-35.4,28.6-44.4,49.3
			c3,0.7,6.4,2.6,9.3,0.7c9.2-4.5,20.2-3.1,29.3,0.8c4.3,2,9.3,4.2,11.3,8.9c1.4,2.8,4,4.6,6,6.9c3.9,4.1,6.7,9.1,9,14.2
			c-0.2,0.5-0.6,1.4-0.8,1.8c3.2,6.5,5.4,13.5,7.3,20.5c-0.7,0.7-1.4,1.5-2,2.2c1.2,10.4,0.9,20.9,0.9,31.4
			c-5-6.7-9.7-14.1-16.9-18.7c-1.5-0.9-3.4,0-4.9-0.8c-3.9-2-7.4-4.8-11.4-6.7c-1-0.5-2.1-0.2-3.1-0.2c-4.4-1.7-8.1-6.2-13.1-5.7
			c-10.6-6.4-18.8-17.3-20.5-29.8c-0.7-4.4,0-8.8,0.1-13.1c-0.6-1.6-2.7-1.9-3.9-2.9c-6.6,20.8-8.9,43.5-3.2,64.8
			c3.5,12.9,8.9,25.7,17.9,35.7c16.2,18.4,39.1,29.7,62.7,35.6c11.6,2.8,23.2,5.5,35,7.6c2.8,0.5,5.7,0.5,8.6,0.4
			c2.9,0.7,5.8,1.6,8.7,2.4c-3.6,1.2-7.3,2.1-11,2.8c1.3,1.3,2.7,2.7,4,4c8.8,9.6,10.7,25.3,3.3,36.2c-5.5,8.5-15.3,14.2-25.4,14.3
			c-41.9,0-83.7-9-122-26c-29.2-13-56.2-30.6-80-51.9c-27.5-24.9-50.2-55.1-66.7-88.3c-19.6-39.3-30.3-83-31.1-126.9
			c-21.1-0.1-42.3,0-63.4,0c-5.6,0-11.1-2.5-14.7-6.8c-5.9-6.9-6.4-17.6-1.5-25.1c3.5-5.4,9.8-8.8,16.2-8.7c21.7,0,43.5,0,65.2,0
			c0.3-2.9,0.7-5.8,1.1-8.7c-19.8,0-39.5,0-59.3,0c-4,0-8,0.3-11.9-0.7c-5.2-1.3-9.7-4.8-12.2-9.5c-4.3-8.1-3-19,3.9-25.3
			c3.9-3.6,9.2-5.3,14.4-5.2c24.7,0,49.4,0,74.1,0C161.9,323.4,205.9,264,264,225.1c22.5-15.1,47.1-26.9,72.9-35.2
			c-9.2-8.8-12.1-23.3-7.2-35.1c3-7.8,9.9-13,14.8-19.4c3.9-6.3,0.8-13.7,0.9-20.5c-0.7-14,5.7-28,16.7-36.7c6.5-5.1,14.5-9.1,23-9
			c11.4,0.2,22.1,5.8,30.3,13.4c4.4,4.2,9.1,8,13.3,12.3c-5.4-15.6-4.6-33.5,2.9-48.3C435.9,38.7,442.3,31.3,450.8,27.8 M449.3,34.3
			c-12.3,7.8-18.1,22.6-19,36.7c-1.1,17.3,7.1,33.1,13.2,48.8c-7.4-8-13.7-17.1-21.9-24.5c-3.7-3.3-7.3-6.6-11-10
			c-6.8-6-15.4-10.5-24.6-10.9c-7.4-0.4-14.4,3.1-20.2,7.4c-9.3,7.1-15.1,18.5-15.3,30.3c-0.5,7.8,2.9,15.7-0.2,23.3
			c-2.5,5.7-7.8,9.5-11.6,14.3c-7.9,9-8.5,23.4-1.4,33c4.4,5.8,10.8,11.3,18.6,10.8c8.3-0.7,15.6-5.4,21.7-10.8
			c6.3-5.6,13.6-9.8,20.4-14.7c8.3-5.6,16.9-11.6,26.9-13.6c3.8-0.4,8.4-1.5,11.5,1.4c-21.1,13.5-42.6,27.6-58.7,47.2
			c-5.6,7.3-11.4,15.6-11.2,25.2c-0.2,6.7,3,13.2,8.4,17.1c7.5,6.1,17.9,6.6,27,4.8c4.4-0.8,7.9-3.7,11.7-5.8c2,4,3.3,8.5,6.4,11.8
			c2.8,2.9,5.4,6.1,8.9,8.2c7.8,4.7,17.5,6.6,26.4,4.5c11.3-2.8,21.1-10.6,26.4-20.9c7-13.1,7.2-28.6,5.4-42.9
			c-1.7-11-4.3-21.9-8.5-32.2c-1.7-4.4-4.6-8.3-6.1-12.8c5.3,2.5,8,7.8,11.4,12.2c4.4,6.3,9.3,12.5,12.1,19.8
			c3.5,8.7,6.1,17.7,9.6,26.4c3.1,7.9,10.6,14.3,19.2,15c9.9,0.9,21-1.7,27.7-9.5c4.8-5.8,7.5-13.2,9-20.5
			c0.6-10.1,0.3-20.4-2.5-30.1c-0.8-4.1-2.9-8.6-1-12.7c5.6-8.4,15.6-12.8,20.4-21.8c3.8-6.8,4.4-14.8,3.8-22.4
			c-0.6-8.4-6.1-16.3-14.1-19.3c-12.2-4.2-25.6-4.1-37.9-0.7c-9.9,2.5-18.7,7.8-27.6,12.5c-8.4,4.6-15.1,12.9-24.8,14.7
			c0.3-4.1,2.1-7.8,4.5-11.1c7-9.4,18.5-13.7,28.9-18.1c8.7-3.8,18.6-6.5,25.1-13.9c9.8-11,10-28.9,0.6-40.2
			c-5.6-6.3-14.5-9.8-22.9-8.4c-9.7,1.6-18.5,6.4-27.9,8.9c-5,1.1-8.8-2.9-12.7-5.3C466.3,30.9,456.6,29.5,449.3,34.3 M393.1,177.5
			c1.9-0.3,4-0.4,5.5-1.8c5.6-4.5,11.5-8.6,17.3-12.7C407.7,166.9,400.6,172.5,393.1,177.5 M375.2,191.1c-6,4-12.9,7.4-20.2,7.5
			c-3,0.1-5.9-1.4-8.9-0.9c-73,21.2-135.5,73.7-171.4,140.4c-2.4,4.7-5.2,9.3-6.9,14.4c-1.2,1.4-1.8,3.2-2.5,4.8
			c-5.2,12-10.2,24.1-13.4,36.8c-0.8,2.2-1.3,4.5-1.9,6.7c-27.3,0.2-54.6,0-81.9,0.1c-1.8,0-3.6,0.4-5.4,0.8
			c-5.5,3.3-6.9,11.5-2.6,16.4c2.2,2.7,5.7,3.3,9,3.2c25.3,0,50.6,0,75.8,0c0.2,2.6-0.5,5.1-0.9,7.6c-0.2,1.5-0.5,3-0.5,4.5
			c-1.2,5.6-1.3,11.3-2.2,17c-23.8-0.1-47.5,0-71.3,0c-2.2,0-4.5,0.2-6.7,0.5c-7.4,3.5-7.6,14.9-0.7,19l0.4,0c1.6,0.5,3.3,0.9,5,0.9
			c24.2,0,48.4-0.1,72.7,0.1c-0.5,3.8-0.4,7.8,0.1,11.6c-0.3,8.6,0.7,17.2,1.6,25.8c0.9,6.6,1.6,13.3,3.1,19.8
			c0.9,4.9,1.6,9.9,3.2,14.6c3.6,16.6,9.4,32.7,16.1,48.3c5,11.5,10.9,22.6,17.3,33.4c3.5,5.8,7.3,11.4,11.1,17
			c5.6,8,11.7,15.6,18,23.1c7.7,8.8,16,17.2,24.7,25c8.6,7.8,17.9,14.9,27.3,21.7c12.8,8.9,26.3,16.7,40.2,23.6
			c10.1,4.9,20.4,9.2,31,12.9c20.2,7.2,41.2,11.9,62.5,14.5c11.7,1.4,23.4,2.1,35.2,1.8c11.9-1.2,21.2-14.1,17.2-25.8
			c-2.5-7.4-9-13.9-17.1-14.6c-7.6-0.5-15.3-0.2-23-1c-3.8-0.1-7.6-1.1-11.4-0.9c-15.8-2.5-31.5-6.1-46.7-10.9
			c-15.1-5-29.5-11.6-43.3-19.3c-9-5-17.5-10.9-26.1-16.7c-11.7-8.9-22.6-18.8-32.8-29.3c-5.1-5.4-9.7-11.1-14.6-16.6
			c-5.1-7-10.1-14-14.7-21.2c-5.4-8.3-10-17.1-14.5-25.9c-8.2-16.9-13.7-35-18.4-53.1c-0.7-5.4-2-10.8-3.1-16.1
			c-1.3-12-2.6-24-2.4-36.1c0-2.1,0.2-4.4-0.7-6.3c1.6,1.1,3.7,0.8,5.6,0.9c24-0.1,48,0,72.1,0c4.4,0.3,8.6-2.8,9.7-7
			c1.9-5.8-2-13.4-8.6-13.3c-25.6-0.1-51.1,0-76.7,0c0-2.2,0.2-4.5,0.3-6.7c1.2-5.9,1.8-11.9,3.2-17.7c0.1-1.8,1.4-3.9,0-5.4
			c0.5,0.2,1.5,0.5,2,0.7c23.4,0.1,46.8,0,70.1,0c4.5,0.3,8.8-2.8,9.7-7.2c1.4-4.8-0.9-11.5-6.3-12.6l0.5-0.2
			c-3.3-0.6-6.7-0.5-10-0.4c-16.3,0-32.7,0-49,0c-3.6,0-7.3-0.2-10.9,0.4c2.3-8.1,5.4-16.1,8.5-23.9c7.7-17.1,17-33.6,27.8-48.9
			c14.9-19.8,32.3-37.8,52.1-52.7c24.5-18.2,52.2-32.3,81.6-40.3c-1.1-6.3-1-12.8,1.4-18.8c4.3-10.6,11.8-19.4,19.8-27.3
			C380.6,189.5,377.6,189.5,375.2,191.1 M493.3,223.4c3.9,1.1,7.7,2.3,11.5,3.6c-7.1-11.6-9.3-25.4-15.2-37.5
			C492.2,200.6,493.7,211.9,493.3,223.4 M491.9,234.3c-1.3,6.5-3.6,12.9-7.1,18.5c-6.9,11.5-19,19.8-32.4,21.5
			c-10.6,1.2-21.8-1.9-30-8.7c-4.3-4.1-8.9-8.3-11.1-14c-7.1,4.1-15.6,4.7-23.5,4c-8.1-0.8-15.7-5-20.9-11.2
			c-30.7,8-59.3,22.9-84.3,42.2c-15.1,12-28.8,25.8-40.8,40.9c-14.7,19.2-27,40.3-35.4,63c17.4,0.1,34.9,0,52.3,0.1
			c7.4,0,14.5,4.4,17.6,11.1c4.3,9,1.6,21.1-7.1,26.5c-5.3,3.6-12,3.2-18.1,3.1c-18.7,0-37.4,0-56,0c-0.5,2.9-1,5.8-1.5,8.7
			c21.8,0.1,43.7,0,65.5,0.1c8.8-0.1,16.7,6.6,18.7,15.1c3.6-17.1,7.2-34.1,10.8-51.2c0.6-3.9,4.4-6.8,8.4-6.4
			c7.6,0.3,15.4-0.8,22.9,0.8c7.7-2.1,16.6-2.3,23.4,2.5c6.4,4.4,8.9,12.6,8.6,20.1c5.4-10.9,14.7-20.6,26.8-23.5
			c9.3-2.3,20.6-1.7,27.6,5.7c1.4-2.6,3.5-5.5,6.8-5.6c6.7-0.2,13.3-0.1,20-0.1c1.9-0.1,3.6,0.9,5.3,1.6c5.3-1.8,11.3-2.6,16.5,0
			c3.5,1.5,5.9,4.5,7.8,7.7c6.9-6.8,16.7-10.7,26.5-10c2.3,0.2,4.5,0.8,6.9,0.9c7.7-0.4,15.4-0.3,23-0.2c2.2-0.1,4,1.4,5.6,2.8
			c1.4-0.9,2.7-1.9,4.1-2.8c-5.1-7.8-3.2-19.1,4.3-24.6c5.7-4.6,14-4.7,20.3-1.4c0.1-0.4,0.3-1.4,0.4-1.8c0.3,0.4,0.9,1.1,1.2,1.5
			c0.9-3.1,0.1-6.2-2.1-8.5c0.1-0.5,0.2-1.4,0.2-1.9l1.2,0.9c-0.2-2.1,1-4.8-0.9-6.4c0.7-0.4,2-1.2,2.7-1.7l0.6,0.6
			c4.8-31.4-3.6-64.4-21.7-90.4C523.7,250.4,508.7,239.6,491.9,234.3 M540.4,377.5c-7.8,2.4-9.4,14.2-2.6,18.6
			c6.1,4.7,16.2,0.4,16.8-7.3C555.8,381.3,547.5,374.6,540.4,377.5 M576.3,403.6c-3.9,11.7-8,23.5-13.7,34.5c-1.2,2.6-2.7,5-5.1,6.6
			c-3.4,2.6-4.2,7-4.9,11c-2.5,2.9-6.8,4.6-10.4,3.1c-1.8-0.6-2-2.8-2.3-4.4c1.6-10.4,4.3-20.5,6.3-30.8c1.3-6.2,2.6-12.3,3.9-18.5
			c-6.4,0-12.8,0-19.2,0c-1.9,9.1-4,18.1-5.7,27.3l-0.1,0.1c-1.7,6.5-2.3,13.3-4.8,19.6c-2.7,6.7-8,12.2-14.9,14.5
			c0.6-3,1.3-6.1,1.9-9.1c0.9-5.8,3.1-11.4,3.1-17.3c1.1-0.8,1.1-2.5,1.5-3.7c2.2-10.5,4.5-20.9,6.7-31.4c-6.4,0-12.8,0-19.2,0
			c-0.4,1.9-0.8,3.8-1.2,5.7c-0.5-2.8-2.4-4.8-5-5.6l-0.1-0.1c-6.6-1.5-13.8-0.5-19.6,3.2c-7.7,4.7-12.8,12.7-16.1,20.9
			c-3.6,9.6-5.5,20.1-3.4,30.3c1.3,3.8,3.2,7.5,6.7,9.8c7.9,5.3,19.1,3,25.5-3.6c-0.3,2-0.6,4.1-1.1,6.1
			c-6.9,2.3-14.3,5.1-18.8,11.1c-3.4,4.5-3.6,10.8-1.1,15.8c5.3,6.9,15.4,7.1,22.8,4.1c6.9-2.8,11-9.6,13.2-16.4
			c1.2-4.6,2-9.3,3.1-13.9c6.7-1.7,12.8-5.6,17-11.2c1.1,4.4,3.8,8.6,8.2,10c9.2,2.9,19.2-1.3,25.2-8.4c1.4,2,2.9,3.9,4.7,5.6
			c10.3,6.5,24.7,4.1,33.5-3.8c4.4-3.2,9.1-5.9,13.2-9.6c0.4,2.3,1,4.5,1.7,6.8c2.2,4.5,6.1,8.1,11.1,9.3c7,1.7,14.9,1.4,21.1-2.4
			c5.7-3.5,8.5-10,9.7-16.3c-5.1,3.7-10.9,7.6-17.5,6.9c-3.1-0.3-4.8-3-6-5.6c-0.5-3-0.6-6-0.3-9c12.3-0.8,24.5-8,29.2-19.8
			c1.3-4.9,2.2-10.3,0-15c-1.4-3-4.4-4.7-7.5-5.5c-9.6-2-20.2,1-27,8c-8.4,8.5-12.7,20.3-14,32c-0.5,1.5-0.4,3-0.6,4.5
			c-2.4,1.8-4.9,3.4-7.4,5.1c0.6-5.7,0.3-11.4-0.5-17.1c-0.8-12-1.6-24.1-2.1-36.1C589.4,401.9,582.9,402.8,576.3,403.6 M314,411.6
			c0.5-2.1,0.9-4.3,1.4-6.4c-6.4,0-12.8,0-19.2,0c-1.8,9-4.1,17.9-5.6,26.9c-3.1,13.1-5.7,26.3-8.5,39.4c6.4,0,12.8,0,19.3,0
			c2.9-14,6-28.1,8.8-42.2c1.7-5,4-11.4,9.9-12.6c2.8-0.5,4.4,2,5.2,4.3c0.4,8.3-2.8,16.2-4,24.3c-1.8,6.8-3.5,14.7,0.5,21
			c3.6,5.6,11.1,6.8,17.2,5.7c6.4-1,11.4-5.8,14.7-11c1.5,2.6,2.8,5.8,5.5,7.3l0.7-0.1v0.6c4.8,3.6,11.3,3.9,17.1,3.4
			c10.3-1,19.4-7.2,25.9-15.1c-0.3,1.4-0.6,2.8-0.9,4.1c-0.7,3.5-1.5,6.9-2.1,10.4c6.4,0,12.8,0,19.1,0c1.7-7.6,3.4-15.1,4.7-22.8
			c1.9-7.5,3.1-15.1,4.9-22.6c0.5-2.2,0.4-4.8,2.4-6.3c2.5-2.2,6.1-4.8,9.5-3.3c1.4,2.4,0.9,5.9,3.4,7.6c4.8,2.3,11.2-1,12.3-6.2
			c1.5-5.1-1.3-11.8-7-12.7c-6.9-1.1-12.8,3.6-17.8,7.8c0.6-2.6,1.1-5.3,1.7-8c-6.4,0-12.8,0-19.2,0c-1.4,7.4-3.3,14.7-4.6,22.2
			c-1.6,6.7-2.7,13.6-4.5,20.3c-3.2,4.2-7.2,7.9-11.7,10.5c-5.5,2.9-12.4,4.1-18.2,1.4c-3.4-4.1-2.9-9.7-2.6-14.7
			c9.8-0.8,19.5-5.3,25.4-13.2c4.7-6.2,6.7-14.9,3.6-22.3c-3.9-5.5-11.3-5.9-17.4-5.1c-10.4,1.2-19.4,8.7-23.9,17.9
			c-3.2,5.3-5,11.3-6.4,17.3c-0.9,4.1-1,8.2-1.5,12.3c-1.5,3.7-4.6,7.6-9,7.5c-2.6,0.3-5.2-1.6-5.2-4.3c-0.3-4.7,1.4-9.2,2.1-13.8
			c1-1.9,1.2-4.1,1.8-6.2c1.7-7.5,3.8-15.5,1.1-23c-2.2-4.8-7.5-7.4-12.7-7.4C323.9,404.2,318.1,407.2,314,411.6 M436.1,427.3
			c-2.2,11.8-4.9,23.5-7.3,35.3c5.9-0.4,11.8-0.8,17.7-1.1c-2.2-9.5-1.1-19.5,1.4-28.8C443.3,432.8,438.9,430.9,436.1,427.3
			 M308.5,474c-0.9,3.2-4.3,5.3-7.5,5.2c-6.7,0-13.4,0.2-20.1-0.1c-3.4-0.3-5.5-3.2-6.6-6.1c-3.8,4.5-9.4,7.7-15.4,7.6
			c-22.6,0.1-45.1,0-67.7,0c0.3,23.2,4.7,46.2,12,68.1C225.2,614.5,276.6,670,341,695.8c-6-4.5-11.8-9.3-16.9-14.9
			c-10-10.7-16.6-24.1-21.6-37.7c-8.5-23.7-8.4-49.8-3.1-74.2c0.6-2.9,2-6.1,0.1-8.9c0.6-1.4,1.3-2.7,1.9-4c0.3,0.3,0.8,0.9,1.1,1.2
			c3.1-5-2.8-9.9-0.1-15c0.9,2.1,1.7,4.3,2.4,6.5c2.5-3.7,3.7-8.1,5.9-12c12.3-24.3,32.7-43.9,56.3-57.1c-5.1-1-10-3-14.1-6.3
			c-8.1,7.1-20.6,8.7-30.2,3.8c-6.6-3.3-10.4-10.4-11.2-17.5C310.6,464.5,309.8,469.3,308.5,474 M342.7,564.6
			c-3.5,2.3-7.2-1.2-10.9,0.1c-0.2,0.9-0.5,1.8-0.7,2.7c2.2,1.3,5.6,2.4,5.5,5.5c-0.4,5.7-1.1,11.5,0.7,17c2.4,9,8.6,16.5,16,21.9
			c0.7,0,2-0.1,2.6-0.2c4.6,2.2,8.5,6.2,13.8,6.3c4.6,2.2,8.7,5.2,13.2,7.6c0.4-0.4,1.3-1.1,1.8-1.5c5.9,3.8,11,8.6,15.5,14
			c0.2-7.8-0.1-15.5-1-23.2c0.6-0.6,1.2-1.2,1.7-1.7c-1.8-6.7-4-13.4-7.4-19.5c0.2-0.9,0.4-1.8,0.6-2.6c-3.3-7.2-8.7-13.1-14.8-18.2
			c0.9-2.8-2.1-4-3.9-5.3C365.7,561.9,353.1,559.3,342.7,564.6z"/>
		<path class="st0" d="M638.3,413.3c1.6-1.6,4.7-3.3,6.7-1.2c1.8,2.8,0.9,6.4,0.5,9.5c-2.3,8.6-9.6,15.8-18.6,16.9
			c0.6-2.4,1.2-4.8,1.9-7.1C630.9,424.8,633.4,418.2,638.3,413.3z"/>
		<path class="st0" d="M484.7,415.7c2.1-2.2,5.1-2.9,8-3c1.8,1.1,4.1,2.7,3.7,5.2c-1.9,10-4.4,19.9-6.2,29.9
			c-1.4,5-4.6,10.5-10.2,11.4c-2.5,0.6-4.6-0.9-6.3-2.6c-2.3-8-0.5-16.4,1.8-24.2C477.5,426.4,480,420.1,484.7,415.7z"/>
	</g>
	<g>
		<path class="st1" d="M449.3,34.3c7.3-4.7,17-3.3,24.1,1.2c3.9,2.4,7.7,6.3,12.7,5.3c9.5-2.5,18.2-7.3,27.9-8.9
			c8.4-1.4,17.3,2.1,22.9,8.4c9.5,11.2,9.3,29.2-0.6,40.2c-6.5,7.4-16.3,10.1-25.1,13.9c-10.4,4.4-21.9,8.7-28.9,18.1
			c-2.4,3.2-4.2,7-4.5,11.1c9.8-1.8,16.4-10.1,24.8-14.7c9-4.7,17.7-10.1,27.6-12.5c12.3-3.5,25.8-3.6,37.9,0.7
			c8,2.9,13.4,10.9,14.1,19.3c0.6,7.6,0,15.6-3.8,22.4c-4.7,9.1-14.8,13.4-20.4,21.8c-1.9,4.1,0.2,8.6,1,12.7
			c2.7,9.8,3.1,20.1,2.5,30.1c-1.5,7.3-4.2,14.7-9,20.5c-6.7,7.9-17.7,10.5-27.7,9.5c-8.6-0.7-16.1-7.1-19.2-15
			c-3.6-8.7-6.2-17.7-9.6-26.4c-2.8-7.3-7.7-13.4-12.1-19.8c-3.4-4.4-6.1-9.8-11.4-12.2c1.5,4.5,4.4,8.4,6.1,12.8
			c4.2,10.3,6.8,21.2,8.5,32.2c1.8,14.4,1.6,29.9-5.4,42.9c-5.3,10.3-15.2,18.2-26.4,20.9c-9,2.1-18.6,0.2-26.4-4.5
			c-3.5-2.1-6.1-5.3-8.9-8.2c-3.1-3.3-4.4-7.8-6.4-11.8c-3.9,2-7.3,5-11.7,5.8c-9.1,1.8-19.5,1.3-27-4.8c-5.4-3.9-8.6-10.5-8.4-17.1
			c-0.2-9.6,5.6-17.9,11.2-25.2c16.1-19.6,37.5-33.6,58.7-47.2c-3.1-2.9-7.7-1.8-11.5-1.4c-10,2.1-18.6,8-26.9,13.6
			c-6.8,4.9-14.1,9.1-20.4,14.7c-6.1,5.3-13.4,10-21.7,10.8c-7.8,0.5-14.2-5-18.6-10.8c-7.1-9.6-6.5-24,1.4-33
			c3.7-4.9,9.1-8.6,11.6-14.3c3.1-7.5-0.3-15.5,0.2-23.3c0.2-11.7,6-23.1,15.3-30.3c5.8-4.3,12.8-7.9,20.2-7.4
			c9.2,0.5,17.8,4.9,24.6,10.9c3.7,3.3,7.3,6.7,11,10c8.1,7.4,14.4,16.5,21.9,24.5c-6-15.7-14.3-31.5-13.2-48.8
			C431.2,56.9,437,42,449.3,34.3 M460.5,84.3c-3.5,7.4-4.3,15.6-5.3,23.6c-0.3,9,2.2,17.9,2.2,26.9c-0.1,2.4-3.4,3.3-5.2,1.9
			c-9.3-5-17.1-12.4-27.2-15.9c-12.2-4.6-25.9-4.1-38.2-0.3c4.7-0.4,9.4-1.2,14.1-1c11.2-0.1,22.3,3.6,31.3,10.3
			c-8.4-1.1-17.6,0.6-24,6.5c5.2-1.4,10.4-2.8,15.8-2.7c12.5-0.1,25.5,5.2,32.6,15.7c-5.2,3.8-10.5,7.5-15.1,12.2
			c-12.2,12.2-21.5,28.2-22.4,45.7c1.4-1.9,1.8-4.3,2.5-6.6c2.4-8.7,6.9-16.6,12.3-23.8c4.2-5.6,9.4-10.5,15.5-14
			c-0.5,8.8-1.5,19,5.1,26c-1.4-7.6-2.1-15.8,1-23.1c2.1-5.3,5.1-10.2,8.1-15.1c2-3.3,5.6-5.3,9.2-6.2c8.9-2.5,17.7-5.7,27-5.9
			c10-0.5,19.8,2.7,28.5,7.5c-9.4-8.7-22.7-13-35.4-12.4c-4.9,0.1-9.3,2.4-14.1,2.7c5.8-8.3,15.9-11.2,25-14
			c-5.4,0.4-10.8,1.2-15.9,3.3c-8.3,3.2-15.4,8.7-22.3,14.1c-2.8-8.3-4.3-17.3-2.3-26c1.9-9.5,7.8-17.5,14.5-24.2
			c-3.4,1.8-6.8,3.9-9.8,6.4c-3.5,2.9-5.4,7.1-7.9,10.8c-0.5-15.2,4.9-30,13.7-42.3C468.8,70.7,463.8,77.1,460.5,84.3z"/>
		<path class="st1" d="M616.3,229.2c5.5-1.6,11.1-2.4,16.8-2.9c0.4,0.5,1.3,1.5,1.7,2c7.7,0.3,15.3,1.3,22.9,2.9
			c-6.1,3.3-11.6,7.6-16.3,12.8c0.2,0.9,0.4,1.8,0.6,2.7c-2.9,3.8-6.6,7-9.1,11.1c-1,3.7-3.5,6.5-6,9.3c-2.3,2.5-2.9,6.2-5.6,8.4
			c-4,3.5-8.7,6.3-13.7,8c-6.6,2.2-13.9,2.7-20.6,0.6c-2.4-0.4-5-1.7-7.3-0.3c-2.4,1.8-3.6,4.8-5.2,7.3c-0.4-2-0.8-4-0.9-6
			c0.6-3.1,3.1-6,1.8-9.4c-1.1-4-1.4-8.2-1-12.4c1.7-8.7,6.1-16.7,12.6-22.7c0.7,0.1,2,0.2,2.7,0.3c5.2-4.3,10.9-8.3,17.3-10.6
			C610.1,229.1,613.3,230.2,616.3,229.2 M612.5,247.6c-4.4,2.7-8.7,5.6-13.1,8.3c0.4-4.6,2.7-8.7,3.5-13.1
			c-3.1,4.4-3.9,9.8-5.6,14.7c-3.9,3.8-7.8,7.8-12.3,10.9c-0.6-3.2-1-6.4-1.6-9.6c-0.1,3.9,0.6,7.6,0.9,11.5c-0.5,1.4-1.3,2.6-2,3.9
			c0.9-0.8,1.9-1.6,2.8-2.4c7.5,3.3,15.8,5.1,23.9,3.4c-3.6-0.7-7.4-0.3-11-0.7c-4.2-0.5-8.3-2-12-4.1c4-4.1,8.3-8,13-11.3
			c6.2,1.9,12.7,3.2,19.2,2.7c-5.6-1-11.4-1.5-16.8-3.3c-0.1-0.3-0.3-0.8-0.5-1.1c5.2-3.6,10.3-7.5,15.9-10.3
			c4.8,0.8,9.5,2.2,14.4,1.7c-4.2-1.1-8.6-1.3-12.8-2.8c4.7-3.7,10.5-5.7,15.6-8.8c-5.7,1.7-10.8,4.8-16.3,7.1
			c0.8-3.3,2.5-6.3,4-9.3C618.2,238.7,617.5,244.9,612.5,247.6z"/>
		<path class="st1" d="M502.6,315.3c8-0.4,15.7,2,23.1,4.6c1.4-0.2,3-0.9,4.3,0c8.3,4.3,15.3,11.6,18.5,20.5
			c2.1,4.9-0.1,11.4,4.7,15.1c2,1.6,0.7,4.3,0.9,6.4l-1.2-0.9c-1.8-1.4-3.7-3-6-3.2c-3.4,1-6.1,3.6-9.4,5.1
			c-10.9,5.2-24.1,3.9-34.5-1.8c-2.5-4.6-7.8-6.3-11.7-9.2c-0.2-0.6-0.5-1.8-0.7-2.4c-4.3-2.7-8.6-5.4-13-8.1c0-0.9-0.1-1.8-0.1-2.7
			c-6-3.4-12.5-5.8-19.3-7.3c6.9-3.6,13.9-7,21.2-9.6c0.2-0.6,0.6-1.8,0.8-2.4c6.9-1.5,13.9-2.4,20.9-2.3
			C501.6,316.6,502.3,315.7,502.6,315.3 M493.7,324.1c2,2.6,4.5,4.8,6.3,7.6c-5.8-0.4-11.5-2.1-17.3-1.3c5.7,0.7,11.5,1.4,17,3
			c-3.1,3-7.4,4.2-11.1,6.5c5-0.7,8.9-3.8,13.4-5.8c6.4,1.3,12.8,3,18.8,5.6c-4.4,3.3-9.6,5.4-14.3,8.2c5.9-1.2,11-4.7,16.1-7.8
			c5.3,2,10.6,4.2,15.5,7c-5.4,6.5-13.7,8.9-21.4,11.5c8.5-0.5,16.3-4.8,22.5-10.5c1,0.4,2,0.7,3,1.1c-4.2-3.4-2.7-9.4-5.1-13.8
			c0.5,3.2,1.1,6.4,1.2,9.7c-5-2.3-10-4.4-14.8-7c-3.2-4.2-5.4-9.3-9.9-12.3c2.3,3.9,5.8,7.1,7.5,11.4c-6-1.5-11.9-3-17.7-4.9
			C499.9,330.1,497.3,326.5,493.7,324.1z"/>
		<path class="st1" d="M234.3,497.3c3.7-0.5,7.9,0.1,10.9-2.5c6.7,0.4,13.3,1.8,19.8,3.7c1.3-0.2,2.6-0.9,4-0.4
			c6,1.7,11.3,5.1,16.1,8.9c2.4,2.1,6.3,1.9,8.3,4.6c7.1,8.2,12,19.7,9.2,30.7c-2.7,5.1,3.2,9.9,0.1,15c-0.3-0.3-0.8-0.9-1.1-1.2
			c-1.8-1.7-2.9-4.5-5.7-4.8c-2,0.1-4,0.8-6,1.3c-10.6,2.9-22.2-0.2-30.8-6.7c-2.2-1.7-4.7-3.3-5.7-6c-1.1-3.3-3.8-5.6-5.9-8.3
			c-1.9-2.3-2.4-5.4-4.3-7.7c-1.9-2.4-4.2-4.5-6-7c-1.5-2.1-1.3-5-3.2-6.8c-3.4-3.7-7.8-6.2-11.6-9.4c-0.1-0.3-0.1-0.9-0.2-1.3
			C226.1,498,230.2,497.7,234.3,497.3 M255.9,503.7c1,2.4,2.7,4.5,3,7.2l-0.9,0.5c-4.7-1.2-8.7-4.4-13.5-5.5c4.7,3,10,4.9,14.6,8.2
			c-4,1.6-8.3,1.8-12.4,2.6c3.2,0.3,6.4,0.3,9.5-0.5c2.1-0.4,4.6-1.5,6.5,0.1c4.9,3.2,9.7,6.4,14.5,9.7c-5.7,2.8-12.2,2.7-18.2,4.3
			c6.8,0.4,13.3-1.6,19.9-2.6c4.6,3.2,9,6.8,12.4,11.3c-2.4,1.1-4.8,2.2-7.3,2.9c-5.3,1.6-10.9,0.9-16.3,1.7
			c8.2,1.7,16.7,0,24.3-3.3c1,0.6,2.1,1.3,3.1,1.9c-3.4-4.2-0.6-9.7-1.4-14.6c-0.4,2.8-0.7,5.6-1.1,8.5c-3.1-0.6-4.9-3.5-7.2-5.3
			c-2.1-2.3-5.4-3.9-6-7.2c-0.9-4.1-2.2-8.2-4.4-11.9c0.5,4.3,2.9,8.2,3.3,12.6c-4.5-2.6-8.7-5.6-13.2-8.3
			C260.3,513.4,259.6,507.3,255.9,503.7z"/>
		<path class="st1" d="M342.7,564.6c10.4-5.4,23-2.8,32.7,2.9c1.8,1.3,4.8,2.5,3.9,5.3c6,5,11.5,11,14.8,18.2
			c-0.2,0.9-0.4,1.8-0.6,2.6c3.4,6.1,5.6,12.8,7.4,19.5c-0.6,0.6-1.2,1.1-1.7,1.7c0.9,7.7,1.3,15.5,1,23.2
			c-4.5-5.3-9.6-10.2-15.5-14c-0.5,0.4-1.3,1.1-1.8,1.5c-4.5-2.4-8.6-5.4-13.2-7.6c-5.3-0.1-9.3-4.1-13.8-6.3c-0.7,0-2,0.1-2.6,0.2
			c-7.4-5.4-13.6-12.9-16-21.9c-1.8-5.5-1.1-11.3-0.7-17c0.1-3.1-3.3-4.2-5.5-5.5c0.2-0.9,0.5-1.8,0.7-2.7
			C335.5,563.4,339.2,566.9,342.7,564.6 M349.9,572.5c-1.6-0.2-3.2-0.8-4.7-1.3c1,0.9,2,1.8,3,2.7c-2.4,8-2.2,16.6,0.5,24.5
			c-0.5-8-2.6-16.4,0.9-24.1c4.7,3.3,9.2,6.9,13.3,10.8c-0.8,6.4-1.2,13,0.5,19.3c0.2-6.1-0.7-12.3,1-18.2
			c3.7,3.6,7.2,7.5,10.8,11.3c1,1.3,2.7,2.5,2.4,4.4c-0.2,4.5-0.5,9,0.7,13.4c0.3-4.4,0-8.8,0.5-13.1c4.7,4.2,7.8,9.9,11.8,14.7
			c-2.7-5.6-6.9-10.3-10-15.6c2.8,0.5,5.6,1.2,8.5,1.5c-4.3-2.1-9.8-2.2-12.9-6.3c-3.4-4-7.1-7.6-10.3-11.7
			c4.8-0.2,9.4,1.3,14.1,1.7c-4.1-2-8.7-2.8-13.3-3c-3.4,0.3-5.5-2.8-8.1-4.4c-2.3-2-5.4-3.4-7-6c2.4-2,5.8-2,8.7-2.9
			C356.8,569.9,353.4,571.5,349.9,572.5z"/>
	</g>
	<g>
		<path class="st2" d="M460.5,84.3c3.3-7.3,8.3-13.6,13.7-19.5c-8.7,12.3-14.1,27-13.7,42.3c2.4-3.7,4.4-7.9,7.9-10.8
			c3-2.5,6.3-4.6,9.8-6.4c-6.7,6.7-12.6,14.7-14.5,24.2c-2,8.7-0.5,17.7,2.3,26c6.9-5.4,13.9-11,22.3-14.1c5-2.1,10.5-2.9,15.9-3.3
			c-9.1,2.8-19.3,5.7-25,14c4.8-0.3,9.3-2.7,14.1-2.7c12.7-0.7,26,3.6,35.4,12.4c-8.7-4.8-18.4-8.1-28.5-7.5
			c-9.3,0.2-18.2,3.4-27,5.9c-3.7,0.9-7.2,2.9-9.2,6.2c-3,4.8-6,9.7-8.1,15.1c-3.1,7.3-2.4,15.5-1,23.1c-6.5-7-5.5-17.2-5.1-26
			c-6.1,3.5-11.3,8.4-15.5,14c-5.4,7.1-9.9,15.1-12.3,23.8c-0.7,2.2-1.1,4.6-2.5,6.6c0.9-17.5,10.2-33.5,22.4-45.7
			c4.6-4.6,9.9-8.3,15.1-12.2c-7.1-10.6-20.2-15.8-32.6-15.7c-5.4-0.1-10.6,1.3-15.8,2.7c6.4-5.9,15.6-7.6,24-6.5
			c-9-6.8-20.1-10.4-31.3-10.3c-4.7-0.1-9.4,0.6-14.1,1c12.4-3.9,26-4.4,38.2,0.3c10.1,3.5,17.9,10.9,27.2,15.9
			c1.8,1.4,5.1,0.6,5.2-1.9c0-9-2.6-17.9-2.2-26.9C456.2,99.9,457,91.7,460.5,84.3z"/>
	</g>
	<g>
		<path class="st3" d="M393.1,177.5c7.5-5,14.6-10.7,22.8-14.6c-5.9,4.1-11.8,8.2-17.3,12.7C397.1,177.1,395,177.2,393.1,177.5z"/>
		<path class="st3" d="M493.3,223.4c0.4-11.4-1.1-22.8-3.7-33.9c6,12.1,8.1,25.9,15.2,37.5C501,225.6,497.1,224.5,493.3,223.4z"/>
	</g>
	<g>
		<path class="st4" d="M375.2,191.1c2.4-1.6,5.5-1.6,8.3-2c-8,8-15.6,16.8-19.8,27.3c-2.4,6-2.5,12.5-1.4,18.8
			c-29.5,8-57.1,22.2-81.6,40.3c-19.8,14.9-37.3,32.9-52.1,52.7c0.6-1.6,1.1-3.3,1.6-4.9c-6.5-0.8-13.5,0.3-19.3,3.7
			c-5.9,3.4-12.4,5.2-18.6,8c-5.3,1.7-9.7,5.8-15.6,5.6c-2.9,3.9-5.2,8.3-8.7,11.7c1.7-5.1,4.5-9.7,6.9-14.4
			c35.9-66.7,98.4-119.1,171.4-140.4c3-0.4,5.9,1.1,8.9,0.9C362.3,198.5,369.2,195.1,375.2,191.1z"/>
	</g>
	<g>
		<path class="st5" d="M614.5,226.5c6.8-2,13.9-3,20.9-3.3c0.2,0.6,0.7,1.6,0.9,2.2c10.6,0.5,21.1,2.7,31.6,4.3
			c-8.2,3.9-16.5,7.9-22.7,14.7c0.2,0.5,0.7,1.4,0.9,1.9c-3.2,4.5-7.3,8.2-10.5,12.7c0,0.5,0.1,1.5,0.2,1.9c-2.3,3-4.8,5.8-7.2,8.8
			c-1.2,1-0.2,2.8-1.2,3.8c-4.2,4.8-9.4,8.6-15.1,11.4c-1.6-0.5-3.2-1-4.8-1.5c5-1.8,9.7-4.5,13.7-8c2.7-2.2,3.2-5.9,5.6-8.4
			c2.5-2.7,5-5.6,6-9.3c2.5-4.1,6.1-7.3,9.1-11.1c-0.2-0.9-0.4-1.8-0.6-2.7c4.6-5.2,10.2-9.5,16.3-12.8c-7.5-1.5-15.2-2.6-22.9-2.9
			c-0.4-0.5-1.3-1.5-1.7-2c-5.7,0.5-11.3,1.3-16.8,2.9c-3,1-6.2-0.1-9.1,1.1c-6.5,2.3-12.1,6.2-17.3,10.6c-0.7-0.1-2-0.2-2.7-0.3
			c-6.5,6-10.9,14.1-12.6,22.7c-0.5-1.6-1.1-3.2-1.7-4.8l-0.2-0.5c2.4-7.2,6.3-14.2,12.1-19.2c1.9-1.9,4.9-1.3,6.9-3.1
			c6-4.7,12.9-8.3,20.5-9.8C612.8,226.6,613.6,226.8,614.5,226.5z"/>
	</g>
	<g>
		<path class="st6" d="M491.9,234.3c16.8,5.4,31.8,16.1,43,29.7c18.1,26,26.5,59,21.7,90.4l-0.6-0.6c-1.6-1.5-3.2-3.3-3-5.7
			c-0.1-9.1-5-17.5-11.4-23.6c-4.8-4.5-10.5-9.1-17.5-8.5c-7.6-2.5-15.5-4.4-23.6-3.6c-0.4,0.4-1.1,1.1-1.4,1.4
			c-7.3,0.2-14.5,1.4-21.6,2.9c-0.3,0.9-0.6,1.8-0.9,2.7c-9.9,3.7-19.1,8.8-28.5,13.5c8.7,1.3,17.7,2.5,25.5,7
			c0.2,0.6,0.6,1.9,0.8,2.6c4.1,3.2,8.8,5.4,13,8.5c1.8,5.7,10.1,5.5,11.8,11.2c9.6,6,21.6,8.6,32.7,5.8c5.6-1.2,10.6-4.2,15.3-7.5
			c2.7,1.7,5,3.9,7.2,6.3c-0.2,0.7-0.5,2.2-0.7,2.9c-0.1,0.5-0.3,1.4-0.4,1.8c-6.3-3.3-14.6-3.1-20.3,1.4
			c-7.5,5.5-9.4,16.8-4.3,24.6c-1.4,0.9-2.8,1.8-4.1,2.8c-1.6-1.3-3.4-2.8-5.6-2.8c-7.7-0.1-15.4-0.2-23,0.2
			c-2.3-0.1-4.6-0.7-6.9-0.9c-9.8-0.7-19.5,3.2-26.5,10c-1.9-3.2-4.3-6.2-7.8-7.7c-5.2-2.6-11.2-1.8-16.5,0
			c-1.7-0.8-3.4-1.7-5.3-1.6c-6.7,0-13.3-0.1-20,0.1c-3.3,0.1-5.4,2.9-6.8,5.6c-6.9-7.5-18.3-8-27.6-5.7
			c-12.1,2.9-21.4,12.6-26.8,23.5c0.3-7.5-2.1-15.7-8.6-20.1c-6.8-4.8-15.7-4.6-23.4-2.5c-7.5-1.6-15.3-0.5-22.9-0.8
			c-3.9-0.5-7.8,2.5-8.4,6.4c-3.6,17.1-7.3,34.1-10.8,51.2c-2.1-8.4-9.9-15.1-18.7-15.1c-21.8-0.1-43.7,0-65.5-0.1
			c0.5-2.9,1-5.8,1.5-8.7c18.7-0.1,37.4,0,56,0c6.1,0,12.8,0.5,18.1-3.1c8.7-5.3,11.4-17.5,7.1-26.5c-3.1-6.7-10.2-11.1-17.6-11.1
			c-17.4-0.1-34.8,0-52.3-0.1c8.4-22.7,20.7-43.8,35.4-63c12-15.1,25.8-28.9,40.8-40.9c25.1-19.3,53.7-34.2,84.3-42.2
			c5.2,6.2,12.8,10.4,20.9,11.2c8,0.7,16.5,0.1,23.5-4c2.2,5.7,6.8,9.8,11.1,14c8.2,6.8,19.4,9.9,30,8.7c13.3-1.7,25.5-10,32.4-21.5
			C488.3,247.1,490.6,240.8,491.9,234.3z"/>
		<path class="st6" d="M436.1,427.3c2.8,3.7,7.2,5.6,11.8,5.4c-2.5,9.4-3.7,19.3-1.4,28.8c-5.9,0.3-11.8,0.7-17.7,1.1
			C431.2,450.7,433.9,439,436.1,427.3z"/>
		<path class="st6" d="M308.5,474c1.2-4.7,2.1-9.5,3.1-14.3c0.8,7.1,4.6,14.2,11.2,17.5c9.6,4.8,22.1,3.2,30.2-3.8
			c4.1,3.3,9,5.3,14.1,6.3c-23.6,13.2-44,32.8-56.3,57.1c-2.2,3.9-3.4,8.3-5.9,12c-0.2-4.7,1.9-9.1,1.5-13.8
			c-0.4-8.8-4.1-17.1-9.5-23.9c-1.9-2.3-4-4.8-7.1-5.5c-3.7-1-6.4-3.9-9.7-5.7c-4.4-2.7-9.3-4.5-14.3-5.8c-0.5,0.2-1.4,0.7-1.8,0.9
			c-6.9-2-14.1-3.1-21.3-3.6c-0.7,0.7-1.3,1.5-2,2.2c-9.5,0.7-18.9,2.2-28.2,4c0,0.4,0,1.4,0.1,1.8c6.3,3.1,12.7,6.3,17.8,11.3
			c1.5,1.4,1.4,3.7,2.4,5.5c2.9,4.4,7.7,7.5,9.4,12.8c1.5,4.7,7.5,7.1,7.5,12.3c8.2,9.6,20.6,16,33.4,15.4c4.4,0,8.5-1.5,12.8-2.3
			c1.9,1.4,2.8,3.7,3.8,5.8c1.9,2.8,0.5,5.9-0.1,8.9c-5.3,24.4-5.4,50.5,3.1,74.2c5,13.6,11.6,27,21.6,37.7
			c5,5.6,10.9,10.4,16.9,14.9c-64.5-25.8-115.8-81.3-137.7-147.1c-7.3-21.9-11.7-44.9-12-68.1c22.6,0,45.1,0,67.7,0
			c6,0,11.5-3.1,15.4-7.6c1.2,2.9,3.3,5.8,6.6,6.1c6.7,0.3,13.4,0.1,20.1,0.1C304.3,479.3,307.6,477.2,308.5,474z"/>
	</g>
	<g>
		<path class="st7" d="M612.5,247.6c5-2.7,5.7-8.9,9.4-12.7c-1.5,3.1-3.1,6-4,9.3c5.5-2.2,10.6-5.4,16.3-7.1
			c-5.1,3.2-10.9,5.1-15.6,8.8c4.1,1.5,8.5,1.6,12.8,2.8c-4.9,0.5-9.7-0.9-14.4-1.7c-5.7,2.8-10.8,6.7-15.9,10.3
			c0.1,0.3,0.4,0.8,0.5,1.1c5.4,1.8,11.2,2.3,16.8,3.3c-6.5,0.5-13-0.7-19.2-2.7c-4.6,3.4-9,7.2-13,11.3c3.6,2.2,7.7,3.6,12,4.1
			c3.7,0.4,7.4,0,11,0.7c-8.1,1.7-16.4-0.2-23.9-3.4c-1,0.8-1.9,1.6-2.8,2.4c0.7-1.3,1.5-2.5,2-3.9c-0.4-3.8-1.1-7.6-0.9-11.5
			c0.6,3.2,1.1,6.4,1.6,9.6c4.5-3.1,8.4-7.1,12.3-10.9c1.6-5,2.5-10.3,5.6-14.7c-0.8,4.5-3.2,8.6-3.5,13.1
			C603.9,253.2,608.2,250.3,612.5,247.6z"/>
	</g>
	<g>
		<path class="st8" d="M547.4,247.7c-2.1-1.9-4.1-3.9-5.2-6.5c10.6,4.8,20.7,10.5,30.4,16.8l0.2,0.5c-0.7,3-1.6,6.1-2.4,9.1
			c-4-2.6-8.1-5-12.1-7.5C554.8,255.8,551.5,251.3,547.4,247.7z"/>
		<path class="st8" d="M395.5,511.6c5.5-5.3,14.1-7,21.2-4.3c5.4,2,7.1,9.3,4.4,14c-1.9,2.9-5.7,2.1-8.3,0.8
			c2.2-3.3,4.4-7.3,2.4-11.3c-2.2-0.9-4.8-1.7-6.9-0.1c-4.7,3.1-7,8.6-8.9,13.7c-2.5,7.4-4,15.2-3.6,23c0.2,3.7,1.8,8,5.9,8.9
			c5.9,1.2,12.7-1,16.3-5.8c0.7-7.1,2.6-14.5,7.4-20c4.2-5.2,11.9-7.8,18.2-5.3c4.3,2,4.9,7.2,5.1,11.4c2.2-0.2,4.4-0.8,6.5-1.3
			c0.8-3.5,1.6-7,2.4-10.5c3.6,0,7.3,0,10.9,0c-0.2,0.9-0.5,2.6-0.6,3.5c4.5-5.2,15.3-5.7,16.9,2.3c2.3-3.3,5.9-6.1,10.1-6.1
			c3.4-0.3,7.3,1.5,8.3,5.1c2.2,8.8-4.1,17-2.7,25.7c4.6,1.9,8-2.5,8.9-6.5c2-8.9,3.8-17.8,5.7-26.7c3.6-0.1,7.3-0.1,11,0
			c-0.3,1.8-0.6,3.5-1,5.3c3.8-2.7,9.1-4.1,13.4-1.8c3.6,2,4.5,6.5,4.5,10.3c0.1,7.8-1.5,16.1-6.7,22.2c-4.4,5-12.8,7.2-18.4,3
			c-1.2,6-2.6,11.9-3.8,17.9c-3.9,0.9-7.7,1.8-11.6,2.7c1.6-7.3,3.2-14.6,4.7-22c-4.4,4.6-14,5.4-16.9-1.2
			c-2.5-8.3,3.4-16.3,2.5-24.7c0-2.3-2.9-2.9-4.5-1.6c-2.5,1.8-3.5,4.9-4.1,7.8c-1.6,7.6-3.2,15.2-4.8,22.8c-3.7,0-7.4,0-11,0
			c1.8-8.5,3.6-17.1,5.4-25.7c0.6-1.9,0-3.8-0.4-5.6c-4.2-0.6-6.7,3.7-7.5,7.2c-1.8,8-3.4,16.1-5.1,24.1c-3.6,0-7.2,0-10.8,0
			c1.2-8,3.3-15.9,4.8-23.9c-2,0.5-4.1,1-6.1,1.6c-0.8,6.9-2.9,14.2-8.3,18.9c-4.7,4.3-12.1,5-17.5,1.9c-2.2-1.3-3.2-3.8-4.3-6.1
			c-6.4,7.8-17.8,11-27.2,7.5c-4-1.6-6.6-5.6-7.4-9.7c-1.3-6.4-0.7-13,0.6-19.4C386.3,525.5,389.4,517.3,395.5,511.6 M435.6,531.5
			c-4.3,6.3-6.5,14.2-5.8,21.7c0.1,3.1,4.3,3.9,6.2,1.8c3.8-3.6,5.1-9,6-14c-2.9-2-2.3-6.4,0.5-8.2c-0.5-1.3-0.9-2.7-1.3-4
			C439.1,529,436.8,529.5,435.6,531.5 M523.4,535.1c-1.3,6.3-2.7,12.6-3.9,18.9c-0.8,2.8,3,3.1,4.8,2.3c4.3-1.8,6-6.5,7.2-10.7
			c1-4.9,2-10.3-0.1-15C527.9,529.2,524,531.5,523.4,535.1z"/>
	</g>
	<g>
		<path class="st9" d="M558.2,260c4,2.5,8.1,4.9,12.1,7.5c1.1,4.7,3.9,10.1,0.8,14.7C567.4,274.5,562.8,267.2,558.2,260z"/>
	</g>
	<g>
		<path class="st10" d="M576.5,295c1.6-3,2.4-7.1,5.5-8.9c5.1,1.1,10.2,2.6,15.4,2.5c24.8,22.4,45.1,49.7,59,80.1
			c17.5,38.1,24.9,80.7,21.3,122.4c-3.2,39.6-16.5,78.2-38.1,111.6c-19.2,29.7-44.9,55.3-74.8,74.2c-34.2,21.8-73.9,34.7-114.3,37.3
			c-2.9,0.1-5.8,0.1-8.6-0.4c-11.8-2-23.4-4.8-35-7.6c-23.5-5.9-46.5-17.2-62.7-35.6c-9.1-10-14.4-22.8-17.9-35.7
			c-5.7-21.3-3.4-44,3.2-64.8c1.2,1,3.3,1.3,3.9,2.9c0,4.4-0.8,8.8-0.1,13.1c1.7,12.5,9.9,23.3,20.5,29.8c5-0.5,8.7,4,13.1,5.7
			c1,0,2.1-0.2,3.1,0.2c4,1.9,7.5,4.7,11.4,6.7c1.5,0.8,3.4-0.1,4.9,0.8c7.2,4.6,11.9,12,16.9,18.7c0-10.5,0.3-21-0.9-31.4
			c0.7-0.7,1.4-1.4,2-2.2c-1.9-7-4-14-7.3-20.5c0.2-0.4,0.6-1.3,0.8-1.8c-2.3-5.1-5.1-10.1-9-14.2c-2-2.3-4.6-4.1-6-6.9
			c-2-4.7-7-6.8-11.3-8.9c-9.1-3.9-20.1-5.3-29.3-0.8c-3,1.9-6.3,0-9.3-0.7c9-20.7,25.1-37.9,44.4-49.3c10.4-6,21.3-11.9,33.4-13.4
			c6.2-0.8,12.4-1.6,18.6-2.1c8.6-0.8,17.4-0.5,26-1.9c1,6.8,5.1,13.2,11.5,15.9c11.4,5,26.1,1.9,34.1-7.7
			c5.7-6.6,7.9-15.3,9.5-23.6c2.9-1.4,5.7-2.9,8.5-4.6c9.6,8.8,24.7,7,34.8,0.1c9.7,7.3,23.1,7.2,34,2.9c5.3-2,9.4-6.2,14.1-9.1
			c2.2,2.8,4.4,5.7,7.5,7.7c6.9,4.5,15.6,5.1,23.5,4c8.2-1.2,15.8-6.2,19.8-13.5c2.3-4.3,4.1-9.1,4.3-14c-0.1-4.4-4.3-6.8-8.2-7.4
			c10.1-6.9,16.5-19.3,14.8-31.6c-0.7-7.2-6.2-13.6-13.2-15.4c-7.9-2.2-16.7-1.3-24.2,2c-9.9,4.3-16.9,13.1-21.6,22.6
			c-0.5-7.3-0.7-14.7-1.3-22c-0.3-4.1-4.4-7.2-8.4-6.5c-6.2,0.6-12.3,1.7-18.5,2.4C588.1,363.5,588.3,327.2,576.5,295 M395.5,511.6
			c-6.1,5.8-9.3,14-11,22c-1.3,6.3-1.8,13-0.6,19.4c0.8,4.1,3.4,8.1,7.4,9.7c9.4,3.5,20.9,0.3,27.2-7.5c1,2.2,2,4.7,4.3,6.1
			c5.4,3.2,12.9,2.4,17.5-1.9c5.4-4.7,7.6-12,8.3-18.9c2-0.5,4.1-1,6.1-1.6c-1.5,8-3.6,15.9-4.8,23.9c3.6,0,7.2,0,10.8,0
			c1.8-8,3.4-16.1,5.1-24.1c0.8-3.5,3.3-7.8,7.5-7.2c0.5,1.8,1.1,3.7,0.4,5.6c-1.8,8.5-3.6,17.1-5.4,25.7c3.7,0,7.4,0,11,0
			c1.6-7.6,3.2-15.2,4.8-22.8c0.7-2.8,1.7-5.9,4.1-7.8c1.5-1.2,4.4-0.7,4.5,1.6c0.9,8.3-5,16.4-2.5,24.7c2.9,6.6,12.5,5.8,16.9,1.2
			c-1.5,7.3-3.1,14.7-4.7,22c3.9-0.9,7.7-1.8,11.6-2.7c1.2-6,2.6-12,3.8-17.9c5.6,4.2,14,2,18.4-3c5.2-6,6.8-14.4,6.7-22.2
			c0-3.8-0.9-8.3-4.5-10.3c-4.3-2.3-9.6-0.9-13.4,1.8c0.3-1.8,0.6-3.5,1-5.3c-3.7,0-7.3,0-11,0c-1.8,8.9-3.6,17.8-5.7,26.7
			c-0.9,4-4.2,8.4-8.9,6.5c-1.4-8.7,4.9-17,2.7-25.7c-0.9-3.6-4.8-5.3-8.3-5.1c-4.2,0-7.8,2.7-10.1,6.1c-1.6-8-12.4-7.5-16.9-2.3
			c0.1-0.9,0.4-2.6,0.6-3.5c-3.6,0-7.3,0-10.9,0c-0.8,3.5-1.5,7-2.4,10.5c-2.1,0.6-4.3,1.1-6.5,1.3c-0.2-4.2-0.8-9.4-5.1-11.4
			c-6.4-2.5-14,0.1-18.2,5.3c-4.8,5.5-6.7,12.9-7.4,20c-3.6,4.8-10.5,7-16.3,5.8c-4-0.9-5.7-5.2-5.9-8.9c-0.4-7.8,1.1-15.7,3.6-23
			c1.9-5.1,4.2-10.6,8.9-13.7c2.1-1.6,4.7-0.8,6.9,0.1c2,4-0.2,8-2.4,11.3c2.6,1.3,6.4,2.1,8.3-0.8c2.7-4.7,1-12-4.4-14
			C409.6,504.6,401,506.3,395.5,511.6 M545.9,539.8c-1.9,5.8-3.2,12.3-0.8,18.1c1.9,4.6,7.5,6.4,12,4.9c3.3-0.8,5.7-3.4,7.9-5.9
			c0.8,2.2,1.7,4.8,4.2,5.7c4.7,1.9,9.8-0.4,13.4-3.5c-0.2,0.9-0.7,2.7-0.9,3.6c3.7,0.1,7.4,0.1,11.1,0.1c1.9-8.3,3.4-16.7,5.4-25
			c0.9-3,3.2-7.2,7-6.1c2.7,3.1,0.6,7.5,0.1,11.1c-1,5.6-3.9,12.1-0.5,17.4c4.9,5.5,14.3,3,17.6-3.1c1,2,2,4.3,4.3,5.3
			c4.4,2.3,9.3-0.7,13.4-2c-3,3.2-7.6,3.1-10.8,5.8c-4.1,2.8-4.8,9.4-1.2,12.8c3.5,3.5,9.2,3.3,13.3,1.2c4.3-2.3,6.4-7.2,7.3-11.8
			c3-14.5,6.2-29.1,9.1-43.6c-3.7,0-7.3,0-11,0c-1.9,8.2-3.4,16.5-5.3,24.7c-0.8,3.5-3.7,7.5-7.7,5.9c-0.8-4.3,0.8-8.4,1.6-12.6
			c1.2-6,2.6-12,3.7-18c-3.7,0-7.3,0-11,0c-1.3,6.6-2.8,13.1-4.1,19.7c-0.8,3.7-1.6,8-4.7,10.5c-1.9,1.5-5.8,0.9-5.5-2.1
			c0.5-6.8,3.6-13.1,3.7-19.9c0-2.9-1.1-6-3.8-7.4c-4.5-2.3-10.1-0.8-13.4,2.8c0.2-0.9,0.6-2.7,0.8-3.6c-3.7,0-7.4-0.2-11.1,0.3
			c-1.7,8.2-3.3,16.3-5.2,24.5c-0.9,3-2.8,7-6.5,6.7c-2.1,0.1-2.8-2.5-2.4-4.1c1.6-9.2,4.1-18.1,5.5-27.3c-3.5,0.1-7.1-0.2-10.6,0.1
			c-0.2,0.7-0.6,2-0.8,2.7c-1.7-3.6-6.2-3.4-9.5-2.8C552.9,526.5,548.2,533.2,545.9,539.8z"/>
	</g>
	<g>
		<path class="st11" d="M597.5,288.5c3.8-0.3,7.6-1.1,11.2-2.3c26.8,25.2,47.9,56.4,61.5,90.6c16,40.2,21.3,84.5,15.6,127.3
			C680.9,540.7,667.9,576,648,607c-21.4,33.5-50.9,61.9-85.1,82c-33.6,19.8-71.8,31.7-110.7,34.3c-1.3-1.4-2.7-2.7-4-4
			c3.7-0.7,7.4-1.6,11-2.8c-2.9-0.8-5.8-1.7-8.7-2.4c40.4-2.6,80.1-15.5,114.3-37.3c29.9-18.9,55.6-44.5,74.8-74.2
			c21.6-33.3,34.8-72,38.1-111.6c3.6-41.7-3.8-84.3-21.3-122.4C642.6,338.2,622.2,310.9,597.5,288.5z"/>
	</g>
	<g>
		<path class="st12" d="M500.6,312.4c8.1-0.8,16,1.1,23.6,3.6c7-0.6,12.7,4,17.5,8.5c6.5,6.1,11.3,14.5,11.4,23.6
			c-0.2,2.4,1.4,4.1,3,5.7c-0.7,0.4-2,1.2-2.7,1.7c-4.8-3.7-2.6-10.1-4.7-15.1c-3.3-8.8-10.2-16.1-18.5-20.5c-1.3-0.9-2.9-0.2-4.3,0
			c-7.4-2.6-15.1-5-23.1-4.6c-0.3,0.4-1,1.3-1.4,1.7c-7-0.1-14,0.8-20.9,2.3c-0.2,0.6-0.6,1.8-0.8,2.4c-7.3,2.6-14.3,6-21.2,9.6
			c6.8,1.4,13.3,3.8,19.3,7.3c0,0.9,0,1.8,0.1,2.7c4.3,2.7,8.6,5.4,13,8.1c0.2,0.6,0.5,1.8,0.7,2.4c3.9,3,9.3,4.6,11.7,9.2
			c10.5,5.7,23.6,7,34.5,1.8c3.3-1.5,5.9-4.1,9.4-5.1c2.4,0.2,4.2,1.9,6,3.2c-0.1,0.5-0.2,1.4-0.2,1.9c2.2,2.3,3,5.4,2.1,8.5
			c-0.3-0.4-0.9-1.1-1.2-1.5c0.2-0.7,0.5-2.2,0.7-2.9c-2.1-2.4-4.5-4.6-7.2-6.3c-4.7,3.3-9.7,6.2-15.3,7.5
			c-11.1,2.8-23.1,0.2-32.7-5.8c-1.7-5.7-10-5.5-11.8-11.2c-4.2-3.1-8.9-5.3-13-8.5c-0.2-0.7-0.6-2-0.8-2.6
			c-7.8-4.5-16.8-5.7-25.5-7c9.4-4.7,18.6-9.8,28.5-13.5c0.3-0.9,0.6-1.8,0.9-2.7c7.1-1.6,14.3-2.7,21.6-2.9
			C499.5,313.4,500.2,312.7,500.6,312.4z"/>
	</g>
	<g>
		<path class="st13" d="M210.8,327c5.7-3.4,12.7-4.5,19.3-3.7c-0.5,1.7-1,3.3-1.6,4.9c-10.8,15.3-20.1,31.8-27.8,48.9
			c-0.2-1.7-0.4-3.3-0.7-5c-2.3,1.3-4.5,2.8-6.8,4.2c-3,1.6-6.5,2.1-9.8,3.1c-6.4,1.7-12.1,5.1-18.4,7.3c-3,1-6.2,1.8-8.7,3.8
			c-1.9,1.4-2.9,3.5-4.1,5.5c-0.1-0.5-0.3-1.6-0.4-2.1c3.2-12.7,8.2-24.8,13.4-36.8c0.8-1.6,1.4-3.4,2.5-4.8
			c3.5-3.5,5.8-7.8,8.7-11.7c5.9,0.2,10.3-3.9,15.6-5.6C198.3,332.3,204.9,330.4,210.8,327z"/>
	</g>
	<g>
		<path class="st14" d="M493.7,324.1c3.5,2.5,6.1,6,9.8,8.4c5.8,1.9,11.8,3.3,17.7,4.9c-1.7-4.3-5.2-7.5-7.5-11.4
			c4.5,3.1,6.8,8.1,9.9,12.3c4.8,2.6,9.8,4.7,14.8,7c-0.1-3.3-0.7-6.4-1.2-9.7c2.4,4.4,0.9,10.3,5.1,13.8c-1-0.4-2-0.7-3-1.1
			c-6.2,5.7-14,10-22.5,10.5c7.7-2.6,16-5,21.4-11.5c-4.9-2.8-10.2-5-15.5-7c-5.1,3.1-10.2,6.6-16.1,7.8c4.7-2.8,9.9-4.9,14.3-8.2
			c-6-2.6-12.4-4.3-18.8-5.6c-4.5,1.9-8.4,5-13.4,5.8c3.6-2.3,7.9-3.5,11.1-6.5c-5.6-1.6-11.3-2.3-17-3c5.8-0.9,11.5,0.9,17.3,1.3
			C498.2,328.9,495.7,326.7,493.7,324.1z"/>
	</g>
	<g>
		<path class="st15" d="M193.1,376.3c2.3-1.3,4.5-2.8,6.8-4.2c0.3,1.6,0.5,3.3,0.7,5c-3,7.9-6.1,15.8-8.5,23.9
			c7,2.6,14.6,0.3,21.9,1.4c3,1.1,5.8,2.8,9,3.2c-3.9-0.1-7.8,0.1-11.8,0.2c-0.6,1.1-1.3,2.2-1.9,3.3c-2-0.5-4.2-1.3-5.9,0.3
			c-2.4,1.9-5.5,2.2-8.3,2.8c-2.5,1.1-4.9,2.5-7.6,3.3c0.3,0.9,0.6,1.7,0.9,2.6c-5.3,0.7-10.9,1.2-15.7,3.7c-1.9,1-2.7,3.2-3.8,4.9
			c-0.7-0.9-1.3-1.7-2-2.5c-3.4,1.7-7,2.9-10.5,4.4c-2.1,0.8-2.8,3.1-3.8,4.9c-0.7-0.5-1.3-1.1-2-1.6c-0.8,0.1-1.6,0.2-2.3,0.3
			c-1.5-1.2-3-2.3-4.5-3.3c0.4-2.5,1.1-5,0.9-7.6l-0.2-0.7c-14.9-0.3-29.8-0.2-44.7-0.4c-2.1-0.1-4.1-0.5-6.1-1
			c1.8-1.7,3.4-4.2,6.1-4.3c2.5-0.2,5.1,0.2,7.6-0.5c2.8-0.6,5-2.7,7.2-4.5c0.7,0.1,1.4,0.2,2.2,0.3c2.4-2,5.3-4.4,8.5-2.7
			c1.6-1.1,2.9-2.5,4-4.1c0.8-0.4,1.7-0.8,2.5-1.1c-23.1-0.5-46.2-0.5-69.3-0.6c1.8-0.4,3.6-0.8,5.4-0.8c27.3-0.1,54.6,0.1,81.9-0.1
			c0.6-2.3,1.1-4.5,1.9-6.7c0.1,0.5,0.3,1.6,0.4,2.1c1.2-1.9,2.2-4.1,4.1-5.5c2.5-2,5.7-2.8,8.7-3.8c6.2-2.2,12-5.6,18.4-7.3
			C186.6,378.5,190.1,377.9,193.1,376.3z"/>
	</g>
	<g>
		<path class="st16" d="M540.4,377.5c7.1-2.9,15.4,3.8,14.2,11.3c-0.6,7.8-10.7,12-16.8,7.3C531,391.7,532.6,380,540.4,377.5z"/>
	</g>
	<g>
		<path class="st17" d="M192.1,401.1c3.6-0.6,7.2-0.4,10.9-0.4c16.3,0,32.7,0,49,0c3.3,0,6.7-0.1,10,0.4l-0.5,0.2
			c-0.6,0.2-1.9,0.6-2.6,0.8c2.5,1.6,5.3,3.3,6.7,6.1c-1.6-0.3-3.3-1.2-5-0.9c-3.2,1.2-6,3.2-9.3,4.3c-4.4,1.9-10,1.2-13.3,5.3
			c3.3,0.3,6.7,0.5,10.1,0.6c-6.4,0.7-12.8,1.4-19.2,2c-14.3,0.8-28.8-0.4-43,1c-0.9,2.8-1.5,5.8-3,8.4c-1.3,0.6-2.7,0.9-4,1.2
			c-0.3,3.1-0.7,6.2-1.3,9.2c-0.3-2.3-0.6-4.5-0.8-6.8c-2.2,4.5-7.7,3.6-11.7,5.3c-3.1,1-5,4.1-8.1,5c-4.2,1.2-8.5,2.7-12.9,2.2
			c0-3.9-0.2-7.8-0.7-11.7c0-1.5,0.3-3,0.5-4.5c1.6,1,3.1,2.2,4.5,3.3c0.8-0.1,1.5-0.2,2.3-0.3c0.7,0.5,1.3,1.1,2,1.6
			c1-1.8,1.7-4.1,3.8-4.9c3.5-1.5,7.1-2.6,10.5-4.4c0.7,0.8,1.3,1.7,2,2.5c1.1-1.7,1.9-3.9,3.8-4.9c4.8-2.5,10.4-3,15.7-3.7
			c-0.3-0.9-0.6-1.7-0.9-2.6c2.7-0.8,5.1-2.1,7.6-3.3c2.9-0.6,5.9-0.9,8.3-2.8c1.7-1.6,3.9-0.7,5.9-0.3c0.6-1.1,1.3-2.2,1.9-3.3
			c3.9-0.1,7.8-0.2,11.8-0.2c-3.2-0.4-6-2.1-9-3.2C206.8,401.4,199.2,403.7,192.1,401.1z"/>
	</g>
	<g>
		<path class="st18" d="M576.3,403.6c6.6-0.8,13.1-1.7,19.6-2.6c0.5,12.1,1.4,24.1,2.1,36.1c-0.1,0.4-0.3,1.3-0.4,1.7
			c-2.9,0.7-3.5,3.6-4.4,6c-0.2-1.2-0.4-2.4-0.6-3.7c-1.2,0.9-2.4,1.8-3.5,2.7c-2.4,0.2-5.1,0.7-6.8,2.6c-1.3,2.2-2,4.8-3.1,7.1
			c0.7-11.6-1.9-23.1-2.3-34.8c-2.8,8.1-6.3,16-10.3,23.6c-0.7-1.3-1.2-2.7-1.8-4.1c-0.8-0.1-1.6-0.2-2.4-0.3
			C568.3,427,572.4,415.3,576.3,403.6z"/>
	</g>
	<g>
		<path class="st19" d="M60,417.9c-4.2-4.8-2.8-13,2.6-16.4c23.1,0.1,46.2,0.1,69.3,0.6c-0.8,0.4-1.7,0.8-2.5,1.1
			c-1.1,1.6-2.5,3-4,4.1c-3.2-1.6-6.2,0.7-8.5,2.7c-0.7-0.1-1.4-0.2-2.2-0.3c-2.2,1.8-4.4,3.8-7.2,4.5c-2.5,0.7-5,0.3-7.6,0.5
			c-2.7,0.1-4.3,2.6-6.1,4.3c2,0.4,4,0.9,6.1,1c14.9,0.2,29.8,0.1,44.7,0.4l0.2,0.7c-25.3,0-50.6,0-75.8,0
			C65.8,421.2,62.2,420.6,60,417.9z"/>
	</g>
	<g>
		<path class="st20" d="M258.9,402.1c0.6-0.2,1.9-0.6,2.6-0.8c5.4,1.1,7.7,7.8,6.3,12.6c-0.9,4.4-5.3,7.5-9.7,7.2
			c-23.4,0-46.8,0.1-70.1,0c-0.5-0.2-1.5-0.5-2-0.7c14.3-1.3,28.7-0.2,43-1c6.4-0.5,12.8-1.3,19.2-2c-3.4-0.1-6.7-0.3-10.1-0.6
			c3.3-4.1,8.9-3.4,13.3-5.3c3.3-1,6.1-3,9.3-4.3c1.7-0.2,3.3,0.6,5,0.9C264.2,405.4,261.4,403.8,258.9,402.1z"/>
	</g>
	<g>
		<path class="st21" d="M314,411.6c4.1-4.4,9.9-7.4,16.1-7c5.2-0.1,10.5,2.5,12.7,7.4c-0.8,2.1-1.4,4.2-2,6.3
			c-0.7-0.1-1.4-0.3-2.1-0.4c-3.4,3.5-8.9,3.9-13.4,3.1c-0.8-2.2-2.5-4.7-5.2-4.3c-5.9,1.2-8.2,7.6-9.9,12.6c-1-0.2-2-0.5-2.9-0.7
			c-0.1,2.4-0.3,4.8-0.4,7.2c-0.9-1.2-1.8-2.4-2.6-3.5c-1.9,2.2-4.5,3.3-7.4,3.3c-0.5-0.8-1-1.6-1.6-2.4c0,1.8,0,3.6,0,5.4
			c-0.6-0.3-1.2-0.7-1.8-1c-0.3,0.6-0.8,1.8-1,2.3c-0.5-2.6-1.1-5.3-1.7-7.9c1.5-9,3.8-17.9,5.6-26.9c6.4,0,12.8,0,19.2,0
			C314.9,407.3,314.5,409.4,314,411.6z"/>
	</g>
	<g>
		<path class="st22" d="M360,422.1c4.5-9.2,13.4-16.7,23.9-17.9c6.1-0.8,13.5-0.4,17.4,5.1c-0.3,3.1-0.4,6.3-0.4,9.4
			c-1-0.9-2-1.7-3-2.6c-0.7,1.5-1.4,3.1-2.1,4.6c-0.8-2-1.3-4.1-1.5-6.3c-0.5-0.3-1.4-0.8-1.9-1c-0.9-1-1.7-2.5-3.3-2.3
			c-3.2,0.2-5.3,3-7.3,5.2c-3.9,0.4-4.4,4.5-6,7.3c-1,1.1-2.4,1.7-3.6,2.5c-5,0-9.3,2.9-13.9,4.4C359.1,427.8,359.6,425,360,422.1z"
			/>
	</g>
	<g>
		<path class="st23" d="M620.5,412.5c6.9-7.1,17.4-10.1,27-8c3.1,0.7,6.1,2.5,7.5,5.5c2.2,4.8,1.3,10.2,0,15c-1-1-1.9-2-2.9-3
			c-2.2-0.1-4.5-0.3-6.7-0.5c0.4-3.1,1.3-6.7-0.5-9.5c-1.9-2-5-0.4-6.7,1.2c-4.9,4.9-7.4,11.6-9.6,18c-0.6-2.1-0.8-4.7-2.5-6.3
			c-0.8-0.8-1.9,0.1-2.6,0.5c-2.7,1.9-5.1,4.8-8.7,4.6c-0.4,1.5-0.8,3-1.1,4.6c-0.7-1-1.5-2-2.2-3c-2.1,4.1-3.2,8.7-5.2,12.8
			C607.8,432.9,612.2,421,620.5,412.5z"/>
	</g>
	<g>
		<path class="st24" d="M413.9,405.2c6.4,0,12.8,0,19.2,0c-0.6,2.6-1.1,5.3-1.7,8c4.9-4.2,10.8-8.9,17.8-7.8c5.7,0.9,8.5,7.6,7,12.7
			c-1.1,5.2-7.5,8.5-12.3,6.2c-2.5-1.7-2-5.2-3.4-7.6c-3.4-1.5-7,1.1-9.5,3.3c-2,1.4-1.8,4.1-2.4,6.3c-5.1,4.1-11.9,5.2-16.8,9.8
			c-1.2-2.8-2.3-5.6-2.6-8.7C410.6,419.9,412.4,412.6,413.9,405.2z"/>
	</g>
	<g>
		<path class="st25" d="M473.3,408.3c5.8-3.6,13-4.6,19.6-3.2l0.1,0.1c0.8,1.8,1.6,3.6,2.4,5.3c-0.9,0.7-1.8,1.4-2.7,2.1
			c-2.9,0.1-5.9,0.8-8,3c-4.7,4.5-7.2,10.7-9.2,16.8c-1.3-0.9-2.5-1.8-3.8-2.8c-4.3,1.5-8.4,3.4-11.8,6.4c-1.9-1.7-1.9-4.5-2.8-6.8
			C460.5,421,465.6,413,473.3,408.3z"/>
	</g>
	<g>
		<path class="st26" d="M499.2,405.1c6.4,0,12.8,0,19.2,0c-2.2,10.5-4.5,20.9-6.7,31.4c-0.4,1.2-0.3,2.9-1.5,3.7
			c-1.6-0.6-3.2-1.3-4.8-1.9c0,1.5,0.1,3.1,0.1,4.6c-0.7-1.2-1.4-2.4-2.1-3.5c-3.5,2.2-6.8,4.8-9.2,8.1c-0.4-1.2-0.7-2.4-1-3.6
			c-0.9,1.4-2,2.7-3.1,3.9c1.7-10,4.3-19.9,6.2-29.9c0.4-2.5-1.9-4.1-3.7-5.2c0.9-0.7,1.8-1.4,2.7-2.1c-0.8-1.8-1.6-3.5-2.4-5.3
			c2.6,0.9,4.5,2.9,5,5.6C498.4,409,498.8,407,499.2,405.1z"/>
	</g>
	<g>
		<path class="st27" d="M525.2,432.4c1.7-9.1,3.8-18.2,5.7-27.3c6.4,0,12.8,0,19.2,0c-1.3,6.2-2.6,12.3-3.9,18.5
			c-2.7,0-5.5,0.1-7.9,1.7c-2.7,1.7-6,2.3-8.6,4.3C528.2,430.6,526.7,431.6,525.2,432.4z"/>
	</g>
	<g>
		<path class="st28" d="M401.2,409.3c3.1,7.4,1.2,16.1-3.6,22.3c-5.9,7.9-15.6,12.5-25.4,13.2c-0.4,5-0.8,10.6,2.6,14.7
			c-0.5,1.9-1.1,3.9-1.7,5.8c-4.6-0.3-9.3,0.3-13.3,2.8l-0.7,0.1c-2.8-1.5-4-4.6-5.5-7.3c-3.4,5.3-8.3,10-14.7,11
			c-6.1,1.1-13.5-0.1-17.2-5.7c-4-6.3-2.3-14.2-0.5-21c0.5,2.6,1,5.2,1.5,7.8c3.9-2.6,8.1-4.7,12.7-5.9c1.3-2.2,2.5-4.4,4.5-6.1
			c-0.7,4.6-2.4,9.1-2.1,13.8c0,2.7,2.7,4.6,5.2,4.3c4.4,0.1,7.5-3.8,9-7.5c0.5-4.1,0.6-8.3,1.5-12.3c0.9,2.3,1.7,4.6,2.5,7
			c0.6-2.3,1.2-4.6,1.8-6.8c0.6,1.3,1.1,2.7,1.7,4c0.7-1.1,1.3-2.1,2-3.2c2.4-0.3,4.9-0.5,7.3-0.7c-0.2-1.3-0.4-2.6-0.6-3.9
			c1.9,0.2,3.7,0.3,5.6,0.4c-0.1,0.6-0.4,1.7-0.5,2.2c11.7-1.6,20.5-13.4,19-25c0.5,0.3,1.4,0.8,1.9,1c0.2,2.1,0.7,4.2,1.5,6.3
			c0.7-1.5,1.4-3.1,2.1-4.6c1,0.9,2,1.7,3,2.6C400.9,415.6,401,412.4,401.2,409.3z"/>
	</g>
	<g>
		<path class="st29" d="M381.8,416.3c2-2.2,4.1-5.1,7.3-5.2c1.6-0.2,2.4,1.3,3.3,2.3c1.5,11.7-7.3,23.5-19,25
			c0.1-0.6,0.4-1.7,0.5-2.2C375.5,429.2,377.9,422.4,381.8,416.3z"/>
		<path class="st29" d="M470.9,488.1c1.9-5.4,7.8-7.4,12.6-9.5c-0.8,4.3-1.9,8.5-3.9,12.3c-1.4,1.6-3,3.1-5.2,3.4
			C472,493.3,469.9,490.9,470.9,488.1z"/>
	</g>
	<g>
		<path class="st30" d="M340.7,418.3c0.6-2.1,1.3-4.2,2-6.3c2.7,7.5,0.6,15.5-1.1,23c-0.6,2-0.8,4.3-1.8,6.2
			c-1.9,1.7-3.2,3.9-4.5,6.1c-4.6,1.2-8.7,3.3-12.7,5.9c-0.5-2.6-1-5.2-1.5-7.8c1.3-8.1,4.4-16,4-24.3c4.5,0.7,10,0.3,13.4-3.1
			C339.3,418,340,418.1,340.7,418.3z"/>
	</g>
	<g>
		<path class="st31" d="M375.8,423.6c1.6-2.7,2.1-6.9,6-7.3c-3.8,6.1-6.3,12.9-7.9,19.9c-1.9-0.1-3.7-0.2-5.6-0.4
			c0.2,1.3,0.4,2.6,0.6,3.9c-2.4,0.2-4.9,0.5-7.3,0.7c-0.7,1.1-1.4,2.1-2,3.2c-0.6-1.3-1.1-2.7-1.7-4c-0.6,2.3-1.2,4.6-1.8,6.8
			c-0.8-2.3-1.7-4.7-2.5-7c1.4-6,3.2-12,6.4-17.3c-0.4,2.8-0.9,5.6-1.8,8.3c4.6-1.5,8.9-4.4,13.9-4.4
			C373.4,425.3,374.7,424.7,375.8,423.6z"/>
	</g>
	<g>
		<path class="st32" d="M577,418.8c0.4,11.6,3,23.1,2.3,34.8c-1.3,4.1-4.7,7.1-8.8,8.2c-2.6-0.2-5.5,0.1-7.7-1.5
			c-2.1-1.5-2.3-4.2-3-6.4c3.3,0.8,7.5,0.6,8.9-3.1c1.8-3-0.2-6-2-8.3C570.8,434.8,574.3,427,577,418.8z"/>
	</g>
	<g>
		<path class="st33" d="M182.8,428.8c1.5-2.6,2.1-5.6,3-8.4c1.4,1.6,0.1,3.6,0,5.4c-1.4,5.9-2,11.9-3.2,17.7c-1.1,2.4-2.2,4.9-3,7.5
			c-0.9-0.5-1.7-0.9-2.6-1.4c-3.8,2.4-7.8,4.3-11.3,7.1c-3,2.5-7.1,2.7-10.7,3.5c-2.3,0.3-4,2.3-6.1,3.1c-1.8,0.6-3.8,0.8-5.7,1.5
			c-1.3,1.7-1.9,3.8-2.6,5.8c-24.2-0.1-48.4,0-72.7-0.1c-1.7,0-3.3-0.4-5-0.9c13.6-1.5,27.4-0.3,41-1.2c-5.4-0.4-10.9-0.1-16.4-1
			c4.3-0.7,8.8-0.3,13.1-1c3.2-1.3,6.4-2.8,9.9-3c4.3-5,11.6-4,16.6-7.7c2.5-2.1,6-1.9,9-2.6c-8.3-1.9-16.9-0.7-25.3-1.4
			c-15.9-1.3-31.8-0.2-47.7-1c2.2-0.3,4.4-0.5,6.7-0.5c23.8,0.1,47.5-0.1,71.3,0c0.8-5.6,1-11.4,2.2-17c0.4,3.9,0.7,7.8,0.7,11.7
			c4.4,0.5,8.7-1,12.9-2.2c3.1-0.9,5-4,8.1-5c4-1.7,9.5-0.8,11.7-5.3c0.2,2.3,0.5,4.5,0.8,6.8c0.6-3.1,1-6.1,1.3-9.2
			C180.2,429.6,181.5,429.4,182.8,428.8z"/>
	</g>
	<g>
		<path class="st34" d="M645.5,421.5c2.2,0.2,4.5,0.3,6.7,0.5c0.9,1,1.9,2,2.9,3c-4.7,11.7-16.9,19-29.2,19.8c-0.3,3-0.2,6,0.3,9
			c-1.6,1.4-3.1,2.8-4.8,4.1c-3.7-0.9-5,2.9-6.1,5.6c-1.3-1-2.5-2.3-4.1-2.7c-1.2,0.2-2.3,0.8-3.4,1.2c-0.6-2.3-1.2-4.5-1.7-6.8
			c-4.1,3.7-8.8,6.4-13.2,9.6c-8.9,7.9-23.3,10.3-33.5,3.8c0.8-1.9,1.1-4.2,2.6-5.8c2.9,0.1,5.9,0.7,8.6-1c4.2-1.1,7.5-4.1,8.8-8.2
			c1.1-2.4,1.8-4.9,3.1-7.1c1.7-1.9,4.3-2.4,6.8-2.6c1.2-0.9,2.4-1.8,3.5-2.7c0.2,1.2,0.4,2.4,0.6,3.7c0.8-2.4,1.5-5.3,4.4-6
			c0.1-0.4,0.3-1.3,0.4-1.7c0.8,5.6,1.1,11.4,0.5,17.1c2.5-1.6,5-3.3,7.4-5.1c0.1-1.5,0.1-3.1,0.6-4.5c2-4.1,3.1-8.7,5.2-12.8
			c0.7,1,1.5,2,2.2,3c0.3-1.5,0.7-3.1,1.1-4.6c3.6,0.2,6-2.7,8.7-4.6c0.8-0.4,1.8-1.3,2.6-0.5c1.7,1.6,1.8,4.1,2.5,6.3
			c-0.7,2.4-1.3,4.7-1.9,7.1C635.9,437.4,643.2,430.2,645.5,421.5z"/>
	</g>
	<g>
		<path class="st35" d="M538.3,425.3c2.3-1.5,5.2-1.7,7.9-1.7c-2,10.3-4.7,20.5-6.3,30.8c-0.5-2.4-1-4.8-1.6-7.2
			c-3.4,1.2-6.7,2.7-10.2,3.7c-1.6,0.3-2.8,1.6-4,2.6c-1.1-0.8-2.5-1.1-3.9-1.4c2.5-6.3,3.2-13.1,4.8-19.6l0.1-0.1
			c1.6-0.8,3-1.8,4.5-2.8C532.2,427.6,535.5,427,538.3,425.3z"/>
		<path class="st35" d="M505.6,442.9c0-1.6-0.1-3.1-0.1-4.6c1.6,0.7,3.1,1.4,4.8,1.9c0.1,5.9-2.1,11.5-3.1,17.3
			c-0.4,0.1-1,0.3-1.4,0.4c-3.9,5-10.6,6.4-16.1,8.8c-1.5,1.1-2.5-0.7-3.7-1.4c0,0.1,0,0.2-0.1,0.3c-6.4,6.7-17.6,9-25.5,3.6
			c-3.4-2.3-5.3-6-6.7-9.8c6.3,0.4,11.1-3.9,16.6-6.1c1.1,1.1,2.2,2.1,3.3,3.2c1.6,1.7,3.8,3.2,6.3,2.6c5.6-0.9,8.8-6.4,10.2-11.4
			c1.1-1.2,2.2-2.5,3.1-3.9c0.3,1.2,0.7,2.4,1,3.6c2.5-3.4,5.7-6,9.2-8.1C504.2,440.6,504.9,441.7,505.6,442.9z"/>
	</g>
	<g>
		<path class="st36" d="M411.9,436c4.8-4.6,11.7-5.7,16.8-9.8c-1.8,7.5-3,15.1-4.9,22.6c-1.4,1.5-2.9,2.9-4.3,4.3
			c-0.6-0.1-1.2-0.1-1.8-0.1c-1.3,1.9-2.5,4-4.8,4.9c-1.8,1.1-3.9,0.2-5.8-0.2c-0.1,1.1-0.1,2.2-0.2,3.3c-1.7,0-3.3,0.1-4.9,0.2
			c0.3-1.4,0.6-2.8,0.9-4.1c-6.4,7.9-15.6,14.1-25.9,15.1c-5.8,0.5-12.3,0.2-17.1-3.4v-0.6c4-2.5,8.7-3.1,13.3-2.8
			c0.6-1.9,1.1-3.9,1.7-5.8c5.8,2.7,12.7,1.5,18.2-1.4c4.6-2.7,8.5-6.3,11.7-10.5c1.8-6.7,2.9-13.5,4.5-20.3
			C409.6,430.3,410.6,433.2,411.9,436z"/>
	</g>
	<g>
		<path class="st37" d="M307.2,428.7c1,0.2,1.9,0.5,2.9,0.7c-2.9,14.1-5.9,28.1-8.8,42.2c-6.4,0-12.8,0-19.3,0
			c2.8-13.1,5.4-26.3,8.5-39.4c0.6,2.6,1.2,5.2,1.7,7.9c0.3-0.6,0.8-1.8,1-2.3c0.6,0.3,1.2,0.6,1.8,1c0-1.8,0-3.6,0-5.4
			c0.5,0.8,1,1.6,1.6,2.4c2.9,0,5.5-1.1,7.4-3.3c0.9,1.2,1.8,2.4,2.6,3.5C307,433.5,307.1,431.1,307.2,428.7z"/>
	</g>
	<g>
		<path class="st38" d="M460,436.1c3.4-3,7.5-4.9,11.8-6.4c1.3,0.9,2.5,1.8,3.8,2.8c-2.2,7.8-4,16.2-1.8,24.2
			c-1.1-1.1-2.2-2.1-3.3-3.2c-5.5,2.2-10.4,6.6-16.6,6.1c-2.1-10.2-0.3-20.7,3.4-30.3C458,431.5,458.1,434.3,460,436.1z"/>
	</g>
	<g>
		<path class="st39" d="M557.5,444.6c2.4-1.6,3.9-4.1,5.1-6.6c0.8,0.1,1.6,0.2,2.4,0.3c0.6,1.4,1.1,2.7,1.8,4.1
			c1.8,2.3,3.9,5.3,2,8.3c-1.4,3.6-5.7,3.9-8.9,3.1c0.7,2.2,0.9,5,3,6.4c2.2,1.7,5.1,1.3,7.7,1.5c-2.7,1.7-5.7,1.1-8.6,1
			c-1.5,1.5-1.8,3.8-2.6,5.8c-1.8-1.7-3.3-3.6-4.7-5.6c-6,7.1-16.1,11.3-25.2,8.4c-4.5-1.4-7.2-5.7-8.2-10
			c-4.2,5.6-10.3,9.5-17,11.2c-1.1,4.6-1.9,9.3-3.1,13.9c-0.8-2.1-1.6-4.1-2.3-6.2c-0.5,0.9-1.1,1.8-1.6,2.7
			c-2.2,0.3-4.3,0.7-6.5,1.1c-0.9,0.9-1.9,1.9-2.8,2.8c-1.2-0.2-2.3-0.4-3.5-0.5c-1.2,1.4-1.8,3.3-2.6,4.9c-0.5-0.1-1.6-0.3-2.1-0.4
			c2.1-3.8,3.1-8.1,3.9-12.3c-4.8,2.1-10.7,4.1-12.6,9.5c-1,2.8,1.1,5.1,3.4,6.3c-2.3,0.3-4.5,0-6.8-0.6c-0.9,1.6-1.7,3.3-2.6,4.9
			c-2.5-5-2.3-11.3,1.1-15.8c4.5-6,11.9-8.9,18.8-11.1c0.4-2,0.8-4.1,1.1-6.1c0-0.1,0-0.3,0.1-0.3c1.2,0.7,2.2,2.5,3.7,1.4
			c5.5-2.5,12.2-3.9,16.1-8.8c0.4-0.1,1-0.3,1.4-0.4c-0.6,3-1.3,6.1-1.9,9.1c6.9-2.3,12.2-7.8,14.9-14.5c1.4,0.3,2.7,0.6,3.9,1.4
			c1.2-1,2.4-2.3,4-2.6c3.5-1,6.8-2.5,10.2-3.7c0.6,2.4,1.1,4.8,1.6,7.2c0.3,1.6,0.5,3.7,2.3,4.4c3.7,1.4,8-0.2,10.4-3.1
			C553.3,451.7,554.1,447.2,557.5,444.6z"/>
	</g>
	<g>
		<path class="st40" d="M179.6,451c0.8-2.6,1.9-5.1,3-7.5c-0.1,2.2-0.3,4.5-0.3,6.7l0,0.6c13.2,0.5,26.4,0.1,39.6,0.6
			c5.6,0.4,11.2,0.6,16.8,0.9c-0.1,0.8-0.2,1.5-0.2,2.3c-3.5,0.5-7.3,0.4-10.4,2.4c-4.4,2.8-9.5,4.3-14.7,5.3
			c-2.2,0.1-3.1,2.3-4.2,3.8c-5.2,0-10.3,0.8-15.5,1.3c4.7,0.6,9.5,0.6,14.3,0.9c-9.2,1.1-18.6-0.8-27.7,1.2c-0.2,1.3-0.4,2.7-0.5,4
			c-0.7,1.8-1.4,3.6-2.1,5.5c-0.3-1.2-0.7-2.4-1-3.5c-2.8,2.1-5.9,3.6-9.2,4.5c-3.3,0.6-5.3,3.9-8.6,4.6c-5.9,1.4-11.4,4.1-16.6,7.1
			c0.1-3.3-0.2-6.6-1.6-9.6c-0.5-3.8-0.6-7.8-0.1-11.6c0.7-2,1.3-4,2.6-5.8c1.8-0.7,3.8-0.8,5.7-1.5c2.1-0.9,3.7-2.8,6.1-3.1
			c3.7-0.8,7.7-0.9,10.7-3.5c3.5-2.8,7.5-4.8,11.3-7.1C177.9,450.1,178.8,450.6,179.6,451z"/>
	</g>
	<g>
		<path class="st41" d="M419.4,453.1c1.5-1.4,2.9-2.8,4.3-4.3c-1.4,7.6-3.1,15.2-4.7,22.8c-6.4-0.1-12.8,0-19.1,0
			c0.7-3.5,1.5-6.9,2.1-10.4c1.6-0.1,3.3-0.2,4.9-0.2c0-1.1,0.1-2.2,0.2-3.3c1.9,0.4,4,1.3,5.8,0.2c2.2-0.9,3.5-3.1,4.8-4.9
			C418.2,453,418.8,453,419.4,453.1z"/>
	</g>
	<g>
		<path class="st42" d="M182.3,450.2c25.6,0,51.2-0.1,76.7,0c6.6-0.1,10.6,7.5,8.6,13.3c-1,4.3-5.3,7.3-9.7,7c-24,0-48-0.1-72.1,0
			c-1.9-0.1-3.9,0.3-5.6-0.9c9.1-2,18.5-0.2,27.7-1.2c-4.8-0.3-9.6-0.3-14.3-0.9c5.1-0.5,10.3-1.3,15.5-1.3c1.1-1.5,2-3.7,4.2-3.8
			c5.1-1,10.2-2.5,14.7-5.3c3.1-2.1,6.9-2,10.4-2.4c0.1-0.8,0.2-1.6,0.2-2.3c-5.6-0.3-11.2-0.5-16.8-0.9
			c-13.2-0.6-26.4-0.2-39.6-0.6L182.3,450.2z"/>
	</g>
	<g>
		<path class="st43" d="M62.6,469.6c-7-4.1-6.7-15.5,0.7-19c15.9,0.9,31.8-0.2,47.7,1c8.4,0.7,17-0.5,25.3,1.4c-3,0.7-6.5,0.5-9,2.6
			c-5,3.8-12.3,2.7-16.6,7.7c-3.5,0.3-6.7,1.7-9.9,3c-4.3,0.8-8.8,0.3-13.1,1c5.4,0.9,10.9,0.6,16.4,1c-13.7,0.8-27.4-0.4-41,1.2
			L62.6,469.6z"/>
	</g>
	<g>
		<path class="st44" d="M632.1,459.4c6.6,0.8,12.5-3.1,17.5-6.9c-1.3,6.3-4,12.8-9.7,16.3c-6.2,3.8-14.1,4.2-21.1,2.4
			c-4.9-1.2-8.9-4.8-11.1-9.3c1.1-0.4,2.2-1,3.4-1.2c1.6,0.4,2.8,1.8,4.1,2.7c1.1-2.8,2.4-6.5,6.1-5.6c1.6-1.3,3.2-2.7,4.8-4.1
			C627.2,456.4,629,459.1,632.1,459.4z"/>
	</g>
	<g>
		<path class="st45" d="M179.9,473.7c0.2-1.4,0.3-2.7,0.5-4c0.9,2,0.7,4.2,0.7,6.3c-0.1,12.1,1.2,24.1,2.4,36.1
			c-0.6,2.5-1,5-1.2,7.5c-3.7,1.4-7.3,3.1-11.2,4c-3,0.6-5.1,3.1-8,3.9c-3.4,0.9-6.6,2.3-9.8,3.7c-0.7-0.9-1.4-1.9-2.1-2.8
			c-0.5,1.9-1,3.8-1.5,5.6c-1.5-2.1-3.1-4.1-4.4-6.2c-1.5-6.5-2.2-13.2-3.1-19.8c0.3-0.4,0.8-1.3,1.1-1.7c0.6,1,1.2,2,1.9,3.1
			c4-0.9,7.2-3.6,10.9-5c6.4-1.8,12.4-4.6,18.9-6.3c1.2-2,2.4-4.2,4.6-5.3C180.1,486.4,180.4,480.1,179.9,473.7z"/>
	</g>
	<g>
		<path class="st46" d="M177.7,479.2c0.7-1.8,1.5-3.6,2.1-5.5c0.6,6.4,0.2,12.7-0.2,19.1c-2.2,1.1-3.4,3.3-4.6,5.3
			c-6.4,1.6-12.5,4.4-18.9,6.3c-3.8,1.4-6.9,4.1-10.9,5c-0.6-1-1.3-2-1.9-3.1c-0.3,0.4-0.8,1.3-1.1,1.7c-0.9-8.6-1.9-17.2-1.6-25.8
			c1.5,3,1.8,6.3,1.6,9.6c5.2-3,10.7-5.7,16.6-7.1c3.3-0.7,5.3-3.9,8.6-4.6c3.4-0.9,6.5-2.4,9.2-4.5
			C177.1,476.8,177.4,478,177.7,479.2z"/>
	</g>
	<g>
		<path class="st47" d="M498.7,480.3c0.8,2.1,1.5,4.1,2.3,6.2c-2.2,6.8-6.3,13.6-13.2,16.4c-7.5,3-17.5,2.8-22.8-4.1
			c0.9-1.6,1.7-3.3,2.6-4.9c2.2,0.5,4.5,0.9,6.8,0.6c2.2-0.3,3.9-1.8,5.2-3.4c0.5,0.1,1.6,0.3,2.1,0.4c0.8-1.7,1.4-3.5,2.6-4.9
			c1.2,0.1,2.3,0.3,3.5,0.5c0.9-1,1.9-1.9,2.8-2.8c2.2-0.4,4.3-0.8,6.5-1.1C497.6,482.1,498.1,481.2,498.7,480.3z"/>
	</g>
	<g>
		<path class="st48" d="M240.8,493.6c0.6-0.7,1.3-1.5,2-2.2c7.2,0.5,14.4,1.6,21.3,3.6c0.5-0.2,1.4-0.7,1.8-0.9
			c5,1.3,9.9,3,14.3,5.8c3.3,1.9,6,4.7,9.7,5.7c3,0.7,5.1,3.3,7.1,5.5c5.4,6.8,9.2,15.2,9.5,23.9c0.4,4.7-1.7,9.1-1.5,13.8
			c-0.7-2.2-1.5-4.4-2.4-6.5c2.8-11-2.1-22.4-9.2-30.7c-2-2.8-5.8-2.5-8.3-4.6c-4.9-3.8-10.2-7.2-16.1-8.9c-1.3-0.5-2.7,0.2-4,0.4
			c-6.4-1.9-13.1-3.4-19.8-3.7c-3,2.6-7.2,2.1-10.9,2.5c-4,0.4-8.1,0.8-12,2c0,0.3,0.1,0.9,0.2,1.3c3.8,3.2,8.3,5.6,11.6,9.4
			c1.9,1.8,1.8,4.7,3.2,6.8c1.8,2.5,4.1,4.6,6,7c1.9,2.3,2.4,5.4,4.3,7.7c2.1,2.6,4.8,5,5.9,8.3c1,2.7,3.5,4.3,5.7,6
			c8.6,6.5,20.2,9.5,30.8,6.7c2-0.5,3.9-1.1,6-1.3c2.7,0.2,3.9,3.1,5.7,4.8c-0.7,1.3-1.3,2.7-1.9,4c-1-2.1-1.8-4.4-3.8-5.8
			c-4.3,0.8-8.4,2.4-12.8,2.3c-12.8,0.6-25.2-5.8-33.4-15.4c0-5.2-6-7.6-7.5-12.3c-1.7-5.2-6.5-8.3-9.4-12.8c-1-1.8-0.9-4-2.4-5.5
			c-5-5-11.4-8.3-17.8-11.3c0-0.5-0.1-1.4-0.1-1.8C221.9,495.8,231.3,494.3,240.8,493.6z"/>
	</g>
	<g>
		<path class="st49" d="M255.9,503.7c3.7,3.6,4.3,9.7,9.2,12.2c4.4,2.7,8.7,5.7,13.2,8.3c-0.3-4.4-2.7-8.3-3.3-12.6
			c2.2,3.6,3.5,7.7,4.4,11.9c0.6,3.3,3.9,5,6,7.2c2.3,1.9,4.1,4.7,7.2,5.3c0.4-2.8,0.7-5.7,1.1-8.5c0.9,4.9-2,10.3,1.4,14.6
			c-1-0.7-2.1-1.3-3.1-1.9c-7.6,3.3-16.1,5-24.3,3.3c5.4-0.8,11-0.1,16.3-1.7c2.5-0.7,4.9-1.8,7.3-2.9c-3.4-4.5-7.9-8-12.4-11.3
			c-6.6,0.9-13.1,3-19.9,2.6c6-1.6,12.6-1.5,18.2-4.3c-4.7-3.4-9.6-6.6-14.5-9.7c-1.9-1.6-4.4-0.5-6.5-0.1c-3.1,0.9-6.4,0.9-9.5,0.5
			c4.1-0.8,8.4-1,12.4-2.6c-4.5-3.3-9.9-5.1-14.6-8.2c4.8,1.1,8.8,4.3,13.5,5.5l0.9-0.5C258.6,508.2,256.9,506.1,255.9,503.7z"/>
	</g>
	<g>
		<path class="st50" d="M182.4,519.6c0.2-2.5,0.5-5,1.2-7.5c1.1,5.3,2.4,10.7,3.1,16.1c-0.7,4.2-0.1,8.5,0.6,12.7
			c-0.7-0.8-1.5-1.5-2.2-2.3c-2.4,1.2-5,1.9-7.7,2c-1.3,1.9-2.4,4.1-4.2,5.5c-3.4,1.7-7.4,1.3-11,2.3c-2.1,0.9-3.2,3.2-5.3,4.1
			c-1.5-0.1-2.9-0.5-4.3-0.8c-0.7-3.3-1.8-6.7-3.9-9.4c-1.6-4.7-2.3-9.7-3.2-14.6c1.4,2.1,2.9,4.2,4.4,6.2c0.5-1.9,1-3.8,1.5-5.6
			c0.7,0.9,1.4,1.9,2.1,2.8c3.2-1.3,6.4-2.8,9.8-3.7c2.9-0.7,5-3.3,8-3.9C175.1,522.7,178.7,521,182.4,519.6z"/>
	</g>
	<g>
		<path class="st51" d="M545.9,539.8c2.3-6.6,7-13.3,14.2-14.9c3.3-0.7,7.8-0.8,9.5,2.8c0.2-0.7,0.6-2,0.8-2.7
			c3.5-0.3,7.1,0,10.6-0.1c-1.4,9.2-3.9,18.2-5.5,27.3c-0.4,1.6,0.3,4.2,2.4,4.1c3.7,0.3,5.6-3.7,6.5-6.7c1.9-8.1,3.5-16.3,5.2-24.5
			c3.7-0.4,7.4-0.3,11.1-0.3c-0.2,0.9-0.6,2.7-0.8,3.6c3.4-3.6,8.9-5.1,13.4-2.8c2.7,1.3,3.8,4.5,3.8,7.4c0,6.8-3.1,13.2-3.7,19.9
			c-0.3,3,3.6,3.6,5.5,2.1c3.2-2.5,4-6.8,4.7-10.5c1.3-6.6,2.8-13.1,4.1-19.7c3.7,0,7.3,0,11,0c-1.1,6-2.5,12-3.7,18
			c-0.8,4.2-2.4,8.3-1.6,12.6c4,1.6,6.9-2.5,7.7-5.9c2-8.2,3.5-16.5,5.3-24.7c3.7,0,7.3,0,11,0c-2.9,14.6-6.1,29.1-9.1,43.6
			c-0.9,4.6-3,9.5-7.3,11.8c-4.1,2.1-9.9,2.3-13.3-1.2c-3.6-3.5-2.8-10,1.2-12.8c3.2-2.7,7.8-2.6,10.8-5.8c-4.1,1.4-9,4.3-13.4,2
			c-2.3-0.9-3.3-3.2-4.3-5.3c-3.3,6-12.7,8.5-17.6,3.1c-3.5-5.3-0.6-11.8,0.5-17.4c0.5-3.6,2.6-8-0.1-11.1c-3.8-1.1-6.1,3.1-7,6.1
			c-2,8.3-3.5,16.7-5.4,25c-3.7,0-7.4,0-11.1-0.1c0.2-0.9,0.7-2.7,0.9-3.6c-3.6,3.1-8.7,5.4-13.4,3.5c-2.5-0.9-3.3-3.5-4.2-5.7
			c-2.2,2.5-4.5,5.1-7.9,5.9c-4.5,1.5-10.2-0.4-12-4.9C542.7,552.1,544,545.5,545.9,539.8 M564.4,529.5c-3.5,1.3-5.4,5-6.7,8.2
			c-1.9,5-3.3,10.5-2.1,15.9c0.6,2.8,4.2,2.7,6.1,1.2c3.2-2.2,3.5-6.4,4.3-9.8c0.8-4.3,2-8.5,2.6-12.9
			C568.9,529.9,566.2,528.9,564.4,529.5 M630.1,571c-1.2,2.5,2.3,5,4.4,3.3c2.8-2.4,2.9-6.4,3.6-9.7C635,566,631,567.3,630.1,571z"
			/>
	</g>
	<g>
		<path class="st52" d="M187.3,540.9c-0.7-4.2-1.3-8.5-0.6-12.7c4.6,18.2,10.2,36.2,18.4,53.1c-1.6-1.1-3.2-2-4.9-3
			c-5.7,2.8-12.5,3-17.4,7.3c-2.2,2-5.4,1-7.8,2.4c-3.2,1.7-6.9,1.5-10.3,2.6c-6.8-15.6-12.5-31.7-16.1-48.3c2.1,2.7,3.2,6,3.9,9.4
			c1.4,0.3,2.9,0.7,4.3,0.8c2.1-0.8,3.3-3.2,5.3-4.1c3.6-1,7.6-0.7,11-2.3c1.8-1.5,2.9-3.7,4.2-5.5c2.7-0.1,5.3-0.8,7.7-2
			C185.8,539.4,186.6,540.2,187.3,540.9z"/>
	</g>
	<g>
		<path class="st53" d="M435.6,531.5c1.2-2,3.5-2.5,5.6-2.7c0.4,1.3,0.9,2.7,1.3,4c-2.8,1.9-3.4,6.2-0.5,8.2c-0.9,5-2.2,10.4-6,14
			c-1.9,2.1-6.1,1.3-6.2-1.8C429.1,545.7,431.4,537.8,435.6,531.5z"/>
		<path class="st53" d="M564.4,529.5c1.8-0.6,4.4,0.4,4.1,2.6c-0.5,4.3-1.8,8.5-2.6,12.9c-0.8,3.5-1.1,7.6-4.3,9.8
			c-1.8,1.5-5.5,1.5-6.1-1.2c-1.2-5.3,0.3-10.9,2.1-15.9C559.1,534.5,560.9,530.8,564.4,529.5z"/>
	</g>
	<g>
		<path class="st54" d="M523.4,535.1c0.6-3.5,4.5-5.9,7.8-4.5c2.2,4.7,1.2,10.1,0.1,15c-1.1,4.1-2.9,8.9-7.2,10.7
			c-1.8,0.8-5.5,0.5-4.8-2.3C520.7,547.7,522.1,541.4,523.4,535.1z"/>
	</g>
	<g>
		<path class="st55" d="M630.1,571c1-3.7,4.9-5,8-6.4c-0.7,3.3-0.8,7.4-3.6,9.7C632.4,576,628.9,573.5,630.1,571z"/>
	</g>
	<g>
		<path class="st56" d="M349.9,572.5c3.5-0.9,6.9-2.6,10.7-2.2c-2.9,0.9-6.3,0.8-8.7,2.9c1.6,2.6,4.7,4,7,6c2.5,1.7,4.7,4.8,8.1,4.4
			c4.6,0.1,9.2,1,13.3,3c-4.7-0.5-9.4-2-14.1-1.7c3.2,4,6.9,7.7,10.3,11.7c3.1,4.1,8.7,4.1,12.9,6.3c-2.9-0.3-5.7-1-8.5-1.5
			c3.1,5.3,7.3,10,10,15.6c-4-4.8-7-10.5-11.8-14.7c-0.6,4.3-0.3,8.7-0.5,13.1c-1.2-4.4-0.9-8.9-0.7-13.4c0.2-1.9-1.4-3.1-2.4-4.4
			c-3.6-3.8-7.1-7.7-10.8-11.3c-1.7,5.9-0.8,12.1-1,18.2c-1.7-6.3-1.3-12.9-0.5-19.3c-4.2-3.9-8.6-7.6-13.3-10.8
			c-3.5,7.7-1.4,16.1-0.9,24.1c-2.8-7.9-2.9-16.5-0.5-24.5c-1-0.9-2-1.8-3-2.7C346.7,571.6,348.3,572.2,349.9,572.5z"/>
	</g>
	<g>
		<path class="st57" d="M182.8,585.8c4.9-4.3,11.7-4.6,17.4-7.3c1.6,0.9,3.3,1.9,4.9,3c4.5,8.8,9.1,17.6,14.5,25.9
			c-3.7,2.6-8.5,1.7-12.4,3.8c-2.9,1.2-5.2,4.4-8.7,4c-1.9,1.3-3.7,2.7-5.6,4.2c-0.3-0.1-0.9-0.4-1.2-0.5c-3.9,0.3-7.1,2.6-9.7,5.4
			c-6.4-10.8-12.3-21.9-17.3-33.4c3.4-1,7.1-0.9,10.3-2.6C177.4,586.8,180.6,587.7,182.8,585.8z"/>
	</g>
	<g>
		<path class="st58" d="M219.6,607.2c4.6,7.3,9.6,14.3,14.7,21.2c-2.1-0.8-4.2-1.4-6.3-2c-0.8,0.9-1.7,1.8-2.5,2.7
			c-6.3-0.3-10.9,5.2-16.7,6.8c-5.3,1-11.1,1.9-15.5,5.2c-3.8-5.6-7.6-11.2-11.1-17c2.6-2.8,5.8-5.1,9.7-5.4
			c0.3,0.1,0.9,0.4,1.2,0.5c1.8-1.5,3.7-2.9,5.6-4.2c3.5,0.5,5.7-2.8,8.7-4C211.1,608.9,215.9,609.9,219.6,607.2z"/>
	</g>
	<g>
		<path class="st59" d="M225.4,629.2c0.8-0.9,1.7-1.8,2.5-2.7c2.1,0.6,4.3,1.2,6.3,2c4.9,5.5,9.5,11.2,14.6,16.6c-2,0.5-4,0.4-6-0.2
			c-1.3,0.7-2.7,1.5-4.1,2.2c-1.3,1.5-2.3,3.8-4.7,3.5c-7.6-0.1-13.5,5.4-20,8.5c-2.2,0.7-2.1,3.3-2.9,5.1
			c-6.3-7.4-12.4-15.1-18-23.1c4.5-3.3,10.2-4.2,15.5-5.2C214.5,634.4,219.1,628.9,225.4,629.2z"/>
	</g>
	<g>
		<path class="st60" d="M242.8,644.9c2,0.6,4,0.6,6,0.2c10.3,10.5,21.1,20.5,32.8,29.3c-1.3,0-2.6,0.1-3.9,0.2c-1-1-2.1-2-3.1-3
			c-2.3,1.6-5.1,2.5-7.9,3c-0.6,0.8-1.2,1.5-1.9,2.3c-5,0.2-8.5,4.4-13.3,5.5c-3.4,0.9-7.1,1.5-9.7,4.1c-0.8,1-2,0.5-3.1,0.4
			c-1,0.7-2,1.5-3,2.3c-8.7-7.8-17-16.2-24.7-25c0.8-1.8,0.7-4.4,2.9-5.1c6.5-3.1,12.4-8.5,20-8.5c2.4,0.3,3.4-2,4.7-3.5
			C240.1,646.4,241.5,645.6,242.8,644.9z"/>
	</g>
	<g>
		<path class="st61" d="M274.6,671.6c1,1,2,2,3.1,3c1.3-0.1,2.6-0.2,3.9-0.2c8.5,5.8,17,11.7,26.1,16.7c-1.2,1.3-2.3,2.6-3.5,3.8
			c0-1.5,0-3-0.1-4.5c-1.2,1.8-2.2,3.7-3.2,5.6c-0.6-1-1.2-2-1.8-2.9c-0.9,1.5-1.7,3-2.6,4.6c-0.3-0.5-0.8-1.6-1.1-2.1
			c-3.6,1.7-6.8,4.2-10.7,5.2c-2.7,0.2-5.5,0.6-7.8,2.3c0.6,0.3,2,1,2.6,1.3c-4,1.2-7.7,3-11.3,5.1c-0.1-0.5-0.4-1.4-0.6-1.9
			c-1.5,1.1-3.1,2.2-4.6,3.2c-9.4-6.8-18.7-13.8-27.3-21.7c1-0.8,2-1.5,3-2.3c1,0.1,2.3,0.6,3.1-0.4c2.6-2.6,6.3-3.2,9.7-4.1
			c4.7-1.1,8.3-5.3,13.3-5.5c0.6-0.8,1.2-1.5,1.9-2.3C269.5,674.1,272.3,673.3,274.6,671.6z"/>
	</g>
	<g>
		<path class="st62" d="M301,696c1-1.9,2-3.8,3.2-5.6c0,1.5,0.1,3,0.1,4.5c1.1-1.3,2.3-2.6,3.5-3.8c13.8,7.8,28.3,14.4,43.3,19.3
			c-1.4,0.4-2.9,0.7-4.3,1.1c0.3,0.6,0.5,1.2,0.8,1.8c-2.2,2.7-6,1.1-8.6,2.8c-5.6,2.2-10.5,6.5-16.7,7c-2.2,1-3.6,3.7-6.1,3.8
			c-4.8-0.2-8,4.1-12.5,5.2c0,0.6-0.1,1.8-0.1,2.4c-14-6.9-27.5-14.7-40.2-23.6c1.6-1.1,3.1-2.2,4.6-3.2c0.1,0.5,0.4,1.4,0.6,1.9
			c3.6-2.1,7.4-3.9,11.3-5.1c-0.6-0.3-2-1-2.6-1.3c2.3-1.7,5-2.1,7.8-2.3c3.9-1.1,7.1-3.5,10.7-5.2c0.3,0.5,0.8,1.6,1.1,2.1
			c0.9-1.5,1.7-3.1,2.6-4.6C299.8,694.1,300.4,695.1,301,696z"/>
	</g>
	<g>
		<path class="st63" d="M351,710.4c15.3,4.8,30.9,8.4,46.7,10.9c-3.8,1.9-7.9,0.8-11.9,1.3c-0.5,1.8-0.7,3.7-0.9,5.5
			c-0.5-1.2-1-2.3-1.4-3.4c-4.2,1.3-8.8,2.9-10.7,7.2c-0.4-0.8-0.8-1.6-1.2-2.4c-3.3,1.7-6.7,3.4-10.5,4c-3.5,0.4-5.4,4-8.9,4.5
			c-5.2,0.9-9.7,3.6-14.4,5.8c-1.6,0.6-2.5,2.2-3.5,3.5c-10.6-3.7-20.9-8-31-12.9c0-0.6,0.1-1.8,0.1-2.4c4.5-1,7.7-5.4,12.5-5.2
			c2.5-0.1,4-2.7,6.1-3.8c6.2-0.5,11.1-4.8,16.7-7c2.7-1.8,6.4-0.1,8.6-2.8c-0.3-0.6-0.5-1.2-0.8-1.8
			C348.1,711.1,349.6,710.8,351,710.4z"/>
	</g>
	<g>
		<path class="st64" d="M397.8,721.4c3.8-0.2,7.6,0.8,11.4,0.9c7.6,0.8,15.3,0.5,23,1c8.1,0.6,14.5,7.1,17.1,14.6
			c-4.1,0.9-7.9,2.9-11.5,4.9c-3.7,2.1-8.5,1.4-11.9,4.1c-3.8,2.6-8.3,4-12.8,4.6c-3.3,0.4-5.8,2.8-8.6,4.5
			c-2.5,1.4-5.5,1.8-8.2,2.5c0.2,1.1,0.4,2.3,0.6,3.4c-21.3-2.6-42.3-7.2-62.5-14.5c1-1.3,1.9-2.8,3.5-3.5c4.7-2.1,9.2-4.9,14.4-5.8
			c3.5-0.5,5.4-4.1,8.9-4.5c3.7-0.6,7.1-2.3,10.5-4c0.4,0.8,0.8,1.6,1.2,2.4c1.9-4.3,6.5-6,10.7-7.2c0.5,1.1,1,2.3,1.4,3.4
			c0.3-1.8,0.4-3.7,0.9-5.5C389.9,722.1,394,723.2,397.8,721.4z"/>
	</g>
	<g>
		<path class="st65" d="M437.7,742.7c3.7-2,7.4-4,11.5-4.9c4,11.6-5.3,24.6-17.2,25.8c-11.8,0.3-23.5-0.4-35.2-1.8
			c-0.2-1.2-0.4-2.3-0.6-3.4c2.8-0.7,5.7-1.1,8.2-2.5c2.7-1.7,5.3-4,8.6-4.5c4.5-0.6,9-2,12.8-4.6
			C429.2,744.1,433.9,744.8,437.7,742.7z"/>
	</g>
</g>
</svg>
