<?xml version="1.0" encoding="utf-8"?>
<!-- Generator: Adobe Illustrator 23.0.1, SVG Export Plug-In . SVG Version: 6.00 Build 0)  -->
<svg version="1.1" id="Capa_1" xmlns="http://www.w3.org/2000/svg" xmlns:xlink="http://www.w3.org/1999/xlink" x="0px" y="0px"
	 viewBox="0 0 103 394.6" style="enable-background:new 0 0 103 394.6;" xml:space="preserve">
<style type="text/css">
	.st0{fill:#382F2C;}
	.st1{fill:#0D2B4C;}
	.st2{fill:#E3887B;}
	.st3{fill:#F8A899;}
	.st4{fill:#FFFFFF;}
	.st5{fill:#F9B4A8;}
	.st6{fill:url(#SVGID_1_);}
	.st7{fill:url(#SVGID_2_);}
	.st8{fill:#1F1F26;}
	.st9{fill:#F69794;}
	.st10{opacity:0.2;fill:#F69794;enable-background:new    ;}
	.st11{fill:#9A9EA4;}
	.st12{fill:#622A4E;}
	.st13{fill:#345F77;}
	.st14{fill:#C9CACC;}
	.st15{fill:#FFFFFF;stroke:#000000;stroke-width:0.25;stroke-miterlimit:10;}
	.st16{fill:#2F180E;}
	.st17{fill:#3DB54A;}
	.st18{fill:#2F190E;}
	.st19{fill:#BD762A;}
	.st20{fill:#2C1A0F;}
	.st21{fill:#6DC7B9;}
	.st22{fill:#281E10;}
	.st23{fill:#040404;}
	.st24{fill:#F89F20;}
	.st25{fill:#F9A020;}
	.st26{fill:#020202;}
	.st27{fill:#2B1B10;}
	.st28{fill:#C88B2B;}
	.st29{fill:#2A2212;}
	.st30{fill:#D7A029;}
	.st31{fill:#FAE96E;}
	.st32{fill:#E1AF25;}
	.st33{fill:#F2E574;}
	.st34{fill:#CB912B;}
	.st35{fill:#E5B822;}
	.st36{fill:#E9C52E;}
	.st37{fill:#F1D248;}
	.st38{fill:#EFDF6F;}
	.st39{fill:#F6E05E;}
	.st40{fill:#FAEA6F;}
	.st41{fill:#FDF27E;}
	.st42{fill:#FDF281;}
	.st43{fill:#F7E262;}
	.st44{fill:#F0D348;}
	.st45{fill:#F4DA52;}
	.st46{fill:#E3B623;}
	.st47{fill:#E8D467;}
	.st48{fill:#F4E776;}
	.st49{fill:#FBED73;}
	.st50{fill:#F3D64C;}
	.st51{fill:#FEF381;}
	.st52{fill:#EEDD6E;}
	.st53{fill:#EAC129;}
	.st54{fill:#FDF382;}
	.st55{fill:#F0CE3E;}
	.st56{fill:#E0AC26;}
	.st57{fill:#DDC760;}
	.st58{fill:#F4D74F;}
	.st59{fill:#EFCD3B;}
	.st60{fill:#E8D669;}
	.st61{fill:#2A1C0F;}
	.st62{fill:#2D1B0F;}
	.st63{fill:#F8E465;}
	.st64{fill:#FBF07B;}
	.st65{fill:#F79F22;}
	.st66{fill:#272212;}
	.st67{fill:#F2E170;}
	.st68{fill:#E8D568;}
	.st69{fill:#DFC95F;}
	.st70{fill:#D4BA56;}
	.st71{fill:#C8A948;}
	.st72{fill:#BC993B;}
	.st73{fill:#B28B31;}
	.st74{fill:#A77B2C;}
	.st75{fill:#9D702A;}
</style>
<g id="Paquete_de_vectores:_motivo_de_puntos_15">
</g>
<g id="Paquete_de_vectores:_motivo_de_puntos_15_1_">
</g>
<g id="Paquete_de_vectores:_motivo_de_puntos_03">
</g>
<g>
	<g>
		<g>
			<g>
				<path class="st0" d="M70,26.9c2.6,10.6-3.5,27.9-10.7,42.4c-6,12.2,13.1,32.2-2.5,54.6s-14.2,34-28.2,34
					c-11.5,0-12.8-4.7-17.7-19.5c-4.8-14.8-4.6-45.5-1-55.3s13-24.6,12-38s5.9-26.3,5.9-26.3S37.4,0.6,54,6.8
					C68,12,68.5,20.7,70,26.9z"/>
				<path class="st1" d="M25.8,66.9c0,0-11.8,3.5-18,33.1c-2.4,11.5-3.5,16.3-3.5,33.3h12.1c0,0,4.8-33.4,4.9-39.7
					C21.4,74.8,25.8,66.9,25.8,66.9z"/>
				<g>
					<polygon class="st1" points="15.5,179.1 4.1,180.5 4.3,133.2 16.4,133.2 					"/>
					<g>
						<path class="st2" d="M14.5,200.2L14.5,200.2c-0.1-0.1-0.3-0.3-0.5-0.4c-2.1-1.8-3.6-3.2-3.8-4.8c-0.1-1.2-0.3-2.1-0.4-3.4
							c-0.2-1.3,0.8-4.6,1.8-4.7c0.9-0.1,2.8,2.8,3.4,3.3c0.1,0.1,0.2,0.2,0.4,0.3c-1.2,0.4-3.2,1.9-1.2,6.3
							C14.5,197.6,16.2,198.8,14.5,200.2z"/>
						<path class="st3" d="M5.7,180.3c0,0-0.9,5.9,0,13.8c0.4,3.1,2.7,7.6,7.4,8.3c0.5,0.1,1.7-0.2,1.9-0.6c0.2-0.6,0.1-1.1-0.9-2
							c-2.1-1.8-3.6-3.2-3.8-4.8c-0.1-1.2-0.3-2.1-0.4-3.4c-0.2-1.3,0.8-4.6,1.8-4.7c0.9-0.1,2.8,2.8,3.4,3.3
							c1.8,1.7,4.3,0.9,2.6-1.1c-4-4.9-3.6-9.8-3.6-9.8L5.7,180.3z"/>
					</g>
				</g>
				<path class="st4" d="M73.9,69.5C68.6,67.2,55.5,61,55.5,61H39.8c0,0-9.4,5.2-14.7,7.6c0,0-6.7,26.7-2.7,43.5
					c3.8,16.2,5.2,38.3,5.2,38.3h40c0,0-0.9-22.2,4.3-38C78.8,91.4,73.9,69.5,73.9,69.5z"/>
				<g>
					<polygon class="st3" points="55.5,61 47.8,68.4 39.8,61 39.8,47.9 55.5,47.9 					"/>
					<path class="st5" d="M64.3,38.8c-1.4,5.9-9.6,16.9-17,16.9c-6.4,0-16.6-9.2-17-15.3c0,0-1.6-10.9-1.8-14.5
						C27.9,15.1,38,6.3,47.4,6.3l0,0c9.4,0,19.9,8.8,19.1,19.6C66.2,29.6,65.1,35.2,64.3,38.8z"/>
					<g>
						<linearGradient id="SVGID_1_" gradientUnits="userSpaceOnUse" x1="40.8" y1="37.8401" x2="43.7" y2="37.8401">
							<stop  offset="0" style="stop-color:#000000"/>
							<stop  offset="1" style="stop-color:#3F3F3F;stop-opacity:0.7"/>
						</linearGradient>
						<path class="st6" d="M43.7,37.9c0,0.8-0.7,1.5-1.5,1.4c-0.8,0-1.4-0.7-1.4-1.5s0.7-1.5,1.5-1.4C43.1,36.4,43.7,37.1,43.7,37.9
							z"/>
						<linearGradient id="SVGID_2_" gradientUnits="userSpaceOnUse" x1="53.3" y1="39.0401" x2="56.2" y2="39.0401">
							<stop  offset="0" style="stop-color:#000000"/>
							<stop  offset="1" style="stop-color:#3F3F3F;stop-opacity:0.7"/>
						</linearGradient>
						<path class="st7" d="M56.2,39.1c0,0.8-0.7,1.5-1.5,1.4c-0.8,0-1.4-0.7-1.4-1.5s0.7-1.5,1.5-1.4C55.6,37.6,56.2,38.3,56.2,39.1
							z"/>
						<path class="st8" d="M45.6,35c-0.7-0.3-1.4-0.6-2-0.8c-0.7-0.2-1.3-0.3-2-0.3c-0.7,0-1.3,0.1-2,0.3l-0.3,0.1
							c-0.1,0-0.2,0.1-0.2,0.1l-0.5,0.2c-0.3,0.1-0.7,0.3-1,0.5c0.2-0.3,0.5-0.6,0.7-0.9c0.3-0.2,0.6-0.5,1-0.7
							c0.7-0.4,1.5-0.6,2.3-0.6c0.8,0,1.6,0.2,2.3,0.5C44.5,33.9,45.1,34.4,45.6,35z"/>
						<path class="st8" d="M51.4,35.5c0.5-0.6,1.2-1,2-1.3c0.8-0.2,1.6-0.3,2.4-0.2c0.8,0.2,1.6,0.5,2.2,1c0.3,0.2,0.6,0.6,0.8,0.8
							c0.2,0.3,0.4,0.7,0.6,1c-0.3-0.2-0.6-0.4-0.9-0.6L58,35.9c-0.1,0-0.1-0.1-0.2-0.1l-0.3,0c-0.6-0.3-1.3-0.5-1.9-0.7
							c-0.7-0.1-1.3-0.1-2-0.1C52.8,35.2,52.1,35.3,51.4,35.5z"/>
						<path class="st9" d="M48.5,38.4c-0.2,0.9-0.2,1.7-0.1,2.6c0,0.4,0.1,0.9,0.2,1.3c0.1,0.4,0.3,0.9,0.7,1.3
							c0.4,0.4,0.6,0.5,0.7,0.8c0.1,0.3,0,0.6-0.1,0.9c-0.4,0.6-1.1,1.1-1.9,1.4c0.8,0,1.8-0.2,2.4-1c0.3-0.4,0.5-0.9,0.4-1.5
							S50.4,43.4,50,43c-0.2-0.2-0.4-0.6-0.5-1c-0.2-0.4-0.2-0.8-0.4-1.2C48.8,40.1,48.6,39.3,48.5,38.4z"/>
						<path class="st10" d="M44.6,48.6c0,0,1.9-0.7,3.6,0.5c0,0,1.9-1.2,3.4,0c0,0-0.7,2.9-3.9,2.7C44.7,51.5,44.6,48.6,44.6,48.6z"
							/>
						<path class="st9" d="M43,47.5c0.3,0.3,0.7,0.6,1.1,0.8c0.4,0.2,0.8,0.5,1.2,0.7c0.8,0.4,1.7,0.6,2.6,0.7
							c0.9,0.1,1.8,0,2.6-0.3c0.9-0.3,1.7-0.7,2.4-1.2c-0.3,0.3-0.7,0.6-1.1,0.8c-0.4,0.2-0.8,0.4-1.2,0.6c-0.4,0.2-0.9,0.3-1.4,0.3
							c-0.5,0.1-0.9,0.1-1.4,0c-0.9-0.1-1.8-0.4-2.6-0.8C44.3,48.8,43.6,48.2,43,47.5z"/>
					</g>
					<path class="st0" d="M57.7,60c0,0,5.9-11.8,5.9-15.8c0-2.5,0-3.8,0-13.3c0-5.5-4.5-10.1-4.5-10.1c-0.6,0-1.5,6.9-12.2,9.8
						c-6.4,1.7-14.2-1.7-14.2,11.2c0,5.9,0.8,12.9,4,17.5c0,0-12.6-7.2-12.6-28c0-5.5,5.9-25.8,22-25.8c11.5,0,24.3,7.9,24.3,25.8
						C70.3,41.6,66.6,57.1,57.7,60z"/>
				</g>
				<path class="st5" d="M68.7,269.3l6.9,92.9c0.3,2.5-0.8,4.1-2.9,4.8c-1.8,0.6-5-0.5-5.7-2.5c-5.9-16.6-12.6-61.7-16.8-95.3h18.5
					V269.3z"/>
				<path class="st5" d="M45,269.8c0,0-2.7,64.8-3.7,95.2c-0.1,2.6-5.3,6.4-8.2,0c0,0-5.7-45-5.7-56.7c0-12.2-1.2-38.5-1.2-38.5H45z
					"/>
				<path class="st11" d="M67.5,150.4h-40c-1.7,2-14.2,17.6-10.7,51.7c3.1,30.4,8.8,80.4,8.8,80.4s14.3,3.2,21.9,3.2
					c8,0,22.6-3.2,22.6-3.2s4.9-50,8-80.4C81.7,168,69.3,152.4,67.5,150.4z"/>
				<path class="st5" d="M41.3,363.3c0,0,0.3,2-0.1,3.1c-1.5,4.5-5.9,14.7-8.4,18.7c-1.8,2.9-8.6,7.1-11.9,5.7
					c-2.8-1.1-3.4-6.2-1.5-10.3c1.9-4.1,13.4-17.3,13.4-17.3L41.3,363.3L41.3,363.3z"/>
				<path class="st12" d="M41.3,363.5L41.3,363.5c0.1,0.5,0.2,2-0.1,2.9c-1.1,3.4-4.2,10.3-6.4,14.9c-1.5,3.3-7.4,4.3-9.7,3.4
					c-2.8-1.1-3.5-6.2-1.5-10.3c0-0.1,0.1-0.1,0.1-0.2c-2,2.6-3.7,4.9-4.3,6.3c-1.9,4.1-1,9.4,1.7,10.5c0.3,0.1,0.7,0.2,1.1,0.2
					c3.4,1,9.4-2.6,12.2-6.9c2.5-3.9,6-12.2,7.4-16.7C42.6,365.7,41.3,363.5,41.3,363.5z"/>
				<path class="st5" d="M66.6,363.3c0,0-0.3,2,0.1,3.1c1.5,4.5,5.9,14.7,8.4,18.7c1.8,2.9,8.6,7.1,11.9,5.7
					c2.8-1.1,3.5-6.2,1.5-10.3c-1.9-4.1-12.8-17.3-12.8-17.3L66.6,363.3L66.6,363.3z"/>
				<path class="st12" d="M88.5,380.6c-0.7-1.4-2.3-3.8-4.3-6.4c0.3,0.5,0.6,1,0.8,1.4c1.9,4.1,1.3,9.1-1.5,10.3
					c-2.4,1-8.3-0.1-9.9-3.4c-2.1-4.2-5.7-12.3-6.9-16c-0.4-1.2-0.1-3.1-0.1-3.1s-1,2.9-0.4,4.4c1.7,4.5,5.1,12.1,7.2,16.3
					c2,3.8,8.3,7.7,11.8,7.1l0,0c0.6,0,1.3,0,1.8-0.2C89.7,389.7,90.4,384.7,88.5,380.6z"/>
				<g>
					<path class="st1" d="M55.5,61l17.3,7.4c0,0,1.7,1.3,2.4,4.6c0.5,2.5,3.6,32.7-5.7,64.8c-2.7,9.4,6.7,17.3,8,28.3
						c0,0-2.2,2.6-7.9,4c-2.4,0.6-9.7-0.1-9.7-0.1L55.5,61z"/>
					<path class="st1" d="M39.8,61l-14.6,6.1c0,0-1.7,1.3-2.4,4.6c-0.5,2.4-4.7,29.8,1.7,63.9c2,10.9-5.8,22.3-6.4,30.5
						c0,0,2.4,2.4,8.1,3c2.3,0.2,9.3-1,9.3-1L39.8,61z"/>
					<polygon class="st13" points="55.2,61 63.5,70.7 59.5,74.7 67.5,90.1 58.5,135.5 					"/>
					<polygon class="st13" points="40.1,61.2 31.5,70.6 35.8,74.9 29.8,90.2 36.8,135.7 					"/>
				</g>
				<g>
					<path class="st14" d="M47.8,68.4c0,0,8.1-4,13-2.6c0,0-0.3-5-5.3-6V61L47.8,68.4z"/>
					<path class="st14" d="M47.8,68.4c0,0-8.1-4-13-2.6c0,0,0.1-5,5-6V61L47.8,68.4z"/>
				</g>
				<g>
					<path class="st14" d="M47.8,68.4c0.3,6.8,0.4,13.7,0.5,20.5s0.1,13.7,0.2,20.5c-0.1,6.8,0,13.7-0.1,20.5
						c-0.1,6.8-0.2,13.7-0.5,20.5c-0.3-6.8-0.4-13.7-0.5-20.5s-0.1-13.7-0.1-20.5c0.1-6.8,0-13.7,0.2-20.5
						C47.4,82.1,47.5,75.2,47.8,68.4z"/>
				</g>
				<g>
					
						<rect x="43.5" y="89" transform="matrix(0.849 -0.5284 0.5284 0.849 -55.6535 52.381)" class="st15" width="40.6" height="69.1"/>
					<g>
						<g>
							<path class="st16" d="M55.9,101.6c0.3-0.4,0.9-0.6,1.5-0.6c0.2,0,0.4,0.1,0.5-0.1c0.4-0.4,0.7-0.9,1.1-1.3
								c0.5-0.4,1.2-0.5,1.8-0.2c0.7,0.3,1.2,1,1.2,1.8c0,0.3-0.1,0.7-0.2,1c0.5-0.5,1.2-0.9,1.9-1.1c0.6-0.1,1.2,0.1,1.6,0.5
								c0.4,0.5,0.7,1.1,0.6,1.7c0,0.5-0.3,0.9-0.3,1.4c0.1,0.2,0.3,0.3,0.5,0.5c0.4,0.3,0.6,0.8,0.9,1.2c0.2,0.4,0.3,0.9,0.3,1.3
								c0,0.6-0.3,1.1-0.7,1.4c0.1,0,0.2,0,0.4,0c0.1,0.1,0.3,0.1,0.5,0.2c0.3,0.1,0.6,0.2,0.9,0.3c0.4,0.2,0.9,0.4,1.3,0.7
								c0-0.3-0.3-0.5-0.5-0.7c-0.1-0.2-0.1-0.3-0.2-0.5c0.1,0.1,0.2,0.1,0.2,0.2c0.1,0.2,0.2,0.4,0.4,0.6c0.2,0.1,0.1,0.3,0.2,0.5
								c0.1,0.1,0.1,0.2,0.2,0.3c0-0.2,0-0.3,0-0.5c0.1-0.1,0.2-0.2,0.4-0.2c0.4-0.1,0.7-0.4,1-0.7c0.1,0,0.2,0,0.3-0.1
								c0,0.1-0.1,0.1-0.1,0.2c-0.1,0.2-0.3,0.3-0.5,0.5c-0.3,0.2-0.6,0.2-0.8,0.3c-0.1,0.2,0,0.4,0,0.6c1.6,1.2,2.7,3,3.1,5
								c0.3-0.2,0.5-0.5,0.8-0.7c0.2-0.2,0.5-0.1,0.6,0.1c0.3,0.3,0.5,0.7,0.7,1c-0.1-0.6,0-1.3,0.4-1.8c0.3-0.4,0.7-0.7,1.1-0.8
								c0.4-0.1,0.9,0,1.1,0.4c0.5,0.6,0.5,1.4,0.2,2c0.2-0.1,0.5-0.1,0.6,0.1s0.2,0.5,0.2,0.8c0,0.5-0.2,1-0.6,1.3
								s-0.8,0.5-1.3,0.5c-0.2,0-0.4-0.1-0.6-0.1c-0.1,0.3-0.2,0.6-0.4,0.9c-0.4,0.5-1.1,1-1.8,0.9c-0.3,0.6-1,1.2-1.7,1.1
								c-0.1,0.2-0.2,0.3-0.3,0.5c0.2,0.5,0.3,1,0.3,1.4c-0.1,0.7-0.7,1.3-1.4,1.4c-0.4,0.1-0.8-0.1-1.1-0.4
								c-0.4,0.3-0.8,0.6-1.2,0.9c-0.3,0.2-0.6,0.4-0.9,0.7c-0.5,0.4-0.9,1.1-1.2,1.7c-0.6,1.1-0.9,2.5-0.7,3.8
								c0.2-0.1,0.4-0.1,0.5-0.2c0.3-0.5,0.9-0.8,1.5-0.9c0.3,0,0.6-0.1,0.8,0.1c0.2,0.1,0.3,0.1,0.5,0.2c0.3,0.1,0.6,0.2,0.9,0.4
								v0.1c0.4,0.2,0.7,0.5,1,0.8c0,0.1,0,0.1,0,0.2c0.4,0.5,0.7,1,1,1.5c-0.5-0.2-0.9-0.4-1.4-0.4c-0.1,0-0.2,0.1-0.3,0.1
								c-0.3,0-0.5,0-0.8,0c-0.1,0-0.1,0.1-0.2,0.1c-0.3,0-0.6-0.1-0.8,0.1c-0.7,0-1.5-0.3-1.9-0.8c-0.2-0.2-0.3-0.4-0.4-0.6
								c-0.1-0.1-0.2,0-0.3,0c0.3,1.2,0.9,2.4,1.8,3.3c0.6,0.5,1.2,1,2,1.2c1.4,0.4,2.8,0.3,4.2-0.2c0.7-0.2,1.3-0.4,1.9-0.7
								c0.2-0.1,0.3-0.1,0.4-0.2c0.2-0.1,0.3-0.1,0.5-0.1c-0.1,0.2-0.3,0.3-0.5,0.5c0.1,0,0.2,0,0.3,0.1c0.7,0.2,1.3,0.9,1.3,1.7
								c0,0.6-0.3,1.2-0.8,1.5c-2.1,1.3-4.4,2.1-6.8,2.4c-1.8,0.2-3.7,0.2-5.5-0.1c-2.1-0.4-4.1-1.2-6-2.3c-2.2-1.3-4-3.2-5.4-5.3
								c-1,0.6-2.1,1.3-3.1,1.9c-0.3,0.2-0.6,0.2-0.9,0.1c-0.5-0.2-0.8-0.7-0.8-1.2c0-0.4,0.2-0.7,0.5-0.9c1.1-0.7,2.1-1.3,3.2-2
								c-0.1-0.2-0.1-0.3-0.2-0.5c-1,0.6-1.9,1.2-2.9,1.8c-0.2,0.1-0.4,0.3-0.6,0.3c-0.3,0.1-0.6,0.1-0.9-0.1
								c-0.5-0.3-0.7-0.8-0.6-1.4c0.1-0.3,0.3-0.5,0.5-0.7c1.2-0.8,2.4-1.5,3.6-2.3c-1.1-3.9-0.7-8.2,1-11.8
								c0.6-1.4,1.5-2.8,2.5-3.9c-0.7-0.2-1.3-0.8-1.4-1.5c-0.1-0.5,0.1-0.9,0.1-1.4c0-0.4-0.4-0.7-0.6-1c-0.5-0.7-0.6-1.6-0.3-2.3
								c0.2-0.5,0.4-0.9,0.9-1.1c0.6-0.3,1.3-0.4,1.9-0.3c0.3,0.1,0.7,0.1,1,0.2c-0.7-0.6-1.2-1.5-1.3-2.5
								C55.5,102.6,55.6,102.1,55.9,101.6 M56,102c-0.4,0.8-0.2,1.7,0.2,2.4c0.5,0.9,1.4,1.4,2.1,2c-0.6-0.2-1.2-0.4-1.8-0.5
								c-0.3,0-0.6-0.1-0.8-0.2c-0.5-0.1-1.1,0-1.5,0.2s-0.6,0.6-0.8,1c-0.2,0.6-0.2,1.4,0.2,2c0.2,0.4,0.6,0.7,0.7,1.2
								c0.1,0.4-0.1,0.7-0.1,1.1c-0.1,0.7,0.3,1.4,0.9,1.7c0.4,0.1,0.9,0.2,1.2,0c0.4-0.3,0.6-0.7,0.7-1.2c0.1-0.5,0.4-0.9,0.6-1.3
								c0.2-0.5,0.5-1.1,0.9-1.5c0.2-0.1,0.4-0.3,0.6-0.3c-0.6,1.3-1.3,2.7-1.5,4.1c-0.1,0.5-0.1,1.1,0.2,1.6
								c0.2,0.3,0.6,0.6,0.9,0.6c0.6,0.1,1.1-0.2,1.5-0.6c0.2-0.2,0.3-0.4,0.4-0.6c0.2,0.1,0.4,0.3,0.7,0.4c0.2,0.1,0.5,0.1,0.7,0.1
								c0.5,0,1.1-0.2,1.4-0.6c0.5-0.5,0.7-1.2,0.7-1.8c-0.1-0.9-0.5-1.6-1-2.3c-0.4-0.5-0.9-0.9-1.4-1.3c-0.2-0.2-0.5-0.3-0.7-0.4
								c0.3,0,0.6,0.1,0.9,0.3c0.4,0.2,0.8,0.3,1.2,0.6c0.4,0.3,0.8,0.7,1.3,1c0.4,0.3,1,0.4,1.4,0.2c0.5-0.3,1-0.7,1.1-1.3
								c0.1-0.4,0-0.9-0.2-1.3c-0.3-0.5-0.6-1-1-1.4c-0.2-0.2-0.4-0.3-0.4-0.6c0-0.6,0.4-1.1,0.3-1.7c0-0.4-0.2-0.9-0.5-1.2
								c-0.3-0.4-0.8-0.6-1.3-0.5c-0.7,0.2-1.4,0.6-1.9,1.1c-0.4,0.4-0.7,1-1,1.5s-0.3,1.1-0.8,1.5c-0.1-0.2-0.1-0.4-0.1-0.7
								c0.1-0.7,0.5-1.2,0.9-1.8c0.3-0.5,0.7-0.9,0.8-1.4c0.1-0.8-0.4-1.7-1.2-2c-0.5-0.1-1,0-1.4,0.3c-0.4,0.4-0.7,0.9-1.1,1.3
								c-0.2,0.2-0.5,0.1-0.8,0.1C56.8,101.3,56.3,101.5,56,102 M57.6,110.7c0.1-0.1,0.2-0.1,0.2-0.3c0.1-0.4,0.3-0.8,0.5-1.2
								C58,109.8,57.8,110.3,57.6,110.7 M57.2,112c-0.2,0.4-0.4,0.8-0.8,1c-0.1,0.1-0.3,0.1-0.5,0.2c-2.9,3.3-4.4,7.7-4.2,12.1
								c0,0.3,0,0.6,0.1,0.9c0,0.1,0,0.2,0,0.3c0.1,0.7,0.2,1.5,0.5,2.2c0,0.1,0.1,0.3,0.1,0.4c-1.3,0.8-2.7,1.7-4,2.5
								c-0.1,0.1-0.2,0.1-0.2,0.2c-0.2,0.3,0,0.8,0.4,0.9c0.2,0.1,0.4,0,0.5-0.1c1.2-0.8,2.5-1.5,3.7-2.3c0.1,0.1,0.1,0.3,0.2,0.4
								c0,0.1,0.1,0.2,0.1,0.2c0.1,0.3,0.3,0.6,0.4,0.9c-1.2,0.7-2.3,1.4-3.5,2.2c-0.1,0.1-0.2,0.1-0.3,0.2c-0.3,0.4,0.1,1,0.5,1
								l0,0c0.1,0,0.2-0.1,0.3-0.1c1.2-0.7,2.4-1.5,3.6-2.2c0.1,0.2,0.2,0.4,0.4,0.6c0.2,0.4,0.6,0.8,0.9,1.2
								c0.2,0.3,0.5,0.6,0.8,0.9c0.2,0.2,0.4,0.4,0.6,0.6c0.7,0.7,1.5,1.3,2.3,1.9c0.6,0.4,1.2,0.8,1.9,1.1c0.3,0.2,0.7,0.3,1.1,0.5
								c0.5,0.2,1.1,0.4,1.6,0.6c0.6,0.2,1.3,0.4,2,0.5s1.3,0.2,2,0.2c0.9,0.1,1.8,0,2.7-0.1c0.6-0.1,1.3-0.2,1.9-0.3
								c1.2-0.3,2.4-0.7,3.5-1.2c0.6-0.3,1.2-0.6,1.8-1c0.5-0.4,0.6-1.3,0.1-1.8c-0.4-0.3-0.9-0.4-1.3-0.2s-0.8,0.5-1.2,0.7
								c-0.2,0.1-0.4,0.2-0.6,0.3c-0.9,0.4-1.7,0.7-2.6,0.9s-1.8,0.3-2.7,0.4c-0.6,0-1.2,0-1.8,0c-0.8-0.1-1.7-0.2-2.5-0.4
								c-0.4-0.1-0.8-0.2-1.2-0.4c-0.5-0.2-0.9-0.4-1.4-0.6c-0.5-0.2-1-0.5-1.5-0.8c-0.9-0.6-1.7-1.3-2.5-2.1
								c-0.2-0.2-0.4-0.5-0.6-0.7c-0.4-0.6-0.9-1.1-1.2-1.7c-0.1-0.1-0.1-0.2-0.2-0.3c0.1,0,0.2-0.1,0.3-0.1
								c1.2-0.7,2.4-1.5,3.5-2.2c0.2-0.1,0.3-0.4,0.3-0.6c-0.1-0.3-0.5-0.6-0.8-0.4c-1.3,0.8-2.5,1.6-3.8,2.3
								c-0.1-0.1-0.1-0.2-0.2-0.3c-0.1-0.3-0.3-0.6-0.4-1c0-0.1,0-0.2-0.2-0.3h0.1c1.2-0.7,2.3-1.4,3.4-2.1c0.2-0.1,0.3-0.4,0.3-0.7
								c-0.1-0.3-0.4-0.5-0.7-0.4l0,0c-0.2,0.1-0.3,0.2-0.5,0.3c-0.8,0.5-1.6,1-2.4,1.5c-0.2,0.1-0.4,0.2-0.5,0.3
								c-0.1-0.5-0.2-1-0.3-1.4c-0.1-1.1-0.2-2.2-0.1-3.3c0.1-1.4,0.4-2.8,1-4.2c0.7-1.6,1.6-3.2,2.8-4.5c-0.2-0.3-0.4-0.6-0.5-1
								c-0.1-0.6,0-1.3,0.1-1.9C57.4,111.7,57.2,111.8,57.2,112 M63.9,109.9c0.2-0.1,0.4-0.1,0.7-0.2c-0.7-0.4-1.2-1-1.9-1.4
								C63.2,108.9,63.6,109.4,63.9,109.9 M64.2,110.5c0.1,0.4,0.2,0.7,0.2,1.1c0,0.8-0.3,1.6-0.9,2c-0.5,0.4-1.1,0.6-1.7,0.5
								c-0.3-0.1-0.7-0.1-1-0.4c-0.2,0.4-0.6,0.7-1,0.9c-0.4,0.2-0.9,0.2-1.4,0.1c-1.3,1.3-2.2,2.9-2.9,4.6
								c-0.4,1.1-0.6,2.1-0.8,3.3c-0.1,1.4-0.1,2.8,0.2,4.2c0.9-0.5,1.7-1.1,2.6-1.6c0.4-0.2,0.8-0.2,1.2,0c0.5,0.3,0.7,1,0.5,1.5
								c-0.2,0.3-0.5,0.5-0.8,0.7c-0.9,0.6-1.8,1.1-2.8,1.7c0.1,0.2,0.1,0.3,0.2,0.5c1.1-0.7,2.1-1.3,3.2-2c0.4-0.3,1-0.2,1.4,0.2
								c-0.3-0.9-0.7-1.9-1-2.8c-0.1-0.2,0-0.5,0.2-0.6c0.4-0.2,0.7-0.5,1.1-0.7c0.3-0.3,0.7-0.6,1.2-0.6s0.8,0.3,1,0.7
								c-0.1-0.7,0.1-1.5,0.6-2c0.4-0.4,1-0.7,1.5-0.6c0-0.2,0-0.4,0.2-0.5c0.3-0.2,0.7-0.4,1-0.6c0.1-0.1,0.2-0.1,0.3-0.1
								c0.2-0.2,0.5-0.5,0.8-0.5c0.2,0,0.4,0,0.6,0.1c0.1-0.5,0.5-1,1-1.3c0.1-0.1,0.2-0.1,0.4-0.2c0.4-0.3,0.7-0.5,1.1-0.7
								c0.1-0.1,0.2-0.1,0.4,0c0-0.1,0.1-0.2,0.1-0.3c-0.5-0.2-0.7-0.8-0.5-1.3c0.1-0.4,0.5-0.7,1-0.7V115h0.1
								c-0.1-0.2-0.2-0.3-0.4-0.4v-0.1h0.1c-0.1-0.1-0.1-0.3-0.2-0.3c0,0,0.1-0.1,0.1-0.2l0,0c-0.7-1.7-2.1-3.1-3.8-3.8
								C66.3,110.4,65.2,110.3,64.2,110.5 M71,116.1c-0.3,0.4,0,1,0.4,1s0.8-0.5,0.6-0.9C71.8,115.8,71.2,115.7,71,116.1
								 M73.5,116.3c0.2,0.7,0.3,1.4,0.4,2.1c0,0.2,0,0.3,0,0.5c-0.1,0.2,0,0.5,0.1,0.7c0,0.2-0.2,0.4-0.4,0.5
								c-0.1,0-0.2-0.1-0.2-0.1c-0.2-0.6-0.4-1.1-0.6-1.7c-0.1-0.3-0.2-0.7-0.4-1c-0.3,0.2-0.6,0.4-0.9,0.6c0.2,0.5,0.4,1,0.6,1.5
								l0,0c0.1,0.4,0.3,0.7,0.4,1.1s0,0.8-0.3,1.2c-0.1-0.2-0.1-0.3-0.2-0.5c-0.1-0.3-0.2-0.7-0.4-0.9c0-0.1,0-0.2,0-0.2
								c-0.2-0.6-0.4-1.2-0.6-1.7c-0.3,0.2-0.6,0.4-0.9,0.6c0,0.1,0.1,0.2,0.1,0.3c-0.1-0.1-0.3-0.2-0.4-0.1l0,0
								c-0.4,0.1-0.7,0.4-0.9,0.8c-0.2,0.5-0.2,1-0.2,1.5c0.1,0.6,0.3,1.2,0.8,1.6c0.2,0.1,0.4,0.3,0.6,0.3c0.5,0,1-0.4,1.1-1
								c0,0.1,0.1,0.2,0.1,0.3c-0.3,0.3-0.5,0.7-0.6,1.1c0,0.3,0.1,0.6,0.4,0.8c0.5,0.2,1-0.1,1.2-0.5c0.3-0.3,0.3-0.8,0.2-1.2
								c-0.1-0.3-0.2-0.5-0.3-0.8c0.3-0.3,0.5-0.7,0.5-1.1c0.2,0.2,0.4,0.3,0.7,0.2c0.5-0.1,0.9-0.6,1-1.2c0.1,0.1,0.3,0.1,0.4,0.1
								c0.7,0,1.3-0.5,1.5-1.2c0.1-0.3,0.3-0.6,0.4-0.9c0.1,0.1,0.2,0.2,0.3,0.3c0.2,0.2,0.5,0.2,0.8,0.1c0.4-0.1,0.8-0.4,1-0.8
								c0.2-0.3,0.1-0.8,0-1.1c-0.1,0.3-0.3,0.7-0.7,0.9c-0.2,0.1-0.3,0-0.5-0.1c-0.1-0.1-0.2-0.3-0.3-0.4c0.6-0.4,1-1.1,0.8-1.9
								c-0.1-0.3-0.2-0.6-0.5-0.7c-0.2-0.1-0.4-0.1-0.5,0c-0.5,0.2-1,0.7-1.1,1.2c-0.2,0.7,0,1.4,0.3,2c0,0.1,0.1,0.2,0.1,0.2
								c-0.1,0.2-0.1,0.3-0.2,0.5c-0.1-0.3-0.3-0.6-0.5-0.8c-0.4-0.6-0.8-1.1-1.2-1.7C74.1,115.8,73.8,116,73.5,116.3 M60.9,124.7
								c0-0.1-0.1-0.2-0.1-0.4c-0.3,0.2-0.6,0.4-0.9,0.6c0.2,0.5,0.3,1,0.5,1.5c0.2,0.7,0.5,1.5,0.8,2.2c0.3-0.2,0.6-0.4,0.9-0.6
								c-0.3-0.8-0.6-1.6-0.8-2.3c-0.1-0.3-0.2-0.7,0.1-0.9c0.1-0.1,0.3,0,0.4,0c0.3,0.4,0.4,0.9,0.5,1.3s0.3,0.8,0.7,1
								c0.3,0.2,0.7,0,1-0.2c0.3-0.2,0.4-0.6,0.4-1c0.2,0.1,0.3,0.2,0.5,0.2l0,0l0,0c0.3,0,0.7-0.2,0.9-0.4c0.5-0.4,0.7-0.9,0.8-1.5
								c0,0.1,0.1,0.2,0.1,0.2c0.1,0.2,0.1,0.4,0.2,0.6c0.3-0.2,0.6-0.4,0.9-0.6c-0.1-0.4-0.3-0.8-0.5-1.3c-0.1-0.4-0.3-0.8-0.4-1.3
								c0-0.1-0.1-0.2-0.1-0.4c0.1-0.2,0.2-0.4,0.4-0.5c0.1,0.1,0.2,0.3,0.4,0.3c0.3,0,0.5-0.4,0.4-0.7c-0.1-0.3-0.4-0.5-0.7-0.4
								c-0.4,0.2-0.5,0.6-0.6,0.9c-0.1-0.1-0.1-0.3-0.2-0.4c-0.3,0.2-0.6,0.4-0.9,0.6c0.2,0.4,0.3,0.8,0.4,1.2
								c0.1,0.4,0.3,0.7,0.4,1.1c0,0.3-0.1,0.6-0.3,0.9c-0.2,0.3-0.5,0.6-0.9,0.6c-0.3-0.1-0.4-0.4-0.6-0.6c0.5-0.3,0.8-0.9,0.8-1.4
								c0-0.4-0.1-0.9-0.5-1.2c-0.4-0.2-0.7,0.1-1,0.3c-0.5,0.4-0.7,1-0.6,1.6c0,0.4,0.1,0.7,0.2,1c0.1,0.2,0.2,0.4,0.3,0.7
								c0,0.2,0,0.5-0.2,0.6c-0.1,0.1-0.3,0.1-0.4-0.1c-0.2-0.2-0.2-0.5-0.3-0.7c0-0.1-0.1-0.2-0.1-0.4c-0.1-0.4-0.3-0.9-0.6-1.2
								c-0.3-0.2-0.6-0.1-0.8,0C61.1,124,60.9,124.3,60.9,124.7 M67.3,121.7c0.2,0.6,0.5,1.3,0.7,2c0.3-0.2,0.6-0.4,0.8-0.6
								c-0.4-0.4-0.6-0.9-0.8-1.5C67.9,121.8,67.6,121.8,67.3,121.7 M62.5,127.9c0.1,0.2,0,0.4-0.2,0.5c-0.3,0.2-0.7,0.4-1,0.6
								c-0.2,0.1-0.4,0-0.5-0.1c-0.1,0.3-0.2,0.7-0.5,0.8c-1.1,0.7-2.2,1.4-3.3,2.1c0.7,1.1,1.6,2.1,2.7,3c3.1,2.6,7.3,3.7,11.2,3
								c-0.4,0-0.9-0.1-1.3-0.2c-0.8-0.2-1.5-0.7-2.2-1.2c-1.1-0.9-1.9-2.2-2.4-3.6c-0.1-0.2-0.1-0.4-0.3-0.4c0-0.1,0-0.2,0-0.3h0.1
								c0-0.3-0.4-0.4-0.5-0.7c0.1,0.1,0.2,0.2,0.3,0.2c0-0.3-0.1-0.5-0.1-0.8c-0.1-1.6,0.3-3.2,1-4.5c-0.3,0.1-0.6,0.2-0.9,0.1
								c-0.2,0.6-0.7,1.1-1.4,1.1c-0.4,0-0.8-0.2-1.1-0.5C62.3,127.4,62.4,127.6,62.5,127.9 M66.9,131.3c-0.1,0.2-0.4,0.2-0.5,0.3
								c0,0.1,0,0.1,0,0.2c0.1,0,0.3-0.1,0.4,0.1c0.2,0.3,0.3,0.6,0.6,0.8c0.4,0.4,0.9,0.6,1.5,0.6l0.1-0.1c0.3,0,0.6,0,0.9-0.1
								c0.3,0,0.6,0,0.9,0V133c0.4,0,0.8,0.1,1.2,0.2c-0.2-0.4-0.5-0.8-0.8-1.1V132c-0.3-0.3-0.6-0.5-1-0.7c0,0,0-0.1-0.1-0.1
								c-0.4-0.3-0.8-0.4-1.3-0.4c0-0.2-0.2-0.1-0.4-0.1C68,130.5,67.3,130.7,66.9,131.3z"/>
							<path class="st16" d="M76.9,114.9c0-0.1,0.1-0.3,0.3-0.3c0.2,0.1,0.2,0.3,0.3,0.5c0.1,0.5,0,1.1-0.4,1.4
								c0-0.1-0.1-0.3-0.1-0.4C76.8,115.7,76.8,115.3,76.9,114.9z"/>
							<path class="st16" d="M69.4,119.7c0-0.2,0.2-0.3,0.3-0.4c0.1,0,0.3,0,0.3,0.1c0.2,0.5,0.4,1.1,0.6,1.7
								c0.1,0.3,0.1,0.7-0.2,0.9c-0.1,0.1-0.3,0.1-0.4,0.1c-0.4-0.3-0.5-0.8-0.6-1.2C69.3,120.4,69.3,120,69.4,119.7z"/>
						</g>
						<g>
							<path class="st17" d="M56,102c0.2-0.5,0.7-0.7,1.2-0.7c0.3,0,0.6,0.1,0.8-0.1c0.4-0.4,0.7-0.9,1.1-1.3
								c0.4-0.3,0.9-0.4,1.4-0.3c0.8,0.3,1.3,1.2,1.2,2c-0.1,0.6-0.5,1-0.8,1.4c-0.4,0.5-0.8,1.1-0.9,1.8c0,0.2,0,0.5,0.1,0.7
								c0.4-0.4,0.5-1,0.8-1.5s0.6-1,1-1.5c0.5-0.5,1.2-1,1.9-1.1c0.5-0.1,1,0.1,1.3,0.5c0.3,0.4,0.5,0.8,0.5,1.2
								c0,0.6-0.3,1.1-0.3,1.7c0,0.3,0.3,0.4,0.4,0.6c0.4,0.4,0.8,0.9,1,1.4c0.1,0.4,0.2,0.9,0.2,1.3c-0.1,0.6-0.6,1.1-1.1,1.3
								c-0.4,0.2-1,0.1-1.4-0.2c-0.4-0.3-0.8-0.7-1.3-1c-0.4-0.3-0.8-0.4-1.2-0.6c-0.3-0.1-0.6-0.3-0.9-0.3c0.2,0.2,0.5,0.3,0.7,0.4
								c0.5,0.4,1,0.8,1.4,1.3c0.5,0.7,1,1.4,1,2.3c0.1,0.7-0.2,1.4-0.7,1.8c-0.4,0.4-0.9,0.6-1.4,0.6c-0.2,0-0.5-0.1-0.7-0.1
								c-0.3-0.1-0.5-0.2-0.7-0.4c-0.1,0.2-0.2,0.5-0.4,0.6c-0.4,0.4-0.9,0.7-1.5,0.6c-0.4,0-0.7-0.3-0.9-0.6
								c-0.3-0.5-0.3-1-0.2-1.6c0.2-1.5,0.8-2.8,1.5-4.1c-0.2,0-0.4,0.1-0.6,0.3c-0.4,0.4-0.7,1-0.9,1.5c-0.2,0.4-0.4,0.9-0.6,1.3
								c-0.1,0.4-0.4,0.9-0.7,1.2c-0.4,0.3-0.8,0.2-1.2,0c-0.6-0.3-1-1-0.9-1.7c0-0.4,0.2-0.7,0.1-1.1c-0.1-0.5-0.5-0.8-0.7-1.2
								c-0.3-0.6-0.4-1.3-0.2-2c0.2-0.4,0.4-0.8,0.8-1c0.5-0.3,1-0.3,1.5-0.2c0.3,0.1,0.6,0.1,0.8,0.2c0.6,0.1,1.2,0.4,1.8,0.5
								c-0.8-0.6-1.7-1.1-2.1-2C55.8,103.6,55.7,102.7,56,102 M58.1,104.1c0.1,0.5,0.3,0.9,0.5,1.3c0.3,0.5,0.7,0.8,0.9,1.3
								c0.1,0.1-0.1,0.3-0.2,0.3c-0.6,0-1.2-0.1-1.8,0c-0.7,0.1-1.4,0.6-1.9,1.2c0.2-0.2,0.4-0.3,0.7-0.5c0.5-0.3,1.2-0.5,1.9-0.4
								c-0.4,0.2-0.8,0.6-1,1c0.2-0.2,0.4-0.5,0.7-0.6c0.6-0.4,1.4-0.5,2.1-0.2c-0.1,0.3-0.3,0.7-0.4,1.1c-0.2,1-0.2,2,0.3,2.9
								c0-0.1,0-0.3-0.1-0.4c-0.1-0.5-0.2-1-0.1-1.5c0-0.4,0.1-0.8,0.3-1.2c0.2,0.4,0.5,1,1,1.1c-0.3-0.3-0.6-0.7-0.7-1.2
								c-0.1-0.3-0.1-0.7-0.1-1c0-0.2,0.1-0.4,0.3-0.6c0.4-0.4,0.7-0.8,1.2-1.1c0.5-0.3,1.1-0.5,1.6-0.5c-0.7-0.1-1.5,0-2.1,0.5
								c-0.2,0.2-0.4,0.4-0.6,0.6c0-0.6,0.4-1,0.8-1.4c-0.3,0.2-0.5,0.4-0.7,0.6c-0.3,0.4-0.5,0.9-0.7,1.4c-0.4-0.3-0.7-0.7-0.9-1.2
								s-0.1-1.1,0-1.6c-0.1,0.2-0.2,0.4-0.3,0.6s-0.1,0.5-0.1,0.8c-0.5-0.7-0.7-1.6-0.6-2.5C58.1,103.2,58.1,103.7,58.1,104.1z"/>
							<path class="st17" d="M70.2,106.5c0.2-0.2,0.5-0.5,0.7-0.7H71c0.4-0.2,0.8-0.4,1.2-0.6c-0.2,0.3-0.3,0.7-0.4,1.1l0.1,0.1
								c0,0.3-0.1,0.5-0.1,0.8c0.1,0.2,0,0.4,0,0.6s0,0.4,0,0.6c-0.1,0.3-0.2,0.6-0.4,0.8c-0.3,0.3-0.6,0.6-1,0.7
								c-0.1,0-0.3,0.1-0.4,0.2c-0.1,0.2,0,0.3,0,0.5c-0.1-0.1-0.2-0.2-0.2-0.3c-0.1-0.2,0-0.4-0.2-0.5c-0.2-0.2-0.3-0.4-0.4-0.6
								c-0.2-0.5-0.2-1-0.1-1.5l0.1-0.1c0.1-0.4,0.3-0.7,0.5-1C69.9,106.7,70.1,106.6,70.2,106.5 M70.6,107.5
								c-0.1,0.3-0.3,0.5-0.4,0.8c-0.1-0.2-0.1-0.5-0.2-0.8c0,0.3,0.1,0.6,0.2,0.9c-0.1,0.3-0.1,0.6-0.3,0.9
								c-0.1-0.1-0.2-0.3-0.4-0.4c0.1,0.2,0.3,0.4,0.4,0.5c0,0.1,0,0.2,0,0.3c0-0.1,0-0.1,0.1-0.2c0.5-0.1,0.9-0.2,1.3-0.6
								c-0.2,0.1-0.4,0.2-0.6,0.3c-0.2,0.1-0.5,0.2-0.7,0.2c0.1-0.3,0.2-0.6,0.3-1c0.4-0.1,0.7-0.2,1-0.5c-0.3,0.1-0.6,0.3-0.9,0.4
								c0,0,0,0-0.1,0c0.1-0.3,0.3-0.7,0.5-1c0.3-0.1,0.5-0.2,0.8-0.4c-0.2,0.1-0.5,0.2-0.7,0.3c0.1-0.3,0.3-0.6,0.5-0.9
								c-0.2,0.3-0.4,0.6-0.6,0.8c-0.1-0.2-0.1-0.4-0.1-0.6C70.6,106.9,70.7,107.2,70.6,107.5z"/>
							<path class="st17" d="M67.2,114.2c0.4-0.3,0.8-0.4,1.3-0.5c0.1-0.1,0.1-0.1,0.2-0.1c0.5,0,1.1,0.1,1.5,0.4
								c0.3,0.2,0.3,0.6,0.7,0.6c0.1,0,0.2,0.2,0.2,0.3H71c-0.1,0-0.3,0-0.4,0c-0.1,0.2-0.2,0.4-0.3,0.5c-0.4,0.6-1.1,0.9-1.8,1
								c-0.3-0.2-0.6-0.1-0.9-0.1l-0.1-0.1c-0.3,0-0.6,0-0.9,0l-0.1-0.1c-0.4,0-0.8,0.1-1.2,0.2c0.2-0.4,0.5-0.8,0.8-1.1v-0.1
								c0.3-0.3,0.6-0.5,1-0.7C67.2,114.3,67.2,114.2,67.2,114.2 M67,114.9c0.2,0.1,0.4,0.1,0.5,0.2c-0.3,0.2-0.6,0.2-0.9,0.5
								c0.3-0.1,0.6-0.3,0.9-0.4c-0.1,0.2-0.2,0.4-0.3,0.7c0.2-0.2,0.3-0.5,0.5-0.7c0.4-0.1,0.7-0.2,1.1-0.3
								c-0.1,0.3-0.3,0.6-0.5,0.8c0.3-0.2,0.4-0.6,0.6-0.9c0.3-0.1,0.6-0.1,1-0.1c-0.1,0.5-0.4,0.9-0.7,1.2c0.4-0.3,0.7-0.7,0.8-1.2
								c0.1,0,0.1,0,0.2,0c-0.3,0-0.4-0.4-0.7-0.5c0.1,0.1,0.2,0.3,0.4,0.4c-0.3,0-0.6,0.1-0.9,0.1c-0.3-0.1-0.5-0.3-0.9-0.3
								c0.2,0.1,0.5,0.2,0.7,0.3c-0.3,0.1-0.7,0.2-1,0.3C67.5,115,67.3,114.9,67,114.9z"/>
							<path class="st17" d="M59.5,131.3c0.2-0.1,0.4-0.2,0.5-0.5c0.3-0.2,0.7-0.3,1.1-0.4c0.1,0,0.1-0.1,0.2-0.1
								c0.3-0.1,0.7-0.1,1.1-0.1c0.2,0,0.4-0.1,0.5,0c0.6,0.2,1.2,0.6,1.4,1.2c0,0.3,0.5,0.4,0.5,0.7h-0.1c-0.1,0-0.3-0.1-0.4-0.1
								c-0.1,0.1-0.2,0.2-0.3,0.2c-0.4,0.5-1.1,0.7-1.7,0.6c-0.2,0-0.3,0-0.5-0.1s-0.4-0.2-0.5-0.2c-0.2-0.1-0.3-0.2-0.4-0.2
								c-0.2-0.1-0.3-0.1-0.5-0.2c-0.1-0.1-0.2-0.2-0.4-0.2c-0.3-0.1-0.6-0.1-0.9-0.1c0,0,0,0,0-0.1
								C59.2,131.6,59.4,131.4,59.5,131.3 M60.8,130.9c0.1,0.1,0.3,0.1,0.4,0.3v0.1c-0.3,0.1-0.6,0-0.8,0.1c0.3,0,0.6-0.1,1,0
								c-0.1,0.2-0.4,0.3-0.5,0.5c0.2-0.1,0.3-0.2,0.5-0.3c0.1-0.1,0.2-0.2,0.3-0.2c0.3,0,0.7,0,1,0c-0.2,0.3-0.5,0.5-0.8,0.8
								c0.3-0.2,0.6-0.5,0.9-0.7c0.3,0,0.7,0.1,1,0.2c-0.1,0.1-0.2,0.3-0.3,0.4c-0.2,0.2-0.5,0.4-0.8,0.6c0.5-0.2,0.8-0.5,1.1-0.9
								c0.1,0,0.1,0,0.2,0c-0.3-0.1-0.3-0.5-0.5-0.7c0.1,0.2,0.1,0.3,0.2,0.5c-0.2,0.1-0.3,0-0.5,0s-0.4,0-0.5-0.2
								c-0.2-0.2-0.4-0.3-0.6-0.4c0.2,0.2,0.4,0.3,0.5,0.5c-0.3,0-0.6,0-0.9,0C61.3,131.3,61.1,131,60.8,130.9z"/>
							<path class="st17" d="M66.9,131.3c0.3-0.6,1-0.8,1.7-0.8c0.1,0,0.3,0,0.4,0.1c0.4,0.1,0.9,0.2,1.3,0.4c0,0,0,0.1,0.1,0.1
								c0.4,0.2,0.7,0.5,1,0.7v0.1c0.3,0.4,0.5,0.7,0.8,1.1c-0.4-0.1-0.8-0.2-1.2-0.2v0.1c-0.3,0-0.6,0-0.9,0
								c-0.3,0.2-0.6,0.1-0.9,0.1l-0.1,0.1c-0.5,0-1.1-0.2-1.5-0.6c-0.3-0.2-0.4-0.5-0.6-0.8c-0.1-0.2-0.3-0.1-0.4-0.1
								c0-0.1,0-0.1,0-0.2C66.5,131.5,66.8,131.5,66.9,131.3 M67.5,131.5c-0.1,0-0.2,0.1-0.3,0.1c0.1,0,0.2,0,0.2,0
								c0.1,0.5,0.4,0.9,0.8,1.2C68,132.4,67.6,132.1,67.5,131.5c0.4,0.1,0.7,0.2,1,0.2c0.2,0.3,0.3,0.7,0.6,0.9
								c-0.2-0.3-0.4-0.6-0.5-0.9c0.3,0.1,0.6,0.2,0.9,0.2c0.1,0,0.2,0,0.3,0.1c0.1,0.2,0.3,0.5,0.4,0.6c-0.1-0.2-0.3-0.4-0.4-0.7
								c0.4,0.1,0.7,0.2,1,0.4c-0.3-0.2-0.6-0.3-1-0.5c0.2-0.1,0.3-0.1,0.5-0.2c-0.3,0-0.6,0.2-0.8,0.1c-0.3-0.1-0.6-0.2-0.9-0.3
								c0.2-0.2,0.5-0.2,0.7-0.3c-0.3,0-0.5,0.1-0.7,0.3c-0.2,0.1-0.4,0-0.5,0c-0.2,0-0.4,0-0.5-0.1c0.1-0.2,0.2-0.3,0.3-0.4
								C67.8,131.1,67.7,131.3,67.5,131.5z"/>
						</g>
						<g>
							<path class="st18" d="M58.1,104.1c-0.1-0.5,0-0.9,0.1-1.4c-0.1,0.9,0.1,1.8,0.6,2.5c0-0.3,0-0.5,0.1-0.8
								c0.1-0.2,0.2-0.4,0.3-0.6c-0.1,0.5-0.2,1.1,0,1.6s0.5,0.9,0.9,1.2c0.2-0.5,0.4-1,0.7-1.4c0.2-0.3,0.4-0.5,0.7-0.6
								c-0.4,0.4-0.8,0.9-0.8,1.4c0.2-0.2,0.4-0.4,0.6-0.6c0.6-0.4,1.4-0.6,2.1-0.5c-0.6,0-1.2,0.2-1.6,0.5
								c-0.5,0.3-0.8,0.7-1.2,1.1c-0.2,0.2-0.3,0.4-0.3,0.6c0,0.3,0,0.7,0.1,1c0.1,0.5,0.4,0.8,0.7,1.2c-0.5-0.1-0.8-0.7-1-1.1
								c-0.2,0.4-0.3,0.8-0.3,1.2c0,0.5,0,1,0.1,1.5c0,0.1,0.1,0.3,0.1,0.4c-0.5-0.9-0.5-2-0.3-2.9c0.1-0.4,0.2-0.7,0.4-1.1
								c-0.7-0.3-1.5-0.2-2.1,0.2c-0.3,0.2-0.5,0.4-0.7,0.6c0.1-0.5,0.5-0.8,1-1c-0.6-0.1-1.3,0.1-1.9,0.4c-0.2,0.1-0.4,0.3-0.7,0.5
								c0.5-0.6,1.1-1,1.9-1.2c0.6-0.1,1.2,0,1.8,0c0.1,0,0.3-0.1,0.2-0.3c-0.3-0.4-0.7-0.8-0.9-1.3C58.4,105,58.2,104.6,58.1,104.1
								z"/>
						</g>
						<g>
							<path class="st4" d="M57.6,110.7c0.2-0.5,0.4-1,0.7-1.4c-0.2,0.4-0.3,0.8-0.5,1.2C57.8,110.6,57.7,110.7,57.6,110.7z"/>
							<path class="st4" d="M63.9,109.9c-0.3-0.6-0.7-1.1-1.2-1.6c0.7,0.4,1.2,1,1.9,1.4C64.4,109.8,64.2,109.9,63.9,109.9z"/>
						</g>
						<g>
							<path class="st19" d="M57.2,112c0.1-0.2,0.2-0.2,0.3-0.3c-0.2,0.6-0.3,1.3-0.1,1.9c0.1,0.4,0.3,0.7,0.5,1
								c-1.2,1.3-2.1,2.8-2.8,4.5c-0.5,1.3-0.8,2.8-1,4.2c0-0.1,0-0.2-0.1-0.3c-0.3,0.2-0.7,0.4-0.8,0.8c-0.2,0.3-0.5,0.6-0.7,1
								c-0.2,0.2-0.3,0.6-0.6,0.7c0,0.3,0,0.6-0.1,0.8c-0.1-0.3-0.1-0.6-0.1-0.9c-0.3-4.4,1.2-8.9,4.2-12.1c0.1-0.1,0.3-0.1,0.5-0.2
								C56.8,112.7,57,112.3,57.2,112z"/>
						</g>
						<g>
							<path class="st20" d="M70,106.4c0.3-0.3,0.6-0.6,0.9-0.8l0.1,0.1c0.5-0.3,1.1-0.5,1.7-0.7c-0.3,0.4-0.6,0.9-0.7,1.4l0.1,0.1
								c0,0.3-0.1,0.6-0.1,0.9c0,0,0,0.1,0.1,0.1c0,0.2-0.1,0.4-0.1,0.7c0,0.1,0.1,0.1,0.1,0.2c-0.1,0.4-0.2,0.7-0.4,1
								c-0.1,0-0.2,0-0.3,0.1c0.2-0.2,0.3-0.5,0.4-0.8c0.1-0.2,0-0.4,0-0.6s0.1-0.4,0-0.6c0-0.3,0.1-0.5,0.1-0.8l-0.1-0.1
								c0.1-0.4,0.2-0.8,0.4-1.1c-0.4,0.2-0.8,0.3-1.2,0.6h-0.1c-0.3,0.2-0.5,0.4-0.7,0.7c-0.1,0.1-0.3,0.2-0.4,0.3
								c-0.2,0.3-0.4,0.7-0.5,1l-0.1,0.1c-0.1,0.5-0.1,1,0.1,1.5c-0.1-0.1-0.2-0.1-0.2-0.2l0,0c-0.1-0.4-0.1-0.9,0-1.3
								c0-0.1,0.2-0.2,0.2-0.4c0.2-0.4,0.4-0.8,0.7-1.1C69.9,106.5,70,106.5,70,106.4z"/>
						</g>
						<g>
							<path class="st21" d="M64.2,110.5c1-0.2,2.1-0.2,3,0.2c1.7,0.7,3.1,2.1,3.8,3.8l0,0c-0.1,0-0.3-0.1-0.3-0.2
								c-0.3-0.4-0.8-0.7-1.3-0.8c-0.4-0.1-0.8-0.1-1.1,0.1c-0.4,0.1-0.9,0.3-1.3,0.5v0.1c-0.4,0.2-0.7,0.5-1,0.8c0,0.1,0,0.1,0,0.2
								c-0.4,0.5-0.7,1-1,1.5c0.5-0.2,0.9-0.4,1.5-0.4l0.1,0.1c0.3,0,0.6,0,0.9,0c0.3,0.2,0.7,0,0.9,0.2c0.7,0,1.3-0.2,1.8-0.7
								c0.2-0.2,0.4-0.5,0.5-0.8c0.2,0,0.4,0,0.5,0.1c0,0,0,0.1,0.1,0.2v0.1c-0.4,0-0.8,0.3-1,0.7c-0.2,0.5,0,1.1,0.5,1.3
								c0,0.1-0.1,0.2-0.1,0.3c-0.1,0-0.3,0-0.4,0c-0.4,0.2-0.8,0.5-1.1,0.7c-0.1,0.1-0.2,0.1-0.4,0.2c-0.5,0.3-0.9,0.8-1,1.3
								c-0.2-0.1-0.4-0.2-0.6-0.1c-0.3,0-0.6,0.3-0.8,0.5c-0.1,0-0.2,0-0.3,0.1c-0.3,0.2-0.7,0.4-1,0.6c-0.2,0.1-0.2,0.3-0.2,0.5
								c-0.6-0.2-1.1,0.2-1.5,0.6c-0.5,0.5-0.7,1.3-0.6,2c-0.2-0.4-0.6-0.7-1-0.7c-0.5,0-0.9,0.3-1.2,0.6c-0.4,0.2-0.8,0.4-1.1,0.7
								c-0.2,0.1-0.3,0.4-0.2,0.6c0.3,1,0.7,1.9,1,2.8c-0.4-0.4-0.9-0.4-1.4-0.2c-1.1,0.7-2.1,1.3-3.2,2c-0.1-0.2-0.1-0.3-0.2-0.5
								c0.9-0.6,1.8-1.1,2.8-1.7c0.3-0.2,0.6-0.4,0.8-0.7c0.3-0.5,0-1.2-0.5-1.5c-0.4-0.2-0.8-0.2-1.2,0c-0.9,0.5-1.7,1.1-2.6,1.6
								c-0.3-1.4-0.3-2.8-0.2-4.2c0.1-1.1,0.4-2.2,0.8-3.3c0.6-1.7,1.6-3.3,2.9-4.6c0.4,0.1,0.9,0.1,1.4-0.1c0.4-0.2,0.8-0.5,1-0.9
								c0.3,0.2,0.6,0.3,1,0.4c0.6,0.1,1.3-0.1,1.7-0.5c0.6-0.5,0.9-1.3,0.9-2C64.4,111.3,64.3,110.9,64.2,110.5z"/>
							<path class="st21" d="M67.3,121.7c0.2,0.1,0.5,0.1,0.7-0.1c0.2,0.5,0.4,1.1,0.8,1.5c-0.3,0.2-0.6,0.4-0.8,0.6
								C67.8,123,67.6,122.4,67.3,121.7z"/>
							<path class="st21" d="M62.5,127.9c-0.1-0.3-0.2-0.5-0.3-0.8c0.3,0.3,0.7,0.6,1.1,0.5c0.6-0.1,1.2-0.5,1.4-1.1
								c0.3,0,0.6,0,0.9-0.1c-0.8,1.4-1.2,3-1,4.5c0,0.3,0.1,0.5,0.1,0.8c-0.2-0.2-0.2-0.5-0.3-0.7c-0.3-0.4-0.7-0.7-1.2-0.9
								c-0.2-0.1-0.3-0.1-0.5-0.1c-0.2,0.1-0.4,0-0.7,0s-0.6,0.1-0.9,0.2c0,0,0,0.1-0.1,0.1c-0.4,0.1-0.8,0.3-1.2,0.5
								c0,0.1,0,0.1,0,0.2c-0.4,0.3-0.9,0.7-1.3,1.1c0,0,0,0.1,0.1,0.1c0.4,0,0.8-0.1,1.2,0c0.1,0,0.2,0.1,0.3,0.2
								c0.3,0.1,0.6,0.1,0.8,0.3s0.6,0.1,0.7,0.4c0.7,0.2,1.5,0.2,2.1-0.3c0.2-0.1,0.4-0.3,0.6-0.5c0.1,0,0.2,0.1,0.4,0.2
								c0.2,0.1,0.2,0.3,0.3,0.4c0.5,1.4,1.3,2.6,2.4,3.6c0.7,0.5,1.4,1,2.2,1.2c0.4,0.1,0.9,0.2,1.3,0.2c-4,0.7-8.2-0.5-11.2-3
								c-1-0.9-1.9-1.9-2.7-3c1.1-0.7,2.2-1.4,3.3-2.1c0.3-0.2,0.5-0.5,0.5-0.8c0.1,0.1,0.3,0.2,0.5,0.1c0.3-0.2,0.7-0.4,1-0.6
								C62.4,128.3,62.5,128.1,62.5,127.9z"/>
						</g>
						<g>
							<path class="st22" d="M70.6,107.5c0.2-0.3,0-0.6,0.1-0.9c0,0.2,0,0.4,0.1,0.6c0.2-0.3,0.4-0.6,0.6-0.8
								c-0.2,0.3-0.4,0.6-0.5,0.9c0.2-0.1,0.5-0.2,0.7-0.3c-0.2,0.2-0.5,0.2-0.8,0.4c-0.2,0.3-0.3,0.7-0.5,1c0,0,0,0,0.1,0
								c0.3-0.1,0.6-0.2,0.9-0.4c-0.3,0.2-0.7,0.4-1,0.5c-0.1,0.3-0.2,0.6-0.3,1c0.2,0,0.5-0.1,0.7-0.2s0.4-0.2,0.6-0.3
								c-0.3,0.3-0.8,0.5-1.3,0.6c0,0.1,0,0.1-0.1,0.2c0-0.1,0-0.2,0-0.3c-0.1-0.2-0.3-0.3-0.4-0.5c0.1,0.1,0.2,0.3,0.4,0.4
								c0.1-0.3,0.2-0.6,0.3-0.9c-0.1-0.3-0.2-0.6-0.2-0.9c0.1,0.2,0.1,0.5,0.2,0.8C70.3,108.1,70.4,107.8,70.6,107.5z"/>
						</g>
						<g>
							<path class="st23" d="M67.4,109.5c-0.2,0-0.3-0.1-0.5-0.2c0.7-0.1,1.3-0.1,2-0.1l0,0c0.1,0.2,0.1,0.3,0.2,0.5
								c-0.3,0-0.6,0-0.8,0C68,109.7,67.7,109.6,67.4,109.5z"/>
							<path class="st23" d="M67.9,127.1c0.1-0.4,0.5-0.8,0.9-0.9c0.3-0.1,0.6,0.2,0.6,0.6c0,0.2-0.2,0.3-0.4,0.3
								c0-0.2,0-0.5-0.2-0.6c-0.1,0-0.3,0.1-0.3,0.2c-0.1,0.3-0.1,0.6,0,0.9c0.1,0.4,0.3,0.9,0.5,1.2c0.1,0.2,0.3,0.3,0.6,0.3
								c0.3-0.1,0.6-0.4,0.6-0.8c-0.2-0.4-0.3-0.8-0.2-1.2c0.1-0.4,0.3-0.7,0.7-0.8c0.3,0,0.5,0.2,0.6,0.4c0.1-0.1,0.2-0.2,0.3-0.3
								c-0.1-0.2-0.1-0.4-0.2-0.6c0.2-0.1,0.4-0.2,0.5-0.3c0,0,0.1,0.1,0.1,0.2c0.1-0.4,0.6-0.7,0.9-0.4c0-0.2,0.1-0.5,0.3-0.6
								c0.2-0.1,0.4-0.1,0.6,0c0.4,0.4,0.3,1,0.6,1.3c0.3,0,0.3-0.4,0.2-0.6c-0.2-0.5-0.4-1-0.5-1.5c0.2-0.1,0.4-0.2,0.5-0.3
								c0,0.1,0.1,0.2,0.1,0.3c0.1-0.2,0.3-0.5,0.6-0.5c0.2,0,0.4,0.2,0.5,0.4c0.2,0.4,0.4,0.8,0.3,1.3c-0.1,0.4-0.4,0.7-0.8,0.7
								c0.1,0.3,0.2,0.7,0.4,1c-0.2,0.2-0.3,0.3-0.5,0.5c-0.1-0.4-0.3-0.8-0.4-1.2c-0.1,0.4-0.5,0.7-0.9,0.5
								c-0.4-0.3-0.3-0.9-0.6-1.3c-0.1-0.1-0.2-0.1-0.3,0.1c-0.1,0.2,0,0.3,0,0.5c0.2,0.4,0.3,0.8,0.5,1.3c-0.2,0.1-0.4,0.2-0.5,0.3
								c-0.2-0.5-0.3-1-0.5-1.4c0-0.1-0.1-0.2-0.2-0.3c-0.2,0.1-0.2,0.4-0.2,0.6c0.2,0.4,0.3,0.9,0.5,1.3c-0.2,0.1-0.4,0.2-0.5,0.3
								c-0.2-0.4-0.3-0.9-0.5-1.3c-0.1,0.1-0.2,0.2-0.3,0.3c0.2,0.4,0.3,0.8,0.2,1.2c-0.1,0.4-0.4,0.6-0.8,0.6
								c-0.2,0-0.3-0.1-0.4-0.2c-0.1,0.6-0.5,1.1-1.1,1.2c-0.2,0-0.5-0.1-0.7-0.3c-0.3-0.3-0.4-0.6-0.6-1
								C67.9,128.1,67.8,127.6,67.9,127.1 M70.5,126.9c0,0.4,0.1,0.9,0.4,1.2c0.1,0.2,0.3,0.1,0.4-0.1c0.1-0.3,0-0.6-0.1-0.9
								c-0.2,0-0.3-0.2-0.2-0.4c-0.1-0.1-0.1-0.1-0.2-0.2C70.6,126.6,70.5,126.7,70.5,126.9 M74.9,124.4c0.1,0.3,0.2,0.7,0.4,1
								c0,0.2,0.2,0.1,0.3,0c0.2-0.2,0.1-0.5,0-0.7c-0.1-0.3-0.2-0.6-0.5-0.7C75,123.9,74.8,124.2,74.9,124.4z"/>
						</g>
						<g>
							<path class="st24" d="M68.3,109.8c0.3,0,0.5,0,0.8,0c0.2,0.2,0.5,0.4,0.5,0.7C69.2,110.2,68.7,110,68.3,109.8z"/>
						</g>
						<g>
							<path class="st25" d="M70.2,110.9c0-0.2-0.1-0.4,0-0.6c0.3-0.1,0.6-0.2,0.8-0.3c1.9,0.3,3.7,1.1,5.3,2.1
								c2,1.3,3.7,3.2,4.8,5.4c1,2,1.6,4.3,1.5,6.6c0,2-0.5,4.1-1.4,5.9c-1,2.1-2.6,4-4.5,5.3c-0.1,0.1-0.3,0.2-0.4,0.2
								c-0.6,0.3-1.3,0.5-1.9,0.7c-1.3,0.4-2.8,0.6-4.2,0.2c-0.8-0.2-1.4-0.7-2-1.2c-0.9-0.9-1.5-2.1-1.8-3.3c0.1,0,0.2,0,0.3,0
								c0.1,0.2,0.2,0.5,0.4,0.6c0.5,0.6,1.2,0.8,1.9,0.8c0.2-0.2,0.5-0.1,0.8-0.1c0.1,0,0.1-0.1,0.2-0.1c0.3,0,0.5,0,0.8,0
								c0.1,0,0.2-0.1,0.3-0.1c0.5,0,0.9,0.2,1.4,0.4c-0.3-0.5-0.6-1-1-1.5c0-0.1,0-0.1,0-0.2c-0.3-0.3-0.6-0.6-1-0.8v-0.1
								c-0.3-0.2-0.6-0.3-0.9-0.4c-0.2-0.1-0.4-0.1-0.5-0.2c-0.2-0.2-0.6-0.1-0.8-0.1c-0.6,0.1-1.2,0.3-1.5,0.9
								c-0.1,0.2-0.3,0.2-0.5,0.2c-0.2-1.3,0.1-2.6,0.7-3.8c0.3-0.6,0.7-1.2,1.2-1.7c0.3-0.2,0.6-0.5,0.9-0.7
								c0.4-0.3,0.8-0.6,1.2-0.9c0.3,0.3,0.7,0.5,1.1,0.4c0.7-0.1,1.3-0.7,1.4-1.4c0.1-0.5-0.1-1-0.3-1.4c0.1-0.2,0.2-0.3,0.3-0.5
								c0.7,0.1,1.4-0.4,1.7-1.1c0.7,0.1,1.4-0.3,1.8-0.9c0.2-0.3,0.3-0.6,0.4-0.9c0.2,0.1,0.4,0.1,0.6,0.1c0.5,0,0.9-0.2,1.3-0.5
								s0.6-0.8,0.6-1.3c0-0.3-0.1-0.6-0.2-0.8c-0.1-0.2-0.4-0.2-0.6-0.1c0.3-0.6,0.2-1.5-0.2-2c-0.3-0.3-0.7-0.5-1.1-0.4
								c-0.5,0.1-0.9,0.4-1.1,0.8c-0.4,0.5-0.4,1.2-0.4,1.8c-0.2-0.3-0.5-0.7-0.7-1c-0.1-0.2-0.4-0.2-0.6-0.1
								c-0.3,0.2-0.6,0.5-0.8,0.7C72.9,114,71.8,112.2,70.2,110.9 M67.9,127.1c-0.1,0.5,0,1,0.1,1.4s0.3,0.7,0.6,1
								c0.2,0.2,0.4,0.3,0.7,0.3c0.6-0.1,1-0.6,1.1-1.2c0.1,0.1,0.2,0.2,0.4,0.2c0.4,0,0.7-0.3,0.8-0.6c0.1-0.4,0-0.8-0.2-1.2
								c0.1-0.1,0.2-0.2,0.3-0.3c0.2,0.4,0.3,0.9,0.5,1.3c0.2-0.1,0.4-0.2,0.5-0.3c-0.2-0.4-0.3-0.9-0.5-1.3
								c-0.1-0.2-0.1-0.5,0.2-0.6c0.1,0.1,0.2,0.1,0.2,0.3c0.2,0.5,0.3,1,0.5,1.4c0.2-0.1,0.4-0.2,0.5-0.3c-0.2-0.4-0.3-0.8-0.5-1.3
								c-0.1-0.2-0.1-0.3,0-0.5c0-0.1,0.2-0.2,0.3-0.1c0.3,0.4,0.3,1,0.6,1.3c0.3,0.2,0.8-0.1,0.9-0.5c0.1,0.4,0.3,0.8,0.4,1.2
								c0.2-0.2,0.3-0.3,0.5-0.5c-0.1-0.3-0.2-0.7-0.4-1c0.4,0,0.7-0.3,0.8-0.7c0.1-0.5-0.1-0.9-0.3-1.3c-0.1-0.2-0.3-0.4-0.5-0.4
								c-0.3,0-0.5,0.2-0.6,0.5c0-0.1-0.1-0.2-0.1-0.3c-0.2,0.1-0.4,0.2-0.5,0.3c0.2,0.5,0.4,1,0.5,1.5c0.1,0.2,0,0.5-0.2,0.6
								c-0.3-0.4-0.3-1-0.6-1.3c-0.2-0.1-0.4-0.1-0.6,0s-0.3,0.4-0.3,0.6c-0.3-0.3-0.8,0-0.9,0.4c0,0-0.1-0.1-0.1-0.2
								c-0.2,0.1-0.4,0.2-0.5,0.3c0.1,0.2,0.1,0.4,0.2,0.6c-0.1,0.1-0.2,0.2-0.3,0.3c-0.1-0.2-0.3-0.4-0.6-0.4
								c-0.4,0.1-0.7,0.4-0.7,0.8c-0.1,0.4,0.1,0.8,0.2,1.2c0,0.3-0.3,0.7-0.6,0.8c-0.2,0.1-0.4-0.1-0.6-0.3
								c-0.3-0.4-0.4-0.8-0.5-1.2c-0.1-0.3-0.1-0.6,0-0.9c0.1-0.1,0.2-0.2,0.3-0.2c0.2,0.1,0.2,0.4,0.2,0.6c0.2,0,0.4-0.1,0.4-0.3
								c0-0.3-0.3-0.6-0.6-0.6C68.4,126.3,68,126.7,67.9,127.1 M76.2,123.9c0.1,0.3,0.2,0.7,0.5,0.9c0.2,0.2,0.6,0.1,0.7-0.1
								c0.1-0.1,0.2-0.3,0.2-0.5c0.1,0.1,0.2,0.2,0.4,0.2c0.3,0,0.5-0.3,0.6-0.6c0,0.1,0,0.2,0.1,0.2c0.2-0.1,0.4-0.2,0.5-0.3
								c-0.2-0.5-0.3-0.9-0.5-1.4c0-0.2-0.1-0.5,0.2-0.5c0.2,0.1,0.3,0.3,0.3,0.5c0.1,0.3,0.2,0.7,0.5,0.9c0.4,0.1,0.8-0.3,0.8-0.7
								c0.1,0.1,0.2,0.2,0.4,0.1c0.3,0,0.4-0.3,0.6-0.5c0,0.2-0.3,0.4-0.4,0.6c-0.1,0.3,0,0.6,0.3,0.7s0.6-0.1,0.7-0.3
								c0.1-0.2,0.1-0.5,0-0.8c-0.3-0.8-0.6-1.6-0.9-2.4c-0.2,0.1-0.4,0.2-0.5,0.3c0.2,0.5,0.3,0.9,0.5,1.4c0.1,0.2,0,0.5-0.2,0.5
								c-0.2-0.2-0.2-0.4-0.3-0.7c-0.1-0.3-0.2-0.7-0.4-1c-0.2,0.1-0.4,0.2-0.5,0.3c0.1,0.4,0.3,0.7,0.4,1.1
								c0.1,0.2,0.2,0.4,0.1,0.7c0,0.1-0.3,0.2-0.3,0.1c-0.2-0.3-0.2-0.8-0.4-1.1c-0.1-0.1-0.2-0.3-0.4-0.2c-0.3,0-0.5,0.3-0.6,0.5
								c0-0.1-0.1-0.1-0.1-0.2c-0.2,0.1-0.4,0.2-0.5,0.4c0.2,0.5,0.3,0.9,0.5,1.4c0,0.2,0.1,0.4-0.1,0.5c-0.1,0.1-0.2,0-0.2-0.1
								c-0.2-0.5-0.3-1-0.6-1.5c-0.2,0.1-0.4,0.2-0.5,0.3c0,0,0,0.1,0,0.2c-0.2-0.1-0.4,0-0.6,0.2C76.1,123,76.1,123.5,76.2,123.9z"
								/>
						</g>
						<g>
							<path class="st26" d="M71.1,110c0.2-0.1,0.3-0.3,0.5-0.5c2.1,0.4,4.1,1.3,5.8,2.6c2,1.5,3.6,3.5,4.6,5.8
								c0.9,1.9,1.3,4.1,1.3,6.2c0,2.3-0.6,4.6-1.7,6.6c-1,2-2.6,3.7-4.4,5.1c-0.1,0-0.2-0.1-0.3-0.1c0.2-0.1,0.3-0.3,0.5-0.5
								c-0.2,0-0.3,0.1-0.5,0.1c1.9-1.4,3.5-3.2,4.5-5.3c0.9-1.8,1.4-3.9,1.4-5.9c0-2.3-0.5-4.6-1.5-6.6c-1.1-2.2-2.8-4-4.8-5.4
								C74.8,111.1,73,110.3,71.1,110z"/>
						</g>
						<g>
							<path class="st27" d="M67,114.1c0.4-0.3,0.8-0.4,1.3-0.5c0.3-0.2,0.7-0.2,1.1-0.1c0.5,0.1,1,0.4,1.3,0.8
								c0.1,0.1,0.2,0.2,0.3,0.2c0,0-0.1,0.1-0.1,0.2c-0.3,0-0.4-0.4-0.7-0.6c-0.4-0.3-1-0.5-1.5-0.4c-0.1,0-0.1,0.1-0.2,0.1
								c-0.4,0.1-0.9,0.2-1.3,0.5v0.1c-0.4,0.2-0.7,0.5-1,0.7v0.1c-0.3,0.3-0.5,0.7-0.8,1.1c0.4-0.1,0.8-0.2,1.2-0.2l0.1,0.1
								c0.3,0,0.6,0,0.9,0l0.1,0.1c0.3,0,0.6-0.1,0.9,0.1c0.7,0,1.4-0.4,1.8-1c0.1-0.2,0.2-0.4,0.3-0.5c0.1-0.1,0.3,0,0.4,0v0.1
								c0.2,0,0.3,0.2,0.4,0.4h-0.1c0,0,0-0.1-0.1-0.2c-0.2-0.1-0.4-0.1-0.5-0.1c-0.1,0.3-0.3,0.6-0.5,0.8c-0.5,0.5-1.1,0.7-1.8,0.7
								c-0.3-0.2-0.7,0-0.9-0.2c-0.3,0-0.6,0-0.9,0l-0.1-0.1c-0.5,0-1,0.2-1.5,0.4c0.3-0.5,0.6-1,1-1.5c0-0.1,0-0.1,0-0.2
								c0.3-0.3,0.6-0.6,1-0.8C67,114.2,67,114.1,67,114.1z"/>
						</g>
						<g>
							<path class="st28" d="M53.2,123.6c0.2-0.3,0.5-0.6,0.8-0.8c0,0.1,0.1,0.2,0.1,0.3c-0.1,1.1,0,2.2,0.1,3.3
								c-0.1-0.1-0.1-0.2-0.2-0.2c-0.1,0.1-0.1,0.3-0.2,0.4c-0.1,0.2-0.3,0.3-0.4,0.4c-0.3,0.3-0.4,0.6-0.7,0.9
								c-0.1,0.1-0.3,0.3-0.3,0.5c-0.1,0.1,0,0.3,0,0.4l-0.1-0.1c-0.2-0.7-0.3-1.5-0.5-2.2c0-0.1,0-0.2,0-0.3c0.1-0.3,0-0.6,0.1-0.8
								c0.3-0.2,0.4-0.5,0.6-0.7C52.8,124.3,53,124,53.2,123.6z"/>
						</g>
						<g>
							<path class="st29" d="M67,114.9c0.2,0,0.5,0.1,0.7,0.1c0.3-0.1,0.7-0.2,1-0.3c-0.2-0.2-0.5-0.2-0.7-0.3
								c0.3,0,0.6,0.2,0.9,0.3c0.3,0,0.6-0.1,0.9-0.1c-0.1-0.2-0.2-0.3-0.4-0.4c0.3,0.1,0.4,0.5,0.7,0.5c-0.1,0-0.1,0-0.2,0
								c-0.1,0.5-0.4,0.9-0.8,1.2c0.3-0.4,0.6-0.7,0.7-1.2c-0.3,0-0.7,0.1-1,0.1c-0.2,0.3-0.3,0.6-0.6,0.9c0.1-0.3,0.3-0.5,0.5-0.8
								c-0.4,0.1-0.7,0.2-1.1,0.3c-0.2,0.2-0.3,0.5-0.5,0.7c0.1-0.2,0.3-0.4,0.3-0.7c-0.3,0.1-0.6,0.2-0.9,0.4
								c0.3-0.2,0.6-0.3,0.9-0.5C67.4,115,67.2,115,67,114.9z"/>
						</g>
						<g>
							<path class="st30" d="M53.8,126.6c0.1-0.1,0.1-0.3,0.2-0.4c0.1,0.1,0.1,0.1,0.2,0.2c0.1,0.5,0.2,1,0.3,1.4
								c0.4-0.1,0.7-0.4,1.1-0.6c0.2,0,0.4,0,0.5-0.1c-0.2,0.1-0.4,0.2-0.6,0.4c0,0.1,0,0.1,0,0.2c-0.1,0-0.2,0.1-0.3,0.2
								c-0.1,0.2-0.2,0.3-0.3,0.4c-0.1,0.1-0.2,0.3-0.3,0.4l0.1,0.1c-0.2,0.2-0.5,0.4-0.7,0.7c-0.1,0.1,0,0.2,0,0.4
								c-0.1,0-0.1,0-0.2-0.1c-0.1,0.2-0.3,0.4-0.4,0.5c-0.1,0.1,0,0.2,0,0.4h-0.1l-0.1,0.1c-0.1,0-0.2,0-0.3,0
								c-0.1-0.1-0.1-0.3-0.2-0.4l0,0c-0.7,0.4-1.5,0.9-2.2,1.3c-0.1,0.1-0.2,0.1-0.3,0.1c0-0.1,0-0.3,0.2-0.4
								c0.1-0.1,0.3-0.1,0.4-0.3c0.1-0.1,0.2-0.3,0.2-0.4c0,0,0.1,0,0.1-0.1c0.1-0.2,0.1-0.4,0.3-0.4c0-0.1,0.1-0.2,0.1-0.3l0.1-0.1
								c-1.1,0.7-2.3,1.4-3.4,2.1c0.1-0.1,0.2-0.1,0.2-0.2c1.3-0.8,2.7-1.7,4-2.5c0-0.1-0.1-0.3-0.1-0.4l0.1,0.1c0-0.1,0-0.3,0-0.4
								c0.1-0.2,0.2-0.3,0.3-0.5c0.2-0.3,0.4-0.6,0.7-0.9C53.6,126.9,53.7,126.8,53.8,126.6z"/>
						</g>
						<g>
							<path class="st31" d="M71,116.1c0.3-0.4,0.9-0.3,1,0.1c0.2,0.4-0.2,0.9-0.6,0.9C70.9,117.1,70.6,116.5,71,116.1z"/>
						</g>
						<g>
							<path class="st32" d="M54.5,127.8c0.2-0.1,0.3-0.2,0.5-0.3c0.8-0.5,1.6-1,2.4-1.5c0.2-0.1,0.3-0.2,0.5-0.3l0,0l-0.1,0.1
								c0.2,0,0.4,0,0.5,0.1c-0.1,0-0.2,0-0.3,0.1c-0.1,0.2-0.2,0.3-0.3,0.5c-0.2,0.2-0.5,0.4-0.5,0.7c0.2-0.1,0.3-0.2,0.5-0.3
								c-0.3,0.2-0.6,0.5-0.9,0.7c-0.7,0.5-1.4,0.9-2.1,1.4c0,0.2,0.1,0.3,0.1,0.5c0,0.1-0.1,0.1-0.2,0.2c0.1,0.2,0.2,0.3,0.2,0.5
								c-0.1-0.1-0.2-0.2-0.2-0.3c0,0.3-0.3,0.4-0.4,0.6c-0.1,0.1-0.1,0.4-0.2,0.5c-0.2,0.2-0.3,0.4-0.6,0.5
								c-0.1-0.2-0.2-0.4-0.4-0.6c0-0.1-0.1-0.2-0.1-0.2c0.1,0,0.2,0,0.3,0l0.1-0.1h0.1c0-0.1,0-0.3,0-0.4c0.1-0.2,0.3-0.3,0.4-0.5
								c0.1,0,0.1,0,0.2,0.1c0-0.1,0-0.2,0-0.4c0.2-0.3,0.4-0.5,0.7-0.7l-0.1-0.1c0.1-0.1,0.2-0.3,0.3-0.4c0.1-0.1,0.3-0.2,0.3-0.4
								c0-0.1,0.2-0.2,0.3-0.2c0-0.1,0-0.1,0-0.2c0.2-0.1,0.4-0.2,0.6-0.4c-0.2,0.1-0.4,0.1-0.5,0.1C55.3,127.4,55,127.8,54.5,127.8
								z"/>
						</g>
						<g>
							<path class="st33" d="M73.5,116.3c0.3-0.2,0.6-0.5,0.9-0.7c0.4,0.6,0.8,1.1,1.2,1.7v0.1c-0.1,0.1-0.1,0.3,0,0.4
								c0-0.1-0.1-0.1-0.1-0.2c0,0.1-0.1,0.2-0.1,0.2c-0.1,0.1-0.2,0.2-0.3,0.3c0,0.2,0,0.3,0.1,0.4c-0.3-0.6-0.8-1.1-1.2-1.6
								c0.1,0.5,0.2,1,0.2,1.5c-0.1,0-0.1-0.1-0.2-0.1c0,0-0.1,0-0.1,0.1C73.8,117.7,73.7,117,73.5,116.3z"/>
						</g>
						<g>
							<path class="st34" d="M48.6,132.7c-0.4-0.1-0.5-0.6-0.4-0.9c1.1-0.7,2.3-1.4,3.4-2.1l-0.1,0.1c0,0.1,0,0.2-0.1,0.3
								c-0.2,0-0.3,0.2-0.3,0.4c0,0-0.1,0-0.1,0.1c-0.1,0.2-0.1,0.3-0.2,0.4c-0.1,0.1-0.2,0.2-0.4,0.3c-0.1,0.1-0.1,0.3-0.2,0.4
								c0.1,0,0.2-0.1,0.3-0.1c0.7-0.4,1.5-0.9,2.2-1.3l0,0c-1.2,0.8-2.5,1.5-3.7,2.3C48.9,132.7,48.8,132.8,48.6,132.7z"/>
						</g>
						<g>
							<path class="st35" d="M57.9,125.9L57.9,125.9c0.4-0.2,0.7,0,0.8,0.3c0.1,0.2,0,0.5-0.3,0.7c-1.1,0.7-2.3,1.4-3.4,2.1h-0.1
								c0.7-0.5,1.4-0.9,2.1-1.4c0.3-0.2,0.6-0.5,0.9-0.7c-0.2,0.1-0.3,0.2-0.5,0.3c0-0.3,0.3-0.4,0.5-0.7c0.1-0.2,0.2-0.3,0.3-0.5
								c0.1-0.1,0.2-0.1,0.3-0.1C58.2,125.9,58,125.9,57.9,125.9z"/>
						</g>
						<g>
							<path class="st36" d="M60.9,124.7c0.1-0.3,0.3-0.7,0.6-0.8c0.3-0.2,0.6-0.2,0.8,0c0,0.1,0.1,0.2,0.1,0.4h-0.1
								c-0.1,0.3-0.3,0.5-0.6,0.6c-0.1-0.1-0.3-0.2-0.4,0c-0.3,0.2-0.2,0.6-0.1,0.9c-0.1,0-0.1,0-0.2,0.1c0.1,0.1,0.1,0.2,0.2,0.4
								c-0.1,0-0.2-0.1-0.2-0.1c0,0.2-0.1,0.3-0.3,0.4c-0.1,0-0.1,0-0.2-0.1c0.1,0.1,0.1,0.2,0.2,0.3h-0.1v0.1
								c-0.1-0.1-0.2-0.2-0.3-0.3c-0.2-0.5-0.4-1-0.5-1.5c0.3-0.2,0.6-0.4,0.9-0.6C60.8,124.4,60.8,124.5,60.9,124.7z"/>
						</g>
						<g>
							<path class="st37" d="M63.4,123.8c-0.1-0.6,0.2-1.2,0.6-1.6c0.3-0.2,0.7-0.4,1-0.3c0.1,0.2,0.2,0.3,0.3,0.5
								c-0.1,0-0.2,0-0.2,0c0,0.1,0,0.2,0,0.3c-0.1-0.1-0.2-0.2-0.3-0.3h-0.1c-0.1,0-0.2-0.1-0.2,0c-0.2,0.1-0.2,0.3-0.2,0.5
								c-0.2,0.1-0.1,0.4-0.1,0.5s-0.1,0.2-0.1,0.2c-0.2,0.2-0.4,0.4-0.5,0.6C63.6,124.1,63.5,123.9,63.4,123.8z"/>
						</g>
						<g>
							<path class="st38" d="M76,115.4c0.1-0.6,0.6-1,1.1-1.2c0.2-0.1,0.4-0.1,0.5,0c0.3,0.2,0.4,0.5,0.5,0.7c-0.1,0-0.2,0-0.2-0.1
								c-0.1,0.1-0.2,0.1-0.3,0.2c-0.1-0.2-0.1-0.4-0.3-0.5c-0.2,0-0.3,0.1-0.3,0.3c-0.1,0.4,0,0.8,0.1,1.2
								c-0.1-0.1-0.2-0.2-0.3-0.2c-0.1,0-0.1,0.1-0.1,0.1c-0.1,0.2-0.1,0.4-0.3,0.5c0,0.1,0.1,0.2,0.1,0.3c-0.1,0-0.1-0.1-0.2-0.1
								c0,0.3,0.1,0.5,0.1,0.8C76,116.8,75.8,116.1,76,115.4z"/>
						</g>
						<g>
							<path class="st39" d="M65.6,121.3c0.3-0.2,0.6-0.4,0.9-0.6c0.1,0.1,0.1,0.3,0.2,0.4c0.1-0.4,0.3-0.8,0.6-0.9
								c0.3-0.1,0.6,0.1,0.7,0.4s-0.1,0.6-0.4,0.7c-0.2,0-0.3-0.2-0.4-0.3c-0.2,0-0.3,0.3-0.4,0.5c-0.1,0.1,0,0.3,0.1,0.4
								c-0.1,0.4-0.4,0.6-0.5,1c-0.1-0.1-0.3-0.2-0.4-0.3C65.9,122.1,65.7,121.7,65.6,121.3z"/>
						</g>
						<g>
							<path class="st40" d="M68.6,119.6c0.2-0.4,0.5-0.6,0.9-0.8l0,0c0.1,0.1,0.2,0.1,0.3,0.2c0,0.1,0,0.1-0.1,0.2
								s-0.3,0.2-0.3,0.4c-0.1,0.4,0,0.7,0.1,1.1c-0.1,0-0.2,0-0.3,0c-0.2,0.2-0.3,0.4-0.4,0.7c-0.1,0-0.2-0.2-0.3-0.3
								C68.3,120.7,68.4,120.1,68.6,119.6z"/>
						</g>
						<g>
							<path class="st41" d="M69.8,118.7c0.3-0.2,0.6-0.4,0.9-0.6c0.2,0.6,0.4,1.2,0.6,1.7c0,0.1,0.1,0.2,0,0.2s-0.2,0-0.3,0.1
								c0,0.1,0.1,0.2,0.1,0.2c-0.1,0-0.1-0.1-0.2-0.1c-0.1,0.2-0.2,0.4-0.2,0.7c-0.1,0-0.1-0.1-0.2-0.1c0,0.1,0,0.2,0,0.3
								c-0.2-0.5-0.4-1.1-0.6-1.7c-0.1-0.1-0.2-0.1-0.3-0.1c0-0.1,0-0.1,0.1-0.2c-0.1-0.1-0.2-0.1-0.3-0.2c0.2,0,0.3,0,0.4,0.1
								C69.8,118.9,69.8,118.8,69.8,118.7z"/>
						</g>
						<g>
							<path class="st42" d="M71.9,119.3c-0.2-0.5-0.4-1-0.6-1.5c0.3-0.2,0.6-0.4,0.9-0.6c0.1,0.3,0.2,0.7,0.4,1
								c-0.1,0.1-0.3,0.2-0.3,0.3c-0.1,0.2-0.2,0.3-0.3,0.5C72,119.1,71.9,119.2,71.9,119.3z"/>
						</g>
						<g>
							<path class="st43" d="M65.1,121.9c0.4,0.3,0.5,0.8,0.5,1.2c-0.1,0.6-0.4,1.1-0.8,1.4c0.1,0.3,0.3,0.5,0.6,0.6
								c0,0.1,0.1,0.2,0.1,0.3c-0.2,0.1-0.4,0.3-0.6,0.5l0,0c-0.2,0-0.3-0.1-0.5-0.2c0,0.4-0.1,0.7-0.4,1c-0.3,0.2-0.7,0.4-1,0.2
								c-0.4-0.2-0.5-0.6-0.7-1c0.1,0.1,0.2,0.2,0.3,0.3c0.1-0.2,0.3-0.5,0.4-0.7c0-0.1,0-0.3,0-0.4c0.1,0.2,0.2,0.5,0.3,0.7
								c0.1,0.1,0.3,0.1,0.4,0.1c0.2-0.1,0.3-0.4,0.2-0.6s-0.2-0.4-0.3-0.7c0.1,0.1,0.2,0.2,0.3,0.3c0-0.1-0.1-0.3-0.1-0.4
								c0.1,0,0.1,0.1,0.2,0.1c0-0.1,0-0.1,0-0.2c0.1-0.1,0.2-0.2,0.3-0.3c0-0.1-0.1-0.1-0.1-0.2c0.1,0,0.2-0.1,0.3-0.2v0.1
								c0.5-0.4,0.6-1.3,0.2-1.8h0.1c0.1,0.1,0.2,0.2,0.3,0.3c0-0.1,0-0.2,0-0.3c0.1,0,0.2,0,0.2,0
								C65.3,122.2,65.2,122.1,65.1,121.9z"/>
						</g>
						<g>
							<path class="st16" d="M64.3,122.8c0-0.2,0-0.4,0.2-0.5c0.1-0.1,0.2,0,0.2,0c0.4,0.5,0.4,1.4-0.2,1.8V124
								C64.4,123.7,64.3,123.2,64.3,122.8z"/>
							<path class="st16" d="M70.9,123.6c-0.1-0.3,0.2-0.6,0.3-0.9c0.1,0.2,0.2,0.5,0.2,0.7c0,0.1-0.1,0.2-0.2,0.3
								C71.1,123.9,70.9,123.8,70.9,123.6z"/>
						</g>
						<g>
							<path class="st44" d="M62.4,124.2c0-0.1-0.1-0.2-0.1-0.4c0.4,0.3,0.5,0.7,0.6,1.2c0,0.1,0.1,0.2,0.1,0.4c0,0.1,0,0.3,0,0.4
								c-0.2,0.2-0.3,0.4-0.4,0.7c-0.1-0.1-0.2-0.2-0.3-0.3c-0.2-0.4-0.3-0.9-0.5-1.3C62,124.8,62.3,124.6,62.4,124.2
								C62.3,124.2,62.3,124.2,62.4,124.2z"/>
						</g>
						<g>
							<path class="st45" d="M64.3,123.4c0-0.2-0.1-0.4,0.1-0.5c0,0.4,0.1,0.8,0.2,1.2c-0.1,0.1-0.2,0.1-0.3,0.2
								c0,0.1,0.1,0.1,0.1,0.2c-0.1,0.1-0.2,0.2-0.3,0.3c0,0.1,0,0.1,0,0.2c-0.1,0-0.1-0.1-0.2-0.1c0,0.1,0.1,0.3,0.1,0.4
								c-0.1-0.1-0.2-0.2-0.3-0.3c-0.1-0.3-0.2-0.7-0.2-1c0.1,0.1,0.1,0.3,0.2,0.5c0.2-0.2,0.3-0.5,0.5-0.6
								C64.2,123.5,64.2,123.5,64.3,123.4z"/>
						</g>
						<g>
							<path class="st16" d="M74,117c0.4,0.6,0.8,1,1.2,1.6c0.1,0.2,0,0.5-0.2,0.7c-0.1,0.1-0.3,0.2-0.4,0.2s-0.2-0.1-0.3-0.2
								c0.2-0.1,0.4-0.2,0.3-0.4c0-0.2-0.2-0.3-0.4-0.3C74.2,118,74.1,117.5,74,117z"/>
						</g>
						<g>
							<path class="st46" d="M54.9,129.5c0-0.2-0.1-0.3-0.1-0.5c0.1,0,0.1,0.2,0.2,0.3c0.1,0.3,0.3,0.6,0.4,1c0,0.2,0,0.3,0.1,0.5
								c-0.1,0-0.1,0-0.2,0c-0.1,0.2-0.3,0.5-0.3,0.7c-0.1,0.2-0.3,0.3-0.4,0.5c-0.1,0.1-0.1,0.2-0.2,0.3c-0.1,0.1-0.2,0.2-0.2,0.2
								c0,0.1,0,0.2,0,0.4c-1.2,0.7-2.4,1.5-3.6,2.2c-0.1,0.1-0.2,0.1-0.3,0.1c0.6-0.5,1.3-0.8,2-1.3c-0.3,0.1-0.5,0.3-0.8,0.5
								c0.2-0.2,0.4-0.3,0.6-0.4c0.1-0.2,0.2-0.3,0.4-0.4c0.1-0.4,0.5-0.5,0.6-0.9c0.1-0.2,0.2-0.3,0.4-0.4
								c-0.5,0.2-0.9,0.5-1.3,0.7c-0.8,0.4-1.6,1-2.4,1.4c0.1-0.1,0.2-0.2,0.3-0.2c1.2-0.7,2.3-1.5,3.5-2.2
								c-0.1-0.3-0.3-0.6-0.4-0.9c0.1,0.2,0.3,0.4,0.4,0.6c0.2-0.1,0.4-0.3,0.6-0.5c0.1-0.1,0.1-0.3,0.2-0.5
								c0.1-0.2,0.4-0.3,0.4-0.6c0.1,0.1,0.2,0.2,0.2,0.3c-0.1-0.2-0.1-0.3-0.2-0.5C54.8,129.6,54.9,129.6,54.9,129.5z"/>
						</g>
						<g>
							<path class="st47" d="M77.5,115.1c0.1-0.1,0.2-0.1,0.3-0.2c0.1,0,0.2,0,0.2,0.1c0.1,0.7-0.3,1.4-0.8,1.9
								c0.1,0.2,0.2,0.3,0.3,0.4c0,0.1-0.1,0.2-0.1,0.3c-0.2,0.1-0.2,0.3-0.1,0.5c-0.1,0-0.2,0-0.3,0c-0.1,0-0.1,0.1-0.1,0.2
								c-0.1-0.1-0.2-0.2-0.3-0.3c-0.1,0.3-0.2,0.6-0.4,0.9c-0.2,0.7-0.8,1.2-1.5,1.2c0-0.1-0.1-0.2,0-0.4c0.1-0.1,0.3-0.1,0.4-0.3
								c0.2-0.2,0.2-0.4,0.2-0.7c0-0.1-0.1-0.3-0.1-0.4s0.1-0.2,0.3-0.3c0-0.1,0.1-0.2,0.1-0.2c0,0.1,0.1,0.1,0.1,0.2
								c0-0.1-0.1-0.3,0-0.4v-0.1c0.2,0.3,0.4,0.5,0.5,0.8c0.1-0.2,0.1-0.3,0.2-0.5c0-0.1-0.1-0.2-0.1-0.2c0-0.3-0.1-0.5-0.1-0.8
								c0.1,0,0.1,0.1,0.2,0.1c0-0.1-0.1-0.2-0.1-0.3c0.2-0.1,0.2-0.3,0.3-0.5c0,0,0-0.1,0.1-0.1s0.2,0.1,0.3,0.2
								c0,0.1,0.1,0.3,0.1,0.4C77.5,116.1,77.6,115.6,77.5,115.1z"/>
						</g>
						<g>
							<path class="st48" d="M72.3,118.5c0.1-0.1,0.2-0.2,0.3-0.3c0.2,0.6,0.4,1.1,0.6,1.7c-0.1-0.1-0.2-0.2-0.3-0.3
								c-0.1,0.2-0.2,0.3-0.4,0.5c-0.1,0.1-0.1,0.2-0.1,0.2c-0.1,0-0.2,0-0.2,0c-0.1-0.4-0.2-0.7-0.4-1.1l0,0
								c0.1-0.1,0.1-0.2,0.1-0.3C72.1,118.8,72.2,118.7,72.3,118.5z"/>
							<path class="st48" d="M71.2,120.4c0-0.1-0.1-0.2-0.1-0.2c0.1,0,0.2,0,0.3-0.1c0.2,0.3,0.2,0.6,0.4,0.9c0,0,0,0-0.1,0.1
								c0,0.4-0.3,0.6-0.5,0.9c0,0.1-0.1,0-0.2,0l0,0c-0.1,0.5-0.6,1-1.1,1c-0.2,0-0.4-0.1-0.6-0.3c0.3-0.2,0.4-0.5,0.6-0.8
								c0.1,0,0.2,0,0.3,0.1c0.1,0,0.3,0,0.4-0.1c0.2-0.2,0.2-0.6,0.2-0.9c0-0.1,0-0.2,0-0.3c0.1,0,0.1,0.1,0.2,0.1
								c0-0.2,0.1-0.5,0.2-0.7C71.1,120.3,71.2,120.3,71.2,120.4z"/>
						</g>
						<g>
							<path class="st49" d="M66.4,122.9c0.1-0.4,0.4-0.6,0.5-1c0.1,0.4,0.3,0.8,0.4,1.3c0,0.1-0.1,0.2-0.1,0.3h-0.1
								c0,0.1,0,0.3-0.1,0.4s-0.2,0.1-0.3,0.2c0,0.1,0.1,0.1,0.1,0.2c-0.1,0-0.2,0.1-0.2,0.2c0-0.1-0.1-0.2-0.1-0.2
								c-0.1,0.6-0.3,1.2-0.8,1.5c-0.3,0.2-0.6,0.4-0.9,0.4l0,0c0.1-0.2,0.3-0.4,0.6-0.5c0-0.1-0.1-0.2-0.1-0.3
								c0.4,0,0.7-0.3,0.9-0.6c0.1-0.3,0.2-0.6,0.3-0.9c-0.1-0.4-0.3-0.8-0.4-1.1C66.1,122.7,66.3,122.8,66.4,122.9z"/>
						</g>
						<g>
							<path class="st50" d="M61,125.7c0.1,0,0.1,0,0.2-0.1c0.3,0.8,0.6,1.6,0.8,2.3c-0.3,0.2-0.6,0.4-0.9,0.6
								c-0.3-0.7-0.5-1.5-0.8-2.2c0.1,0.1,0.2,0.2,0.3,0.3v-0.1h0.1c-0.1-0.1-0.1-0.2-0.2-0.3c0,0,0.1,0,0.2,0.1
								c0.1-0.1,0.2-0.2,0.3-0.4c0.1,0,0.2,0.1,0.2,0.1C61.2,125.9,61.1,125.8,61,125.7z"/>
						</g>
						<g>
							<path class="st51" d="M68.8,121.4c0.1-0.3,0.2-0.5,0.4-0.7c0.1,0,0.2,0,0.3,0c0.1,0.5,0.3,0.9,0.6,1.2c-0.1,0-0.2,0-0.3-0.1
								c-0.2,0.3-0.3,0.6-0.6,0.8c-0.4-0.4-0.6-1-0.8-1.6C68.5,121.3,68.6,121.4,68.8,121.4z"/>
						</g>
						<g>
							<path class="st52" d="M73.8,118.9c0.1-0.2,0.1-0.3,0-0.5c0,0,0.1,0,0.1-0.1c0.1,0.1,0.1,0.1,0.2,0.1c0.2,0.1,0.4,0.1,0.4,0.3
								c0,0.2-0.2,0.4-0.3,0.4c0.1,0.1,0.2,0.2,0.3,0.2c0.2,0,0.3-0.1,0.4-0.2c-0.1,0.2-0.2,0.2-0.4,0.3c0,0.1,0,0.2,0,0.4
								c-0.1,0-0.3-0.1-0.4-0.1c-0.1,0.5-0.4,1-1,1.2c-0.3,0.1-0.5-0.1-0.7-0.2c0,0.4-0.2,0.8-0.5,1.1c0.1,0.3,0.2,0.5,0.3,0.8
								c-0.1-0.1-0.2-0.2-0.3-0.2c0,0.1,0,0.1,0,0.2c-0.1,0.1-0.2,0.2-0.3,0.3c0,0.1,0,0.1-0.1,0.2c-0.1,0-0.1,0-0.2,0.1
								c0,0.1,0,0.2,0,0.3h-0.1c0-0.3-0.1-0.5-0.2-0.7c-0.2,0.2-0.4,0.5-0.3,0.9c0,0.2,0.2,0.2,0.4,0.2c-0.1,0.1-0.2,0.1-0.3,0.2
								c0,0.1,0,0.2,0,0.3c-0.3-0.2-0.5-0.5-0.4-0.8c0-0.4,0.3-0.8,0.6-1.1c0-0.1-0.1-0.2-0.1-0.3l0,0c0.1,0,0.2,0.1,0.2,0
								c0.2-0.3,0.5-0.6,0.5-0.9c0,0,0,0,0.1-0.1c0.1,0.2,0.1,0.3,0.2,0.5c0.3-0.3,0.4-0.8,0.3-1.2c0.1,0,0.2-0.1,0.2,0
								c0-0.1,0-0.2,0.1-0.2c0.1-0.2,0.3-0.3,0.4-0.5c0.1,0.1,0.2,0.2,0.3,0.3c0.1,0.1,0.1,0.2,0.2,0.1c0.2,0,0.4-0.3,0.4-0.5
								C73.8,119.3,73.7,119.1,73.8,118.9z"/>
						</g>
						<g>
							<path class="st53" d="M55.5,130.7c0-0.2-0.1-0.3-0.1-0.5c0.1,0.1,0.1,0.2,0.2,0.3l0,0c0.7-0.4,1.3-0.8,2-1.2
								c0.3-0.2,0.6-0.3,0.9-0.5c0,0,0,0.1,0.1,0.1c-0.2,0.1-0.3,0.2-0.4,0.4c-0.1,0.3-0.3,0.5-0.6,0.7c-0.1,0.1-0.1,0.2-0.1,0.3
								c-0.3,0.2-0.5,0.4-0.7,0.5c0.3-0.1,0.5-0.3,0.7-0.4c-0.4,0.3-0.9,0.5-1.3,0.9c0,0.1,0.1,0.1,0.1,0.2c0,0.1,0,0.2,0.1,0.3
								c-0.1,0-0.1-0.1-0.2-0.1c-0.1,0.2-0.2,0.4-0.3,0.5s-0.1,0.4-0.3,0.5c-0.2,0.2-0.4,0.5-0.6,0.9c-0.1-0.2-0.2-0.3-0.4-0.4
								c-0.1-0.2-0.3-0.4-0.4-0.6c0-0.1-0.1-0.2,0-0.4c0.1-0.1,0.2-0.2,0.2-0.2c0.1-0.1,0.1-0.3,0.2-0.3c0.2-0.1,0.4-0.3,0.4-0.5
								c0.1-0.2,0.2-0.5,0.3-0.7C55.3,130.7,55.4,130.7,55.5,130.7z"/>
						</g>
						<g>
							<path class="st54" d="M67.3,123.5c0-0.1,0.1-0.2,0.1-0.3c0.2,0.4,0.3,0.8,0.5,1.3c-0.3,0.2-0.6,0.4-0.9,0.6
								c-0.1-0.2-0.1-0.4-0.2-0.6c0.1-0.1,0.2-0.1,0.2-0.2s-0.1-0.1-0.1-0.2c0.1,0,0.2-0.1,0.3-0.2
								C67.2,123.8,67.2,123.7,67.3,123.5C67.2,123.5,67.3,123.5,67.3,123.5z"/>
						</g>
						<g>
							<path class="st55" d="M55.6,130.6c1.3-0.8,2.5-1.6,3.8-2.3c0.3-0.2,0.7,0,0.8,0.4c0.1,0.2,0,0.5-0.3,0.6
								c-1.2,0.7-2.4,1.5-3.5,2.2c-0.1,0.1-0.2,0.1-0.3,0.1c0.4-0.4,0.9-0.6,1.3-0.9c-0.2,0.1-0.5,0.3-0.7,0.4
								c0.2-0.2,0.5-0.4,0.7-0.5c0-0.1,0-0.2,0.1-0.3c0.2-0.2,0.4-0.4,0.6-0.7c0.1-0.2,0.3-0.3,0.4-0.4c0,0,0-0.1-0.1-0.1
								c-0.3,0.2-0.6,0.3-0.9,0.5C56.9,129.8,56.2,130.2,55.6,130.6L55.6,130.6z"/>
						</g>
						<g>
							<path class="st56" d="M50.3,135.2c-0.5,0-0.8-0.6-0.5-1c0.8-0.4,1.6-1,2.4-1.4c0.4-0.2,0.8-0.5,1.3-0.7
								c-0.1,0.1-0.3,0.2-0.4,0.4c-0.1,0.3-0.5,0.5-0.6,0.9c-0.2,0.1-0.3,0.3-0.4,0.4c-0.2,0.2-0.4,0.3-0.6,0.4
								c0.3-0.1,0.6-0.3,0.8-0.5C51.6,134.3,50.9,134.6,50.3,135.2L50.3,135.2z"/>
						</g>
						<g>
							<path class="st57" d="M78,117.3c0.3-0.2,0.5-0.5,0.7-0.9c0.1,0.3,0.2,0.8,0,1.1c-0.2,0.4-0.6,0.6-1,0.8
								c-0.3,0.1-0.6,0-0.8-0.1c0-0.1,0.1-0.1,0.1-0.2c0.1,0,0.2,0,0.3,0c0-0.2-0.1-0.4,0.1-0.5c0-0.1,0.1-0.2,0.1-0.3
								C77.6,117.3,77.8,117.4,78,117.3z"/>
						</g>
						<g>
							<path class="st58" d="M56.2,131.8c0-0.1-0.1-0.1-0.1-0.2c0.1,0.1,0.2,0.2,0.2,0.3c0.4,0.6,0.8,1.2,1.2,1.7
								c0,0.1,0.1,0.3,0.2,0.4c-0.1,0.2-0.3,0.4-0.4,0.5c-0.1,0.1-0.2,0.3-0.3,0.4c-0.1,0.1-0.3,0.3-0.4,0.5c-0.1,0-0.1,0-0.2-0.1
								c0,0.1,0.1,0.2,0.1,0.3c-0.1-0.1-0.3-0.1-0.4-0.2c-0.3-0.3-0.5-0.6-0.8-0.9v-0.1c0.1,0,0.1,0.1,0.2,0.1
								c0.2-0.2,0.2-0.4,0.4-0.6c0.3-0.3,0.5-0.6,0.7-0.9c0-0.1,0-0.3,0.1-0.4C56.5,132.4,56.4,132.1,56.2,131.8z"/>
						</g>
						<g>
							<path class="st59" d="M56.2,132.1c0-0.1,0-0.2-0.1-0.3c0.2,0.3,0.4,0.6,0.6,0.9c-0.1,0.1-0.1,0.3-0.1,0.4
								c-0.3,0.3-0.5,0.6-0.7,0.9c-0.1,0.2-0.2,0.4-0.4,0.6c-0.1,0-0.1-0.1-0.2-0.1v0.1c-0.3-0.4-0.6-0.8-0.9-1.2
								c0.2,0.1,0.3,0.3,0.4,0.4c0.2-0.3,0.4-0.6,0.6-0.9c0.1-0.1,0.1-0.4,0.3-0.5c0.1-0.1,0.2-0.3,0.3-0.5
								C56.1,132,56.2,132.1,56.2,132.1z"/>
						</g>
						<g>
							<path class="st60" d="M72,122.4c0.1,0.1,0.2,0.2,0.3,0.2c0.1,0.4,0.1,0.9-0.2,1.2c-0.3,0.4-0.8,0.7-1.2,0.5
								c0-0.1,0-0.2,0-0.3c0.1,0,0.2-0.1,0.3-0.2c0.1-0.1,0.1-0.2,0.2-0.3h0.1c0-0.1,0-0.2,0-0.3c0.1,0,0.1-0.1,0.2-0.1
								c0-0.1,0-0.1,0.1-0.2s0.2-0.2,0.3-0.3C72,122.5,72,122.5,72,122.4z"/>
						</g>
						<g>
							<path class="st61" d="M59.8,130.9c0-0.1,0-0.1,0-0.2c0.4-0.2,0.8-0.4,1.2-0.5c0,0,0-0.1,0.1-0.1c0.3-0.1,0.6-0.2,0.9-0.2
								c0.2,0,0.4,0,0.7,0c0.2-0.1,0.4,0,0.5,0.1c0.5,0.2,0.9,0.5,1.2,0.9c0.2,0.2,0.2,0.5,0.3,0.7c-0.1-0.1-0.2-0.2-0.3-0.2
								c-0.2-0.6-0.8-1-1.4-1.2c-0.2-0.1-0.4,0.1-0.5,0c-0.4,0-0.7,0-1.1,0.1c-0.1,0-0.1,0.1-0.2,0.1c-0.4,0.1-0.7,0.2-1.1,0.4
								c-0.1,0.2-0.3,0.3-0.5,0.5c-0.2,0.1-0.4,0.3-0.5,0.5c0,0,0,0,0,0.1c0.3,0,0.6,0,0.9,0.1c0.1,0,0.2,0.2,0.4,0.2
								c0.2,0.1,0.3,0.1,0.5,0.2c0.2,0.1,0.3,0.2,0.4,0.2c0.2,0.1,0.4,0.1,0.5,0.2c0.1,0.1,0.3,0.1,0.5,0.1c0.6,0.1,1.3-0.1,1.7-0.6
								c0.1-0.1,0.2-0.2,0.3-0.2c0.1-0.1,0.3,0,0.4,0.1c0,0.1,0,0.2,0,0.3c-0.1-0.1-0.2-0.2-0.4-0.2c-0.2,0.2-0.3,0.4-0.6,0.5
								c-0.6,0.4-1.4,0.5-2.1,0.3c-0.2-0.3-0.5-0.2-0.7-0.4s-0.6-0.2-0.8-0.3c-0.1-0.1-0.2-0.2-0.3-0.2c-0.4-0.1-0.8-0.1-1.2,0
								c0,0,0-0.1-0.1-0.1C58.9,131.6,59.3,131.2,59.8,130.9z"/>
						</g>
						<g>
							<path class="st62" d="M60.8,130.9c0.3,0.1,0.5,0.3,0.8,0.3s0.6,0,0.9,0c-0.2-0.2-0.4-0.3-0.5-0.5c0.2,0.1,0.4,0.3,0.6,0.4
								c0.1,0.1,0.3,0.1,0.5,0.2c0.2,0,0.3,0.1,0.5,0c-0.1-0.2-0.1-0.3-0.2-0.5c0.2,0.2,0.2,0.6,0.5,0.7c-0.1,0-0.1,0-0.2,0
								c-0.3,0.4-0.6,0.7-1.1,0.9c0.2-0.2,0.5-0.3,0.8-0.6c0.1-0.1,0.2-0.2,0.3-0.4c-0.3-0.1-0.6-0.2-1-0.2
								c-0.3,0.2-0.6,0.5-0.9,0.7c0.2-0.3,0.6-0.5,0.8-0.8c-0.3,0-0.7,0-1,0c-0.1,0-0.2,0.1-0.3,0.2c-0.1,0.1-0.3,0.2-0.5,0.3
								c0.2-0.2,0.4-0.3,0.5-0.5c-0.3,0-0.6,0-1,0c0.3-0.1,0.6-0.1,0.8-0.1v-0.1C61.1,131.1,60.9,131,60.8,130.9z"/>
						</g>
						<g>
							<path class="st63" d="M57.7,134c-0.1-0.1-0.1-0.3-0.2-0.4c0.2,0.2,0.4,0.5,0.6,0.7c0.1,0.2,0.3,0.4,0.4,0.6
								c-0.1,0-0.1,0-0.2,0c-0.1,0.1-0.2,0.2-0.3,0.3c0,0.1,0,0.3,0,0.4c-0.1,0.2-0.3,0.3-0.5,0.4c-0.1,0.1-0.1,0.3-0.1,0.4
								c-0.1,0-0.2,0.1-0.2,0.1c-0.1-0.1-0.3-0.3-0.5-0.3c-0.2-0.2-0.4-0.4-0.6-0.6c0.1,0.1,0.3,0.1,0.4,0.2c0-0.1-0.1-0.2-0.1-0.3
								c0.1,0,0.1,0,0.2,0.1c0.1-0.2,0.2-0.3,0.4-0.5c0.1-0.1,0.1-0.3,0.3-0.4C57.4,134.3,57.5,134.1,57.7,134z"/>
						</g>
						<g>
							<path class="st23" d="M76.2,123.9c-0.1-0.4-0.1-0.9,0.2-1.2c0.1-0.1,0.4-0.3,0.6-0.2c0,0,0-0.1,0-0.2
								c0.2-0.1,0.3-0.2,0.5-0.3c0.2,0.5,0.4,1,0.6,1.5c0,0.1,0.1,0.2,0.2,0.1c0.2-0.1,0.2-0.4,0.1-0.5c-0.2-0.5-0.3-0.9-0.5-1.4
								c0.2-0.1,0.4-0.2,0.5-0.4c0,0.1,0.1,0.1,0.1,0.2c0.1-0.3,0.3-0.5,0.6-0.5c0.2,0,0.3,0.1,0.4,0.2c0.2,0.3,0.2,0.7,0.4,1.1
								c0.1,0.2,0.3,0.1,0.3-0.1c0.1-0.2,0-0.5-0.1-0.7c-0.1-0.4-0.3-0.7-0.4-1.1c0.2-0.1,0.4-0.2,0.5-0.3c0.1,0.3,0.2,0.7,0.4,1
								c0.1,0.2,0.1,0.5,0.3,0.7c0.2,0,0.3-0.3,0.2-0.5c-0.2-0.5-0.3-0.9-0.5-1.4c0.2-0.1,0.4-0.2,0.5-0.3c0.3,0.8,0.6,1.6,0.9,2.4
								c0.1,0.3,0.1,0.6,0,0.8c-0.1,0.2-0.4,0.4-0.7,0.3c-0.3-0.1-0.4-0.4-0.3-0.7c0.1-0.2,0.3-0.4,0.4-0.6
								c-0.2,0.2-0.3,0.5-0.6,0.5c-0.1,0-0.3-0.1-0.4-0.1c0,0.4-0.4,0.8-0.8,0.7c-0.3-0.2-0.4-0.6-0.5-0.9c-0.1-0.2-0.1-0.5-0.3-0.5
								c-0.2,0.1-0.2,0.3-0.2,0.5c0.2,0.5,0.3,0.9,0.5,1.4c-0.2,0.1-0.4,0.2-0.5,0.3c0-0.1,0-0.2-0.1-0.2c-0.1,0.3-0.3,0.5-0.6,0.6
								c-0.1,0-0.3-0.1-0.4-0.2c0,0.2-0.1,0.4-0.2,0.5c-0.2,0.2-0.5,0.3-0.7,0.1C76.4,124.6,76.2,124.2,76.2,123.9 M76.8,122.8
								c-0.1,0.2-0.1,0.4-0.1,0.6c0.1,0.3,0.2,0.6,0.4,0.8c0.1,0.1,0.3,0,0.3-0.1c0.1-0.2,0-0.4-0.1-0.6s-0.2-0.5-0.3-0.7
								C77,122.7,76.8,122.8,76.8,122.8 M81.2,122.9c0,0.2,0.3,0.2,0.3,0c0.1-0.2-0.1-0.4-0.1-0.6C81.3,122.5,81.2,122.7,81.2,122.9
								z"/>
						</g>
						<g>
							<path class="st64" d="M58.6,134.9c-0.2-0.2-0.3-0.4-0.4-0.6c0.8,0.8,1.6,1.5,2.5,2.1c-0.1,0-0.2,0-0.3,0
								c-0.2,0.3-0.5,0.5-0.6,0.9c0,0.2-0.2,0.2-0.3,0.4s-0.3,0.3-0.4,0.4c-0.8-0.6-1.6-1.2-2.3-1.9c0.2,0.1,0.3,0.2,0.5,0.3
								c0.1,0,0.2-0.1,0.2-0.1c0.1-0.1,0.1-0.3,0.1-0.4c0.1-0.2,0.4-0.3,0.5-0.4c0-0.1,0-0.3,0-0.4c0.1-0.1,0.2-0.2,0.3-0.3
								C58.4,134.8,58.5,134.9,58.6,134.9z"/>
						</g>
						<g>
							<path class="st25" d="M70.5,126.9c0-0.1,0.1-0.2,0.2-0.3c0.1,0.1,0.1,0.1,0.2,0.2c-0.1,0.2,0,0.4,0.2,0.4
								c0.1,0.3,0.2,0.6,0.1,0.9c0,0.2-0.3,0.3-0.4,0.1C70.6,127.7,70.5,127.3,70.5,126.9z"/>
							<path class="st25" d="M76.8,122.8c0.1-0.1,0.2-0.1,0.3,0c0.1,0.2,0.2,0.5,0.3,0.7c0.1,0.2,0.2,0.4,0.1,0.6
								c0,0.1-0.2,0.2-0.3,0.1c-0.2-0.2-0.3-0.5-0.4-0.8C76.6,123.2,76.6,123,76.8,122.8z"/>
						</g>
						<g>
							<path class="st25" d="M74.9,124.4c-0.1-0.2,0-0.4,0.2-0.5c0.3,0.2,0.4,0.5,0.5,0.7s0.1,0.5,0,0.7c-0.1,0.1-0.3,0.2-0.3,0
								C75.2,125.1,75,124.7,74.9,124.4z"/>
						</g>
						<g>
							<path class="st65" d="M81.2,122.9c-0.1-0.2,0.1-0.4,0.2-0.6c0.1,0.2,0.2,0.4,0.1,0.6C81.5,123.1,81.3,123,81.2,122.9z"/>
						</g>
						<g>
							<path class="st66" d="M67.5,131.5c0.1-0.2,0.3-0.3,0.5-0.4c-0.1,0.1-0.3,0.2-0.3,0.4c0.2,0.1,0.4,0.1,0.5,0.1
								c0.2,0,0.4,0.1,0.5,0c0.2-0.1,0.5-0.2,0.7-0.3c-0.2,0.1-0.5,0.2-0.7,0.3c0.3,0.1,0.6,0.2,0.9,0.3s0.6-0.1,0.8-0.1
								c-0.1,0.1-0.3,0.1-0.5,0.2c0.3,0.2,0.7,0.3,1,0.5c-0.3-0.1-0.7-0.3-1-0.4c0.1,0.2,0.3,0.4,0.4,0.7c-0.2-0.2-0.3-0.4-0.4-0.6
								c0-0.1-0.2-0.1-0.3-0.1c-0.3-0.1-0.6-0.2-0.9-0.2c0.1,0.3,0.3,0.6,0.5,0.9c-0.3-0.3-0.5-0.6-0.6-0.9
								C68.2,131.6,67.9,131.6,67.5,131.5c0.1,0.6,0.5,0.9,0.7,1.3c-0.4-0.3-0.6-0.7-0.8-1.2c-0.1,0-0.2,0-0.2,0
								C67.3,131.5,67.4,131.5,67.5,131.5z"/>
						</g>
						<g>
							<path class="st67" d="M59.7,137.2c0.1-0.4,0.4-0.6,0.6-0.9c0.1,0,0.2,0,0.3,0c0.5,0.3,1,0.6,1.5,0.8
								c-0.1,0.2-0.4,0.3-0.5,0.6c-0.1,0.1-0.1,0.4-0.3,0.5c-0.1,0.1-0.1,0.2-0.1,0.4h-0.1c-0.2,0.1-0.3,0.3-0.3,0.6
								c-0.6-0.3-1.3-0.7-1.9-1.1c0.1-0.2,0.3-0.3,0.4-0.4C59.5,137.4,59.7,137.4,59.7,137.2z"/>
						</g>
						<g>
							<path class="st68" d="M62.2,137.1c0.4,0.2,0.9,0.4,1.4,0.6c-0.1,0-0.2,0.1-0.4,0.1c0,0.1,0,0.1,0,0.2
								c-0.3,0.2-0.4,0.6-0.6,0.8c-0.2,0.2-0.5,0.4-0.6,0.7c-0.4-0.2-0.7-0.3-1.1-0.5c0-0.2,0.1-0.4,0.3-0.6h0.1
								c0-0.1,0.1-0.3,0.1-0.4c0.2-0.1,0.2-0.3,0.3-0.5C61.8,137.5,62.1,137.4,62.2,137.1z"/>
						</g>
						<g>
							<path class="st69" d="M63.1,138c0-0.1,0-0.1,0-0.2c0.1,0,0.2-0.1,0.4-0.1c0.4,0.1,0.8,0.3,1.2,0.4c-0.1,0.1-0.2,0.1-0.3,0.2
								c0,0.1-0.1,0.2-0.1,0.2c0,0.1,0,0.3-0.1,0.3c-0.4,0.2-0.5,0.7-0.7,1c-0.1,0.1,0,0.2,0,0.3c-0.5-0.2-1.1-0.4-1.6-0.6
								c0.1-0.3,0.4-0.5,0.6-0.7C62.7,138.6,62.8,138.2,63.1,138z"/>
						</g>
						<g>
							<path class="st70" d="M64.5,138.3c0.1,0,0.2-0.1,0.3-0.2c0.8,0.2,1.7,0.4,2.5,0.4c-0.1,0-0.1,0.1-0.2,0.1s-0.2,0-0.2-0.1
								c-0.1,0.2-0.2,0.3-0.3,0.4c0,0.1,0,0.1,0,0.2c-0.2,0.2-0.3,0.5-0.5,0.7c-0.1,0.1-0.3,0.3-0.4,0.5c0,0.1-0.1,0.1-0.1,0.1
								c0,0.1-0.1,0.1-0.1,0.2c-0.7-0.1-1.3-0.3-2-0.5c0-0.1-0.1-0.2,0-0.3c0.2-0.4,0.4-0.8,0.7-1c0.1-0.1,0.1-0.2,0.1-0.3
								C64.4,138.4,64.4,138.4,64.5,138.3z"/>
						</g>
						<g>
							<path class="st71" d="M66.8,138.6c0.1,0,0.2,0,0.2,0.1c0.1,0,0.1-0.1,0.2-0.1c0.6,0,1.2,0.1,1.8,0c0,0.1,0,0.2-0.1,0.3
								c0-0.1-0.1-0.1-0.1-0.2c0,0.1,0,0.2,0,0.4c-0.1,0-0.1-0.1-0.2-0.1c0,0.1,0,0.2,0,0.3l-0.1-0.1c-0.1,0.2-0.2,0.4-0.4,0.6
								c-0.1,0.1-0.3,0.2-0.3,0.4c0,0,0.1,0,0.2,0c-0.2,0.2-0.3,0.4-0.4,0.6l-0.1-0.1c0,0.1-0.1,0.2-0.1,0.3c-0.7,0-1.3-0.1-2-0.2
								c0-0.1,0.1-0.1,0.1-0.2c0.1,0,0.1,0,0.1-0.1c0-0.2,0.2-0.3,0.4-0.5c0.2-0.2,0.2-0.5,0.5-0.7c0-0.1,0-0.1,0-0.2
								C66.7,138.9,66.8,138.8,66.8,138.6z"/>
						</g>
						<g>
							<path class="st72" d="M68.9,139c0-0.1,0-0.2,0-0.4c0,0.1,0.1,0.1,0.1,0.2c0-0.1,0-0.2,0.1-0.3c0.9,0,1.8-0.2,2.7-0.4
								c-0.1,0.1-0.1,0.1-0.2,0.2c0,0,0.1,0,0.1,0.1c0,0.2-0.3,0.2-0.3,0.4c-0.2,0.3-0.3,0.6-0.6,0.9c-0.1,0.1-0.1,0.3-0.2,0.4
								c-0.2,0.1-0.3,0.4-0.5,0.6c0,0,0,0.1,0.1,0.1c-0.9,0.1-1.8,0.1-2.7,0.1c0-0.1,0.1-0.2,0.1-0.3l0.1,0.1
								c0.1-0.2,0.2-0.4,0.4-0.6c0,0-0.1,0-0.2,0c0.1-0.2,0.2-0.3,0.3-0.4c0.2-0.2,0.2-0.4,0.4-0.6l0.1,0.1c0-0.1,0-0.2,0-0.3
								C68.7,139,68.8,139,68.9,139z"/>
						</g>
						<g>
							<path class="st73" d="M71.8,138.2c0.9-0.2,1.8-0.5,2.6-0.9c-0.1,0.2-0.4,0.3-0.5,0.4c0,0.1,0.1,0.2,0.1,0.3
								c-0.1,0-0.1-0.1-0.2-0.1c-0.2,0.2-0.3,0.4-0.3,0.7l-0.1-0.1c-0.1,0.2-0.2,0.4-0.4,0.5c-0.2,0.1-0.1,0.4-0.3,0.5
								c-0.2,0.2-0.4,0.5-0.5,0.7c-0.1,0.1-0.1,0.2-0.1,0.3c-0.6,0.1-1.3,0.2-1.9,0.3c0,0,0-0.1-0.1-0.1c0.2-0.2,0.2-0.5,0.5-0.6
								c0.1-0.1,0.1-0.3,0.2-0.4c0.3-0.2,0.4-0.6,0.6-0.9c0.1-0.2,0.3-0.2,0.3-0.4c0,0-0.1,0-0.1-0.1
								C71.6,138.3,71.7,138.3,71.8,138.2z"/>
						</g>
						<g>
							<path class="st74" d="M74.4,137.3c0.2-0.1,0.4-0.2,0.6-0.3c0.4-0.2,0.8-0.4,1.2-0.7c0.4-0.2,0.9-0.1,1.3,0.2
								c-0.2,0.2-0.3,0.4-0.4,0.6c-0.1,0.2-0.4,0.3-0.5,0.6c-0.1,0.2-0.3,0.4-0.5,0.6c-0.1,0.1-0.2,0.3-0.3,0.5
								c-0.1,0.1-0.2,0.3-0.3,0.4c0,0,0.1,0.1,0.1,0.2c-1.1,0.5-2.3,0.9-3.5,1.2c0-0.1,0-0.2,0.1-0.3c0.2-0.2,0.3-0.5,0.5-0.7
								c0.2-0.1,0.1-0.4,0.3-0.5c0.2-0.1,0.3-0.3,0.4-0.5l0.1,0.1c0-0.3,0.1-0.5,0.3-0.7c0.1,0,0.1,0.1,0.2,0.1
								c0-0.1-0.1-0.2-0.1-0.3C74,137.6,74.3,137.5,74.4,137.3z"/>
						</g>
						<g>
							<path class="st75" d="M77,137.2c0.1-0.2,0.2-0.4,0.4-0.6c0.6,0.5,0.5,1.4-0.1,1.8c-0.6,0.4-1.2,0.7-1.8,1
								c0-0.1-0.1-0.1-0.1-0.2c0.1-0.1,0.2-0.2,0.3-0.4c0.1-0.2,0.1-0.4,0.3-0.5c0.2-0.2,0.4-0.4,0.5-0.6
								C76.6,137.5,76.9,137.4,77,137.2z"/>
						</g>
					</g>
					<path class="st1" d="M99.4,113c1.6,3.8-0.2,8.1-4,9.7l0,0c-3.8,1.6-8.1-0.2-9.7-4L76.1,99c-0.8-1.1-4.5-31.4-3.3-30.5
						C86.2,79.1,99.4,113,99.4,113z"/>
					<g>
						<path class="st3" d="M76.1,135.5l-7-7.5l-10.2,10.8c-0.9-0.3-2.1-0.2-3.8,0.6c-2.4,1.1-3.6,1.9-6.3,3.6
							c-1.5,0.9-1,2.5,0.8,1.9c0,0,2-0.9,2.3-0.3c0.1,0.2-0.2,0.6-0.4,0.9c-0.6,0.9-0.4,1.4-0.1,2c1,2.3,4.6,8.3,8.4,4.9
							c1.1-1,3-2.9,3.8-4c0.7-0.9,1.6-2.3,2-3.9C66.2,140.7,76.1,135.5,76.1,135.5z"/>
						<path class="st1" d="M71.8,140.7c-2.9,2.9-11.3-5.9-8.3-8.7l23.9-21.4c2.9-2.9,7.6-2.8,10.5,0.1l0,0c2.9,2.9,2.8,7.6-0.1,10.5
							L71.8,140.7z"/>
					</g>
				</g>
			</g>
		</g>
	</g>
</g>
</svg>
